Monoid-Retina-Thicker.sfdir
StartChar: exclam
Encoding: 33 33 56
GlifName: exclam
Width: 1024
VWidth: 0
Flags: W
HStem: -16 298<468.5 683.5> 1388 20G<497 655>
VStem: 427 298<25.5 240.5> 507 138<502 1408>
LayerCount: 5
Back
Fore
SplineSet
427 133 m 0xe0
 427 221 488 282 576 282 c 0
 664 282 725 221 725 133 c 0
 725 45 664 -16 576 -16 c 0
 488 -16 427 45 427 133 c 0xe0
655 1408 m 1
 645 502 l 1
 507 502 l 1xd0
 497 1408 l 1
 655 1408 l 1
EndSplineSet
Validated: 1
Layer: 2
Layer: 3
Layer: 4
Substitution2: "Single Substitution lookup 38 subtable" larsenwork2
Substitution2: "Single Substitution lookup 35 subtable" larsenwork1
Substitution2: "Single Substitution lookup 16 subtable" larsenwork5
EndChar
StartChar: quotedbl
Encoding: 34 34 57
GlifName: quotedbl
Width: 1024
VWidth: 0
Flags: W
HStem: 1388 20G<315 453 699 837>
VStem: 315 138<768 1408> 699 138<768 1408>
LayerCount: 5
Back
Fore
SplineSet
699 768 m 1
 699 1408 l 1
 837 1408 l 1
 837 768 l 1
 699 768 l 1
315 768 m 1
 315 1408 l 1
 453 1408 l 1
 453 768 l 1
 315 768 l 1
EndSplineSet
Validated: 1
Layer: 2
Layer: 3
Layer: 4
EndChar
StartChar: numbersign
Encoding: 35 35 58
GlifName: numbersign
Width: 1024
VWidth: 0
Flags: W
HStem: -5 21G<379 517 763 901> 379 130<251 379 517 763 901 1029> 899 130<251 379 517 763 901 1029> 1388 20G<379 517 763 901>
VStem: 379 138<-5 379 509 899 1029 1408> 763 138<-5 379 509 899 1029 1408>
LayerCount: 5
Back
SplineSet
640 -380 m 25
 896 1916 l 1049
256 -380 m 25
 512 1916 l 1049
1024 1148 m 5
 1024 1028 l 5
 128 1028 l 5
 128 1148 l 5
 1024 1148 l 5
1024 508 m 5
 1024 388 l 5
 128 388 l 5
 128 508 l 5
 1024 508 l 5
EndSplineSet
Fore
SplineSet
763 899 m 1
 517 899 l 1
 517 509 l 1
 763 509 l 1
 763 899 l 1
901 509 m 1
 1029 509 l 1
 1029 379 l 1
 901 379 l 1
 901 -5 l 1
 763 -5 l 1
 763 379 l 1
 517 379 l 1
 517 -5 l 1
 379 -5 l 1
 379 379 l 1
 251 379 l 1
 251 509 l 1
 379 509 l 1
 379 899 l 1
 251 899 l 1
 251 1029 l 1
 379 1029 l 1
 379 1408 l 1
 517 1408 l 1
 517 1029 l 1
 763 1029 l 1
 763 1408 l 1
 901 1408 l 1
 901 1029 l 1
 1029 1029 l 1
 1029 899 l 1
 901 899 l 1
 901 509 l 1
EndSplineSet
Validated: 1
Layer: 2
SplineSet
1029 509 m 1
 1029 379 l 1
 901 379 l 1
 901 0 l 1
 763 0 l 1
 763 379 l 1
 517 379 l 1
 517 0 l 1
 379 0 l 1
 379 379 l 1
 251 379 l 1
 251 509 l 1
 379 509 l 1
 379 899 l 1
 251 899 l 1
 251 1029 l 1
 379 1029 l 1
 379 1408 l 1
 517 1408 l 1
 517 1029 l 1
 763 1029 l 1
 763 1408 l 1
 901 1408 l 1
 901 1029 l 1
 1029 1029 l 1
 1029 899 l 1
 901 899 l 1
 901 509 l 1
 1029 509 l 1
517 899 m 1
 517 509 l 1
 763 509 l 1
 763 899 l 1
 517 899 l 1
EndSplineSet
Layer: 3
Layer: 4
EndChar
StartChar: dollar
Encoding: 36 36 59
GlifName: dollar
Width: 1024
VWidth: 0
Flags: W
HStem: -16 120<645 791.094>
VStem: 221 138<900.662 1195.61> 507 138<-128 -16 117 651> 635 138<787 1290 1424 1536> 921 138<227.449 527.106>
LayerCount: 5
Back
SplineSet
620 -16 m 4
 486 -16 366 -2 250 16 c 5
 250 139 l 5
 364 121 492 104 620 104 c 4
 799 104 926 209 926 385 c 4
 926 508 857 597 768 632 c 4
 654 678 544 650 411 721 c 4
 304 778 226 895 226 1045 c 4
 226 1266 385 1424 620 1424 c 4
 756 1424 877 1410.85714286 990 1399 c 5
 990 1278 l 5
 878 1290.37037037 745 1304 620 1304 c 4
 455 1304 354 1198 354 1045 c 4
 354 942 405 863 477 825 c 4
 575 773 700 788 816 742 c 4
 945 691 1054 566 1054 385 c 4
 1054 143 869 -16 620 -16 c 4
EndSplineSet
Fore
SplineSet
635 1424 m 1xd8
 635 1536 l 1
 773 1536 l 1
 773 1419 l 1
 850 1414 923 1407 991 1399 c 0
 995 1399 l 1
 995 1268 l 1
 989 1269 l 0
 928 1276 848 1285 773 1290 c 1
 773 761 l 1xd8
 931 717 1059 590 1059 387 c 0
 1059 152 883 -6 645 -16 c 1
 645 -128 l 1
 507 -128 l 1
 507 -13 l 1
 418 -8 331 3 249 16 c 0
 245 17 l 1
 245 149 l 1
 251 148 l 0
 330 135 420 123 507 117 c 1
 507 678 l 1xe8
 343 721 221 846 221 1043 c 0
 221 1177 292 1421 635 1424 c 1xd8
635 787 m 1
 635 1299 l 1
 389 1296 359 1131 359 1045 c 0
 359 848 521 797 635 787 c 1
921 380 m 0
 921 568 781 639 645 651 c 1
 645 104 l 1xe8
 809 114 921 216 921 380 c 0
EndSplineSet
Validated: 1
Layer: 2
Layer: 3
Layer: 4
Substitution2: "'ss01' Style Set 1 lookup 0 subtable" dollar.empty
EndChar
StartChar: percent
Encoding: 37 37 60
GlifName: percent
Width: 1024
VWidth: 0
Flags: W
HStem: -16 120<667.096 868.904> 403 130<667.096 868.904> 875 130<281.986 486.014> 1294 130<281.986 486.014>
VStem: 107 138<1041.24 1258.42> 491 138<142.401 366.355> 523 138<1041.24 1258.42> 907 138<142.401 366.355>
LayerCount: 5
Back
SplineSet
128 256 m 5
 1024 1152 l 1029
EndSplineSet
Fore
SplineSet
1075 1108 m 1xf9
 172 205 l 1
 77 300 l 1
 980 1203 l 1
 1075 1108 l 1xf9
523 1150 m 0xfb
 523 1244 465 1294 384 1294 c 0
 303 1294 245 1244 245 1150 c 0
 245 1056 303 1005 384 1005 c 0
 465 1005 523 1056 523 1150 c 0xfb
107 1150 m 0
 107 1303 220 1424 384 1424 c 0
 548 1424 661 1303 661 1150 c 0
 661 997 548 875 384 875 c 0
 220 875 107 997 107 1150 c 0
907 254 m 0
 907 351 849 403 768 403 c 0
 687 403 629 351 629 254 c 0xfd
 629 157 687 104 768 104 c 0
 849 104 907 157 907 254 c 0
491 258 m 0
 491 411 604 533 768 533 c 0
 932 533 1045 411 1045 258 c 0
 1045 105 932 -16 768 -16 c 0
 604 -16 491 105 491 258 c 0
EndSplineSet
Validated: 1
Layer: 2
SplineSet
123 1408 m 1
 1029 1408 l 1
 1029 0 l 1
 123 0 l 1
 123 1408 l 1
EndSplineSet
Layer: 3
SplineSet
768 473 m 0
 893.229414835 473 981 383.640048426 981 256 c 0
 981 131.301107857 893.229593283 44 768 44 c 0
 642.770585165 44 555 131.300966514 555 256 c 0
 555 383.63990375 642.770406717 473 768 473 c 0
123 436.447335216 m 1
 1029 1136.26653363 l 1
 1029 971.552664784 l 1
 123 271.733466367 l 1
 123 436.447335216 l 1
EndSplineSet
Layer: 4
EndChar
StartChar: ampersand
Encoding: 38 38 61
GlifName: ampersand
Width: 1024
VWidth: 0
Flags: W
HStem: -16 120<382.086 759.168> -0 21G<929.57 1112> 1298 130<446.884 706.781>
VStem: 91 138<249.064 535.483> 234 138<954.04 1221.17> 780 138<952.778 1219.44> 891 138<315.014 645>
LayerCount: 5
Back
SplineSet
453 678 m 5xb8
 327 638 224 544 224 396 c 4
 224 235 351 104 576 104 c 4
 676 104 760 132 815 182 c 5
 453 678 l 5xb8
  Spiro
    453 678 v
    337.731 620.076 o
    255.311 525.888 o
    224 396 o
    265.178 248.871 o
    384.897 143.85 o
    576 104 o
    670.097 113.093 o
    750.888 139.59 o
    815 182 v
    0 0 z
  EndSpiro
505 819 m 5
 569 836 629 858 676 890 c 4
 737 931 785 999 785 1095 c 4x3c
 785 1219 704 1308 576 1308 c 4
 451 1308 367 1223 367 1094 c 4
 367 1013 399 965 437 913 c 6
 505 819 l 5
  Spiro
    505 819 v
    567.273 837.831 o
    625.055 861.174 o
    676 890 o
    731.322 939.978 o
    770.324 1008.37 o
    785 1095 o
    759.309 1205.24 o
    686.981 1280.39 o
    576 1308 o
    466.352 1281.24 o
    393.356 1206.72 o
    367 1094 o
    376.685 1022.69 o
    401.994 964.984 o
    437 913 [
    0 0 z
  EndSpiro
884 299 m 5
 895 338 896 383 896 431 c 6
 896 640 l 5
 1024 640 l 5
 1024 431 l 6
 1024 342 1017 254 971 179 c 5
 1102 0 l 5
 947 0 l 5x7a
 888 82 l 5
 812 20 702 -16 576 -16 c 4xba
 271 -16 96 177 96 396 c 4
 96 578 217 722 379 779 c 5
 331 845 l 6
 286 906 239 990 239 1094 c 4
 239 1293 383 1428 576 1428 c 4
 774 1428 913 1285 913 1095 c 4
 913 957 839 853 752 793 c 4
 694 754 639 735 580 716 c 5
 884 299 l 5
  Spiro
    884 299 v
    891.995 339.846 o
    895.335 384.157 o
    896 431 [
    896 640 v
    1024 640 v
    1024 431 ]
    1020.49 342.865 o
    1005.16 257.807 o
    971 179 v
    1102 0 v
    947 0 v
    888 82 v
    801.43 29.0806 o
    695.887 -4.39325 o
    576 -16 o
    316.213 42.0381 o
    152.555 192.035 o
    96 396 o
    133.299 563.367 o
    233.755 694.924 o
    379 779 v
    331 845 ]
    287.189 913.48 o
    252.826 996.868 o
    239 1094 o
    283.396 1268.89 o
    403.002 1385.71 o
    576 1428 o
    751.221 1383.97 o
    869.713 1265.63 o
    913 1095 o
    890.635 968.818 o
    832.336 867.208 o
    752 793 o
    694.798 759.954 o
    637.869 735.72 o
    580 716 v
    0 0 z
  EndSpiro
EndSplineSet
Fore
SplineSet
808 178 m 1xb8
 448 670 l 1
 326 627 229 537 229 391 c 0
 229 233 353 104 576 104 c 0
 673 104 754 131 808 178 c 1xb8
372 1089 m 0
 372 997 411 952 507 820 c 1
 648 857 780 924 780 1090 c 0x3c
 780 1212 701 1298 576 1298 c 0
 454 1298 372 1215 372 1089 c 0
588 713 m 1
 882 313 l 1
 890 349 891 389 891 433 c 0
 891 645 l 1
 1029 645 l 1
 1029 433 l 0
 1029 345 1022 258 977 183 c 1
 1112 -0 l 1
 944 -0 l 1x7a
 887 79 l 1
 809 18 701 -16 576 -16 c 0xba
 269 -16 91 178 91 398 c 0
 91 580 210 723 368 784 c 1
 291 891 234 967 234 1090 c 0
 234 1291 380 1428 576 1428 c 0
 777 1428 918 1283 918 1092 c 0
 918 921 803 772 588 713 c 1
EndSplineSet
Validated: 1
Layer: 2
SplineSet
576 1368 m 0
 739.43888141 1368 854 1255.76642918 854 1095 c 0
 854 931.289155173 739.438905576 817 576 817 c 0
 412.56111859 817 298 931.289130718 298 1095 c 0
 298 1255.76640517 412.561094424 1368 576 1368 c 0
576 753 m 0
 822.980680718 753 997 607.013050532 997 396 c 0
 997 187.94247773 822.980672981 44 576 44 c 0
 329.019319282 44 155 187.942314322 155 396 c 0
 155 607.012884802 329.019327019 753 576 753 c 0
EndSplineSet
Layer: 3
SplineSet
894.429726548 168.896587277 m 0
 886.282994965 158.670240082 877.458308834 148.979649045 867.994864166 139.926763277 c 0
 829.678309424 103.272521053 782.001396695 77.3795788958 731.68837104 61.4665502392 c 0
 681.403721951 45.5624965373 628.539885858 39.0012356761 576.000117594 39.0000000014 c 0
 523.405439302 38.9987630353 470.612683891 45.5357645374 420.006372759 60.3207107181 c 0
 369.375095585 75.1129508816 320.913882154 98.687957069 279.84336086 132.122419654 c 0
 240.831005939 163.881381554 208.939100285 204.359293893 187.506097876 249.897181239 c 0
 166.078363347 295.42387612 155.039611923 345.707847297 155.000001551 395.996061666 c 0
 154.958398422 448.814224545 167.104494935 501.664779879 190.791906169 548.920064007 c 0
 214.487482015 596.19163616 249.763373525 637.332696787 292.000616312 669.00046216 c 0
 333.189968764 699.882562014 380.386356636 721.560056353 428.664211274 738.280102717 c 0
 442.317619628 743.008681118 456.065686706 747.370260326 469.851234476 751.5443583 c 1024
480.692718492 754.789708132 m 1
 512.064378907 764.070905275 543.780091751 772.723845087 574.491912782 782.566483012 c 0
 622.604486249 797.985778395 669.746273049 817.108922436 711.095695178 845.308891748 c 0
 752.425272419 873.495327006 787.565788357 911.088329926 810.564102515 955.307122342 c 0
 832.838682408 998.132714433 843.947023109 1046.62051831 844.000002998 1095 c 0
 844.076018232 1163.1473116 820.306470625 1232.34345112 772.402844884 1281.05436106 c 0
 747.337146154 1306.49244188 716.191412251 1326.08921613 682.420952733 1338.84089734 c 0
 648.629835718 1351.64030537 612.290022965 1357.84484283 575.978249431 1358.00009462 c 0
 539.932258188 1358.1541678 503.801362496 1352.3391699 470.173992694 1339.88529607 c 0
 436.567910673 1327.47897953 405.549810599 1308.18053721 380.58504508 1283.02936107 c 0
 356.168983657 1258.41825979 337.612965624 1228.31331532 325.642023006 1195.93683117 c 0
 313.663295081 1163.41930524 307.990542688 1128.68476819 307.99999982 1094 c 0
 308.010312115 1055.54785067 315.014865506 1017.06466919 329.151223561 981.370224222 c 0
 343.263543521 945.736051452 365.104046292 913.42312024 388.041026069 881.944504764 c 2
 480.692718492 754.789708132 l 1
894.999408733 189.141437488 m 1
 914.774860217 216.244618969 929.949254298 246.933678589 939.351817589 278.79275419 c 0
 953.635622559 327.582102786 954.999999998 379.417326062 955 431 c 2
 955 645 l 1
 965 645 l 1
 965 431 l 2
 964.999999998 379.267800813 963.718861895 326.441019867 948.955827517 276.006539322 c 0
 938.958687814 242.101983458 922.570187696 209.383048565 901.18570408 180.661651069 c 1
 1158.98553083 -172.055495236 l 1
 1150.90347869 -177.944504764 l 1
 888.728950937 180.766203431 l 1
 476.77418496 743.186703016 l 1
 461.716403687 738.66595288 446.680185756 733.936825244 431.936799278 728.830755239 c 0
 384.270699246 712.322577557 338.04742059 691.025925752 297.999383688 660.99953784 c 0
 256.943981141 630.217868173 222.686845203 590.233430524 199.731650657 544.438884645 c 0
 176.768291497 498.628050741 164.959602482 447.289521689 164.999998449 396.003938334 c 0
 165.038463265 347.903126644 175.770368969 299.780359235 196.554023974 256.284968414 c 0
 217.332411099 212.813314149 248.298217081 174.103232871 286.15663914 143.755160692 c 0
 326.021641226 111.729691247 373.266270461 89.0028036855 422.810702741 74.7188147614 c 0
 472.380101061 60.3757015252 524.231122508 53.9987941328 575.999882406 53.9999999972 c 0
 627.7120858 54.0012033417 679.558601639 60.3987492134 728.672800558 75.7682722688 c 0
 777.758622909 91.0578560153 824.065556798 115.891783292 861.082280748 150.765878952 c 0
 870.916177931 160.0082909 880.254099081 170.224914428 888.728950937 180.897290265 c 1
 476.77418496 743.186703016 l 1
 379.958973931 876.055495236 l 2
 356.894998256 907.70839935 334.503483749 940.697078944 319.853793887 977.688132226 c 0
 305.22814212 1014.6180626 298.010636441 1054.33715556 298.00000018 1093.99731818 c 0
 297.990256178 1129.7532071 303.828745353 1165.63342255 316.240144782 1199.34339628 c 0
 328.659329518 1232.95868993 347.923039945 1264.28417952 373.41495492 1290 c 0
 399.482653227 1316.28411366 431.747178737 1336.34805927 466.647033328 1349.24267592 c 0
 501.525600138 1362.16764482 538.8578374 1368.15894645 576.021750569 1368 c 0
 613.458431005 1367.83984596 650.992653582 1361.44615776 686.017057011 1348.17192269 c 0
 721.062117939 1334.9283367 753.439355812 1314.56770438 779.597155116 1288 c 0
 829.645648137 1237.07449638 854.07841266 1165.33471619 853.999997002 1094.98904954 c 0
 853.945361747 1045.09787892 842.50757677 995.051045849 819.435897485 950.692877658 c 0
 795.583475771 904.831895102 759.284681741 866.069203526 716.730042896 837.047286226 c 0
 674.195248939 808.038902978 626.122080295 788.612110939 577.543848092 773.043579522 c 0
 547.510184488 763.418279997 517.057522914 755.076045738 486.94495375 746.209166515 c 1
 894.999408733 189.141437488 l 1
EndSplineSet
Layer: 4
Substitution2: "Single Substitution lookup 53 subtable" larsenwork6
Substitution2: "Single Substitution lookup 52 subtable" ampamp
EndChar
StartChar: quotesingle
Encoding: 39 39 62
GlifName: quotesingle
Width: 1024
VWidth: 0
Flags: W
HStem: 1388 20G<507 645>
VStem: 507 138<768 1408>
LayerCount: 5
Back
Fore
SplineSet
507 768 m 1
 507 1408 l 1
 645 1408 l 1
 645 768 l 1
 507 768 l 1
EndSplineSet
Validated: 1
Layer: 2
Layer: 3
Layer: 4
EndChar
StartChar: parenleft
Encoding: 40 40 63
GlifName: parenleft
Width: 1024
VWidth: 0
Flags: W
VStem: 355 138<411.492 994.344>
LayerCount: 5
Back
SplineSet
488 703 m 4
 488 556 513 409 575 281 c 4
 641 145 753 32 886 -30 c 5
 835 -140 l 5
 670 -64 537 71 459 231 c 4
 387 379 360 543 360 703 c 4
 360 863 387 1027 459 1175 c 4
 537 1335 670 1470 835 1546 c 5
 886 1436 l 5
 753 1374 641 1261 575 1125 c 4
 513 997 488 850 488 703 c 4
EndSplineSet
Fore
SplineSet
837 1548 m 1
 897 1434 l 1
 892 1432 l 0
 645 1309 493 1070 493 703 c 0
 493 336 645 96 892 -26 c 0
 897 -28 l 1
 837 -142 l 1
 833 -140 l 0
 540 1 355 282 355 703 c 0
 355 1124 540 1404 833 1546 c 0
 837 1548 l 1
EndSplineSet
Validated: 1
Layer: 2
SplineSet
862.44708109 1493.09352872 m 1
 866.634138538 1484.0123091 l 1
 862.093528724 1481.91878037 l 0
 713.85062117 1414.04534642 592.71057367 1291.65511024 521.500043523 1145.64128079 c 0
 455.026442878 1009.05596735 429 855.170172224 429 703 c 0
 429 550.829833339 455.02644372 396.944030919 521.500045093 260.358715969 c 0
 592.710535595 114.345200643 713.849910901 -8.04424712436 862.192373461 -75.9177154195 c 0
 866.733515751 -78.0100888805 l 1
 862.548768829 -87.0923734609 l 1
 858.007626539 -85 l 0
 707.403995349 -16.0852857113 584.678136281 107.987987264 512.499954907 256.000003242 c 0
 445.18449378 394.321721064 419 549.71943928 419 703 c 0
 419 856.280555156 445.184494622 1011.67828068 512.499956477 1150 c 0
 584.678098206 1298.0121642 707.40328508 1422.08503626 857.906471276 1491 c 0
 862.44708109 1493.09352872 l 1
EndSplineSet
Layer: 3
Layer: 4
EndChar
StartChar: parenright
Encoding: 41 41 64
GlifName: parenright
Width: 1024
VWidth: 0
Flags: W
VStem: 659 138<411.492 994.344>
LayerCount: 5
Back
Fore
SplineSet
319 1546 m 2
 612 1404 797 1124 797 703 c 0
 797 282 612 1 319 -140 c 0
 315 -142 l 1
 255 -28 l 1
 260 -26 l 0
 507 96 659 336 659 703 c 0
 659 1070 507 1309 260 1432 c 0
 255 1434 l 1
 315 1548 l 1
 319 1546 l 2
EndSplineSet
Validated: 1
Layer: 2
Layer: 3
Layer: 4
EndChar
StartChar: asterisk
Encoding: 42 42 65
GlifName: asterisk
Width: 1024
VWidth: 0
Flags: W
HStem: 1006 20G<319.767 365.516 787.419 833.233>
VStem: 507 138<118 510>
LayerCount: 5
Back
Fore
SplineSet
507 118 m 1
 507 510 l 1
 141 391 l 1
 95 513 l 1
 468 635 l 1
 237 953 l 1
 351 1026 l 1
 576 716 l 1
 802 1026 l 1
 916 953 l 1
 684 635 l 1
 1057 513 l 1
 1011 391 l 1
 645 510 l 1
 645 118 l 1
 507 118 l 1
EndSplineSet
Validated: 1
Layer: 2
Layer: 3
SplineSet
161.928932188 1363.46446609 m 1
 169 1370.53553391 l 1
 576 963.535533906 l 1
 983 1370.53553391 l 1
 990.071067812 1363.46446609 l 1
 583.071067812 956.464466094 l 1
 990.071067812 553 l 1
 983 545.928932188 l 1
 576 949.393398282 l 1
 169 545.928932188 l 1
 161.928932188 553 l 1
 568.928932188 956.464466094 l 1
 161.928932188 1363.46446609 l 1
EndSplineSet
Layer: 4
SplineSet
426.162080612 517.116722359 m 1
 483 573.09346115 l 1
 483 578.90653885 l 1
 426.162080612 634.883277641 l 1
 424.112264786 635.823781373 l 1
 154.487948352 898.878716248 l 1
 151.138206839 902.177704103 l 1
 151.144480731 902.460471288 l 1
 151.180521927 902.226693484 l 1
 144.649236734 908.454878728 l 1
 195.456257698 952.775897016 l 1
 239.777275986 1003.8418312 l 1
 246.211369435 997.051632787 l 1
 246.252684952 997.087673983 l 1
 516.176218627 727.887735214 l 1
 517.130480834 725.807932967 l 1
 573.093057656 669 l 1
 578.906942344 669 l 1
 634.869519166 725.807932967 l 1
 635.823781373 727.887735214 l 1
 905.747315048 997.087673983 l 1
 905.788630565 997.051632787 l 1
 912.222724014 1003.8418312 l 1
 956.543742302 952.775897016 l 1
 1007.35076327 908.454878728 l 1
 1000.81947807 902.226693484 l 1
 1000.85551927 902.460471288 l 1
 1000.86179316 902.177704103 l 1
 997.512051648 898.878716248 l 1
 727.887735214 635.823781373 l 1
 725.837919388 634.883277641 l 1
 669 578.90653885 l 1
 669 573.09346115 l 1
 725.837919388 517.116722359 l 1
 727.887735214 516.176218627 l 1
 997.512051648 249.55886483 l 1
 1000.86179316 246.259876976 l 1
 1000.85551927 246.252684952 l 1
 1000.81947807 246.211369435 l 1
 1007.35076327 243.545121272 l 1
 956.543742302 199.224102984 l 1
 912.222724014 148.158168798 l 1
 905.788630565 154.948367213 l 1
 905.740123024 154.906052124 l 1
 578.90653885 483 l 1
 573.09346115 483 l 1
 246.259876976 154.906052124 l 1
 246.211369435 154.948367213 l 1
 239.777275986 148.158168798 l 1
 195.456257698 199.224102984 l 1
 144.649236734 243.545121272 l 1
 151.180521927 246.211369435 l 1
 151.144480731 246.252684952 l 1
 151.138206839 246.259876976 l 1
 154.487948352 249.55886483 l 1
 424.112264786 516.176218627 l 1
 426.162080612 517.116722359 l 1
EndSplineSet
Substitution2: "'ss02' Style Set 2 lookup 1 subtable" asterisk.multi
EndChar
StartChar: plus
Encoding: 43 43 66
GlifName: plus
Width: 1024
VWidth: 0
Flags: W
HStem: 511 130<123 507 645 1029> 1004 20G<507 645>
VStem: 507 138<123 511 641 1024>
LayerCount: 5
Back
Fore
SplineSet
645 1024 m 1
 645 641 l 1
 1029 641 l 1
 1029 511 l 1
 645 511 l 1
 645 123 l 1
 507 123 l 1
 507 511 l 1
 123 511 l 1
 123 641 l 1
 507 641 l 1
 507 1024 l 1
 645 1024 l 1
EndSplineSet
Validated: 1
Layer: 2
Layer: 3
Layer: 4
EndChar
StartChar: comma
Encoding: 44 44 67
GlifName: comma
Width: 1024
VWidth: 0
Flags: W
HStem: -272 130<379 478.465> 118 250<379 507>
VStem: 379 266<118 368> 507 138<-97.4495 118>
LayerCount: 5
Back
SplineSet
384 368 m 1xe0
 640 368 l 1xe0
 640 23 l 2xd0
 640 -37 640 -107 588 -177 c 0
 546 -234 474 -272 384 -272 c 1
 384 -152 l 1xe0
 431 -152 463 -135 484 -107 c 4
 512 -70 512 -27 512 23 c 2
 512 128 l 1xd0
 384 128 l 1
 384 368 l 1xe0
EndSplineSet
Fore
SplineSet
379 118 m 1xe0
 379 368 l 1
 645 368 l 1xe0
 645 18 l 0xd0
 645 -39 645 -107 592 -175 c 0
 549 -233 475 -272 384 -272 c 0
 379 -272 l 1
 379 -142 l 1xe0
 384 -142 l 0
 430 -142 460 -126 480 -99 c 0
 507 -66 507 -28 507 18 c 0
 507 118 l 1xd0
 379 118 l 1xe0
EndSplineSet
Validated: 1
Layer: 2
SplineSet
349.875338138 -207.347685597 m 2
 387.003494888 -153.921883611 445 -72.5699639258 445 -9 c 0
 445 91.9457120629 363 146.035203987 363 256 c 0
 363 342.721023001 427.457932325 400 512 400 c 0
 591.865483193 400 661 345.707995643 661 224 c 0
 661 3.81631670792 565.194690972 -155.415316038 457.872419257 -286 c 0
 454.876759738 -288.792116596 l 1
 347.132345589 -210.138694267 l 1
 349.875338138 -207.347685597 l 2
EndSplineSet
Layer: 3
Layer: 4
EndChar
StartChar: hyphen
Encoding: 45 45 55
GlifName: hyphen
Width: 1024
VWidth: 0
Flags: W
HStem: 516 130<187 965>
LayerCount: 5
Back
Fore
SplineSet
187 516 m 1
 187 646 l 1
 965 646 l 1
 965 516 l 1
 187 516 l 1
EndSplineSet
Validated: 1
Layer: 2
Layer: 3
Layer: 4
Substitution2: "Single Substitution lookup 49 subtable" hyphenmore
Substitution2: "Single Substitution lookup 48 subtable" hyphenmore
Substitution2: "Single Substitution lookup 33 subtable" larsenwork
Substitution2: "Single Substitution lookup 32 subtable" ligaarrowleft
Substitution2: "Single Substitution lookup 28 subtable" larsenwork1
Substitution2: "Single Substitution lookup 27 subtable" ligaarrowlefttwoheads
Substitution2: "Single Substitution lookup 23 subtable" larsenwork
Substitution2: "Single Substitution lookup 22 subtable" larsenwork
Substitution2: "Single Substitution lookup 21 subtable" ligaarrowleftlong
Substitution2: "Single Substitution lookup 20 subtable" larsenwork3
Substitution2: "Single Substitution lookup 18 subtable" commentstart
Substitution2: "Single Substitution lookup 17 subtable" larsenwork5
EndChar
StartChar: period
Encoding: 46 46 68
GlifName: period
Width: 1024
VWidth: 0
Flags: W
HStem: -10 250<379 645>
VStem: 379 266<-10 240>
LayerCount: 5
Back
Fore
SplineSet
379 -10 m 1
 379 240 l 1
 645 240 l 1
 645 -10 l 1
 379 -10 l 1
EndSplineSet
Validated: 1
Layer: 2
Layer: 3
Layer: 4
Substitution2: "Single Substitution lookup 60 subtable" period2r
Substitution2: "Single Substitution lookup 59 subtable" period2l
Substitution2: "Single Substitution lookup 58 subtable" dotdotdot
Substitution2: "Single Substitution lookup 57 subtable" larsenwork
Substitution2: "Single Substitution lookup 56 subtable" larsenwork
EndChar
StartChar: slash
Encoding: 47 47 69
GlifName: slash
Width: 1024
VWidth: 0
Flags: W
LayerCount: 5
Back
SplineSet
238.034488438 -154.535563034 m 1
 125.965511562 -101.464436966 l 1
 913.965511562 1562.53556303 l 1
 1026.03448844 1509.46443697 l 1
 238.034488438 -154.535563034 l 1
EndSplineSet
Fore
SplineSet
240 -157 m 1
 118 -100 l 1
 912 1565 l 1
 1034 1508 l 1
 240 -157 l 1
EndSplineSet
Validated: 1
Layer: 2
SplineSet
184.378945597 -130.139964761 m 1
 175.341124881 -125.860035239 l 1
 177.481089642 -123.720070478 l 1
 177.05309669 -126.763817311 177.481089642 -126.860035239 177.481089642 -123.720070478 c 1
 967.621054403 1538.13996476 l 1
 976.658875119 1533.86003524 l 1
 184.378945597 -130.139964761 l 1
EndSplineSet
Layer: 3
Layer: 4
Substitution2: "Single Substitution lookup 69 subtable" ligadoubleslash
Substitution2: "Single Substitution lookup 68 subtable" larsenwork
Substitution2: "Single Substitution lookup 67 subtable" ligatrippleslash
Substitution2: "Single Substitution lookup 66 subtable" larsenwork1
Substitution2: "Single Substitution lookup 65 subtable" larsenwork1
EndChar
StartChar: zero
Encoding: 48 48 70
GlifName: zero
Width: 1024
VWidth: 0
Flags: W
HStem: -18 134<475.703 675.324> 1292 134<476.676 676.297>
VStem: 248 134<433.692 1149.1> 770 134<258.896 974.308>
LayerCount: 5
Back
SplineSet
740 241 m 5
 710 164 658 106 576 106 c 4
 486 106 432 176 404 264 c 4
 377 348 377 515 377 704 c 4
 377 813 377 915 382 997 c 5
 740 241 l 5
576 1302 m 4
 666 1302 720 1232 748 1144 c 4
 775 1060 775 893 775 704 c 4
 775 595 770 493 770 411 c 5
 412 1167 l 5
 442 1244 494 1302 576 1302 c 4
576 1426 m 4
 411 1426 332 1315 292 1209 c 4
 253 1105 253 926 253 704 c 4
 253 482 253 303 292 199 c 4
 332 93 411 -18 576 -18 c 4
 741 -18 820 93 860 199 c 4
 899 303 899 482 899 704 c 4
 899 926 899 1105 860 1209 c 4
 820 1315 741 1426 576 1426 c 4
EndSplineSet
Fore
SplineSet
766 982 m 5
 417 246 l 5
 447 170 498 116 576 116 c 4
 663 116 715 184 743 271 c 4
 770 353 770 520 770 709 c 4
 770 809 770 906 766 982 c 5
735 1162 m 5
 705 1238 654 1292 576 1292 c 4
 489 1292 437 1224 409 1137 c 4
 382 1055 382 888 382 699 c 4
 382 599 382 502 386 426 c 5
 735 1162 l 5
287 1207 m 4
 327 1313 408 1426 576 1426 c 4
 744 1426 825 1313 865 1207 c 4
 905 1102 904 924 904 704 c 4
 904 484 905 306 865 201 c 4
 825 95 744 -18 576 -18 c 4
 408 -18 327 95 287 201 c 4
 247 306 248 484 248 704 c 4
 248 924 247 1102 287 1207 c 4
EndSplineSet
Validated: 33
Layer: 2
SplineSet
576 1364 m 0
 609.764430878 1364 643.396954806 1356.04774379 673.580129898 1341.35034339 c 0
 703.76077543 1328.54042303 730.325723651 1309.98564457 751.840472369 1288 c 0
 783.564024224 1248.19408856 804.025330299 1199.85105175 816.531315793 1150.14418235 c 0
 829.031966861 1103.06308528 834.125967184 1054.53443233 836.991356195 1006.2938764 c 0
 842.922844374 905.55026293 842 804.661056769 842 704 c 0
 842 603.338943232 842.922844374 502.44973707 836.991356195 401.706123602 c 0
 834.125966225 353.465551537 829.031970129 304.936927027 816.531315793 257.855817652 c 0
 804.025303756 211.033420317 783.564078478 165.495973009 751.840472369 128 c 0
 730.325694641 102.717526122 703.760805071 81.3804668537 673.580129899 66.649656607 c 0
 643.396921628 51.9522400542 609.764441266 44 576 44 c 0
 542.235569121 44 508.603045195 51.9522562094 478.419870101 66.649656607 c 0
 448.23922457 81.3804523862 421.674276349 102.717560212 400.159527631 128 c 0
 368.435975776 165.495908884 347.974669701 211.033519694 335.468684207 257.855817652 c 0
 322.968033139 304.936914718 317.874032816 353.465567674 315.008643805 401.706123602 c 0
 309.077155626 502.44973707 310 603.338943231 310 704 c 0
 310 804.661056768 309.077155626 905.55026293 315.008643805 1006.2938764 c 0
 317.874033775 1054.53444846 322.968029871 1103.06307297 335.468684207 1150.14418235 c 0
 347.974696244 1199.85115725 368.435921522 1248.19402048 400.159527631 1288 c 0
 421.674305358 1309.98567422 448.23919493 1328.54041045 478.419870101 1341.35034339 c 0
 508.603078372 1356.04775995 542.235558734 1364 576 1364 c 0
EndSplineSet
Layer: 3
SplineSet
572.001953125 1291.96777344 m 0
 549.769332148 1291.96777344 527.309521172 1286.7004504 507.607489384 1277.22110664 c 0
 487.868443998 1267.68029539 469.554926406 1253.3301768 454.427371649 1235.72452887 c 0
 432.125973871 1209.47894657 415.547207704 1174.53958254 405.069719046 1135.48308835 c 0
 394.523047699 1095.79960009 389.653881166 1052.0994335 386.916161063 1006.05280635 c 0
 381.177636094 908.585567342 382.032226562 809.09397189 382.032226562 707.998046875 c 0
 382.032226562 606.897199447 381.175683634 507.429046912 386.91713439 409.90232672 c 0
 389.657947808 363.809825487 394.501834757 320.009254565 405.201558201 279.751298898 c 0
 415.827456403 240.112467121 432.786413612 203.858627962 456.52694664 175.900553623 c 0
 472.620354982 157.134947063 492.290752469 141.684557709 513.345916991 131.486755342 c 0
 534.370113597 121.355948511 557.767897296 116.032226562 579.998046875 116.032226562 c 0
 602.229521129 116.032226562 624.688799122 121.299634847 644.392338556 130.778769685 c 0
 664.13364392 140.321600422 682.444217406 154.668970188 697.571640489 172.273557223 c 0
 719.877072516 198.52405643 736.452731497 233.45827069 746.930280954 272.516854027 c 0
 757.47695185 312.200358253 762.346119053 355.900549647 765.083838765 401.947190726 c 0
 770.822368028 499.415476961 769.968750276 598.905002754 769.967773438 700.001953125 c 0
 769.967773438 801.103884162 770.824327943 900.569743477 765.081882203 998.097789543 c 0
 762.342052357 1044.19207694 757.49812724 1087.99004007 746.79942584 1128.24876228 c 0
 736.173529183 1167.88663232 719.213771994 1204.14026066 695.471983639 1232.09962007 c 0
 679.379625217 1250.86509639 659.709204266 1266.31551396 638.653107021 1276.51422065 c 0
 617.630966778 1286.64401251 594.232122815 1291.96777344 572.001953125 1291.96777344 c 0
579.998046875 1426.03222656 m 0
 623.672618688 1426.03222656 666.082206872 1415.81268038 704.047068265 1397.23632812 c 0
 741.983225603 1378.64841974 774.417737493 1352.29790528 800.526960202 1321.49707031 c 0
 839.018144455 1275.9059018 862.483840325 1222.43291496 876.593148148 1169.49414062 c 0
 890.631190839 1116.58860795 895.945864714 1063.97109452 898.917136671 1013.90228798 c 0
 905.011382645 910.3989532 904.032226562 808.275967744 904.032226562 707.999072113 c 0
 904.033202806 607.716336018 905.013318962 505.615395178 898.915191982 402.052933455 c 0
 895.942075379 351.941425542 890.650195474 299.217275091 876.461328731 245.740273879 c 0
 862.205312344 192.23430098 838.350268173 137.42981034 798.428430105 90.1310080598 c 0
 771.348336531 58.1641889187 737.564082389 30.7172037761 698.307807244 11.4717276424 c 0
 659.017320565 -7.76146450618 615.681001701 -18.0322265625 572.001953125 -18.0322265625 c 0
 528.328244468 -18.0322265625 485.918040853 -7.81278506421 447.951814397 10.7637629852 c 0
 410.01681401 29.3525519457 377.582395255 55.7009607626 351.472015904 86.502936721 c 0
 312.982760933 132.093219336 289.517171391 185.567002069 275.406851852 238.505906848 c 0
 261.368801799 291.411453935 256.05414616 344.026844227 253.081884161 394.098732847 c 0
 246.988616526 497.601094745 247.967773438 599.722992136 247.967773438 700.001953125 c 0
 247.967773438 800.284788606 246.986661087 902.383249275 253.083843477 1005.94824731 c 0
 256.058907733 1056.05761862 261.349771039 1108.78356549 275.538687226 1162.25976499 c 0
 289.79566554 1215.76665668 313.647708922 1270.56724163 353.572594519 1317.87105752 c 0
 380.652759931 1349.83696734 414.433697584 1377.28075377 453.69126137 1396.52929688 c 0
 492.982775635 1415.76247766 536.320039397 1426.03222656 579.998046875 1426.03222656 c 0
EndSplineSet
Layer: 4
Substitution2: "'ss04' Style Set 4 lookup 3 subtable" zero.clear
Substitution2: "'ss03' Style Set 3 lookup 2 subtable" zero.dot
EndChar
StartChar: one
Encoding: 49 49 71
GlifName: one
Width: 1024
VWidth: 0
Flags: W
HStem: -10 21G<635 773> 1388 20G<630.55 773>
VStem: 635 138<-10 1236>
LayerCount: 5
Back
SplineSet
660 1408 m 1xa0
 768 1408 l 1
 768 0 l 1
 640 0 l 1
 640 1246 l 1
 630 1246 l 1
 319 1022 l 1
 256 1114 l 1
 660 1408 l 1xa0
EndSplineSet
Fore
SplineSet
249 1110 m 1
 658 1408 l 1
 773 1408 l 1
 773 -10 l 1
 635 -10 l 1
 635 1236 l 1
 632 1236 l 1
 318 1010 l 1
 249 1110 l 1
EndSplineSet
Validated: 1
Layer: 2
Layer: 3
Layer: 4
Substitution2: "'ss05' Style Set 5 lookup 4 subtable" one.base
EndChar
StartChar: two
Encoding: 50 50 72
GlifName: two
Width: 1024
VWidth: 0
Flags: W
HStem: -10 130<427 955> 1294 130<251.078 699.449>
VStem: 775 138<950.585 1220.41>
LayerCount: 5
Back
SplineSet
256 1393 m 5
 346 1410 456 1424 554 1424 c 4
 813 1424 908 1259 908 1093 c 4
 908 1006 880 949 852 899 c 6
 418 120 l 5
 896 120 l 5
 896 0 l 5
 256 0 l 5
 256 89 l 5
 738 955 l 6
 762 998 780 1033 780 1093 c 4
 780 1188 742 1304 554 1304 c 4
 452 1304 340 1288 256 1273 c 5
 256 1393 l 5
EndSplineSet
Fore
SplineSet
251 1392 m 1
 255 1393 l 2
 342 1410 449 1424 544 1424 c 0
 813 1424 913 1256 913 1088 c 0
 913 984 874 925 836 856 c 0
 427 120 l 1
 955 120 l 1
 955 -10 l 1
 251 -10 l 1
 251 85 l 1
 714 916 l 0
 746 973 775 1013 775 1088 c 0
 775 1181 737 1294 544 1294 c 0
 446 1294 338 1278 257 1263 c 0
 251 1262 l 1
 251 1392 l 1
EndSplineSet
Validated: 1
Layer: 2
SplineSet
576 1364 m 0
 736.493541598 1364 849 1253.816288 849 1096 c 0
 849 935.239336932 736.493540416 823 576 823 c 0
 415.506418253 823 303 935.239338112 303 1096 c 0
 303 1253.81628781 415.506418059 1364 576 1364 c 0
EndSplineSet
Layer: 3
SplineSet
188.507987443 1282.03102464 m 1
 185.851353946 1291.67168325 l 1
 190.671683251 1293 l 0
 247.078077288 1308.52276208 303.766338025 1323.17074149 360.903191717 1336 c 0
 427.426408043 1350.8921701 494.16343439 1364.00064682 563.591877178 1364.00064682 c 1
 604.15540374 1363.93797071 643.447089046 1359.13120792 681.325715464 1345.87091526 c 0
 718.986763363 1332.75391238 753.741038892 1311.08898965 780.702328213 1282 c 0
 804.308029945 1256.50249766 821.674408562 1225.84656095 832.783612962 1193.34254027 c 0
 843.780655541 1161.03488436 849.001344804 1126.94784298 849.001344804 1092.95287789 c 0
 849.001344804 1062.91185574 844.887545023 1033.21136256 836.020496878 1004.6091031 c 0
 827.23874668 976.281987509 813.554725198 950.032388931 799.367931678 924.566653979 c 0
 320.508999876 70 l 1
 901 70 l 1
 901 60 l 1
 303.491000124 60 l 1
 790.632068322 929.433346021 l 0
 804.729598458 954.738850425 818.041372194 980.385507115 826.468956456 1007.57019674 c 0
 835.014570815 1035.13561368 839.001344804 1063.82298448 839.001344804 1092.95287789 c 0
 839.001344804 1125.94116408 833.928070441 1158.96274676 823.30176753 1190.16533911 c 0
 812.5857975 1221.49325213 795.860193935 1250.92820276 773.297671787 1275.27905786 c 0
 747.552204342 1303.03090487 714.201475763 1323.84316046 677.974786522 1336.44906432 c 0
 641.481823563 1349.21767222 603.31334584 1353.9392914 563.584028325 1354.00064682 c 1
 495.463653208 1354.00064682 429.440385704 1341.09495488 363.096808283 1326.24356385 c 0
 306.168264127 1313.46112464 249.633730906 1298.85425806 193.328316749 1283.35934139 c 0
 188.507987443 1282.03102464 l 1
EndSplineSet
Layer: 4
EndChar
StartChar: three
Encoding: 51 51 73
GlifName: three
Width: 1024
VWidth: 0
Flags: W
HStem: -16 120<251.078 699.964> 639 130<379 697.526> 1294 130<251.078 688.563>
VStem: 775 138<855.265 1206.23> 795 138<205.396 540.686>
LayerCount: 5
Back
SplineSet
765 703 m 5xf0
 867 639 929 517 928 374 c 4
 927 157 809 -16 556 -16 c 4
 449 -16 344 -1.23076923077 256 16 c 5
 256 143 l 5
 346 123.169491525 458 104 556 104 c 4
 735 104 800 223 800 374 c 4xe8
 800 491 754 593 666 628 c 4
 633 641 591 644 542 644 c 6
 384 644 l 5
 384 764 l 5
 543 764 l 6
 590 764 629 767 659 780 c 4
 743 816 780 919 780 1034 c 4
 780 1181 730 1304 556 1304 c 4
 449 1304 345 1281.33333333 256 1264 c 5
 256 1389 l 5
 344 1406.18181818 441 1424 556 1424 c 4
 803 1424 908 1248 908 1034 c 4
 908 899 859 779 765 713 c 5
 765 703 l 5xf0
EndSplineSet
Fore
SplineSet
255 1396 m 0xf0
 337 1410 429 1424 536 1424 c 0
 800 1424 913 1256 913 1032 c 0xf0
 913 897 863 776 770 710 c 1
 770 706 l 1
 872 641 933 520 933 379 c 0
 933 376 l 0
 932 158 809 -16 546 -16 c 0
 443 -16 340 -5 255 8 c 0
 251 9 l 1
 251 132 l 1
 257 131 l 0
 341 117 445 104 536 104 c 0
 737 104 795 221 795 372 c 0xe8
 795 489 749 589 664 623 c 0
 632 636 591 639 542 639 c 0
 379 639 l 1
 379 769 l 1
 543 769 l 0
 590 769 628 772 657 784 c 0
 738 818 775 919 775 1032 c 0
 775 1186 723 1294 536 1294 c 0
 437 1294 340 1278 257 1266 c 0
 251 1265 l 1
 251 1395 l 1
 255 1396 l 0xf0
EndSplineSet
Validated: 1
Layer: 2
SplineSet
575.990276443 1354.00001891 m 0
 523.653290696 1354.10118189 471.608035689 1343.57804494 420.169587371 1331.27743544 c 0
 343.378616543 1312.80925259 266.671176505 1290.77900405 190.490690745 1270.90460549 c 1
 6.66160418972 897.270904827 l 1
 385.174836931 709 l 1
 543 709 l 0
 591.31953419 709 640.215153398 711.552915319 683.696385485 730.100927306 c 0
 727.215211594 748.664975967 763.983869378 782.068504668 788.732469103 822.605413603 c 0
 826.721428824 884.8293381 838.954574865 960.279548992 839.000000949 1034.00308084 c 0
 839.042220331 1101.70073476 828.434474721 1170.58605305 796.232396801 1229.57479377 c 0
 780.147516138 1258.79419086 758.426960552 1285.11745622 731.846444407 1305.46922253 c 0
 705.275534106 1325.77803746 673.861020554 1339.94694406 640.895898495 1347.24685489 c 0
 619.699363999 1351.95981589 597.856266531 1353.95825897 575.990276443 1354.00001891 c 0
802.8429493 586.221703853 m 0
 775.299890132 627.433254872 735.420707323 660.475859012 689.390343912 678.595164885 c 0
 643.387760136 696.703535635 592.431022466 699 542 699 c 0
 385.068639969 699 l 1
 6.21371905459 529.304566674 l 1
 135.933885737 156.667121502 l 1
 211.975847972 130.668316237 286.386324649 107.432745138 363.246173619 87.6844310749 c 0
 433.276497185 69.7457292787 504.324764511 53.9570456156 575.996989506 53.9999981874 c 0
 597.863782959 54.0129562066 619.705315716 55.6995452653 641.038618149 59.8134081615 c 0
 675.412439708 66.4124812329 708.516878649 79.6330685937 737.110234346 99.2718614056 c 0
 765.712214241 118.931137209 789.761551198 144.85492941 808.045670253 174.167656681 c 0
 844.642095905 233.230903695 858.790005713 304.199284945 859.000022043 374.014846914 c 0
 859.22142468 448.57635407 843.890400655 524.80408407 802.8429493 586.221703853 c 0
EndSplineSet
Layer: 3
SplineSet
576 1354 m 0
 554.152114059 1354 532.31529013 1351.93245045 511.097386402 1347.24382389 c 0
 478.097015473 1339.98281369 446.6166388 1325.91330882 419.999239692 1305.64334411 c 0
 393.371837297 1285.33297197 371.631223518 1258.99938323 355.573511089 1229.75433367 c 0
 323.424098943 1170.70045753 313 1101.74794703 313 1034 c 0
 313 965.432312269 323.424096602 895.645503717 355.573511089 835.877085341 c 0
 371.631214895 806.02448695 393.371848577 779.143794018 419.999239692 758.411483405 c 0
 446.616645562 737.686947387 478.097002834 723.301933583 511.097386402 715.878088056 c 0
 532.315315595 711.104851758 554.152084421 709 576 709 c 0
 597.84788594 709 619.684709871 711.104857486 640.902613598 715.878088056 c 0
 673.902984526 723.301930739 705.3833612 737.686952652 732.000760308 758.411483404 c 0
 758.628162703 779.143802802 780.368776481 806.024470917 796.426488911 835.877085341 c 0
 828.575901057 895.645499365 839 965.432318878 839 1034 c 0
 839 1101.74795356 828.575903397 1170.70045323 796.426488911 1229.75433367 c 0
 780.368785106 1258.99936752 758.628151424 1285.33298058 732.000760308 1305.64334411 c 0
 705.383354437 1325.91331397 673.902997168 1339.98281091 640.902613597 1347.24382389 c 0
 619.684684405 1351.93245608 597.84791558 1354 576 1354 c 0
576 699 m 0
 554.14596494 699 532.308728633 697.225546516 510.950224617 693.091123023 c 0
 476.506638169 686.423784668 443.289584766 673.096465813 414.590731523 653.137858425 c 0
 385.883030064 633.173097548 361.745439373 606.744242398 343.453628791 576.812468312 c 0
 306.841105272 516.901625824 293 444.822428224 293 374 c 0
 293 304.088075267 306.841122614 232.935426534 343.453628791 173.794799467 c 0
 361.745399911 144.450406474 385.883073771 118.540042138 414.590731523 98.967057275 c 0
 443.289635952 79.4100329373 476.506554129 66.3509444479 510.950224617 59.8177539543 c 0
 532.308748075 55.747085261 554.145942662 54 576 54 c 0
 597.85403506 54 619.691271367 55.7470889663 641.049775383 59.8177539543 c 0
 675.493361831 66.3509285075 708.710415234 79.4100678186 737.409268477 98.967057275 c 0
 766.116969936 118.540071937 790.254560627 144.450343168 808.546371209 173.794799467 c 0
 845.158894728 232.935454548 859 304.088033725 859 374 c 0
 859 444.822386141 845.158877386 516.901654202 808.546371209 576.812468313 c 0
 790.254600089 606.744177825 766.116926229 633.173127944 737.409268477 653.137858425 c 0
 708.710364048 673.09650141 675.493445871 686.423768401 641.049775383 693.091123023 c 0
 619.691251925 697.22555028 597.854057338 699 576 699 c 0
EndSplineSet
Layer: 4
Substitution2: "'ss06' Style Set 6 lookup 5 subtable" three.russian
EndChar
StartChar: four
Encoding: 52 52 74
GlifName: four
Width: 1024
VWidth: 0
Flags: W
HStem: -5 21G<763 901> 383 125<393 763 901 1029> 1388 20G<385.11 524 763 901>
VStem: 763 138<-5 383 513 1408>
LayerCount: 5
Back
Fore
SplineSet
901 383 m 1
 901 -5 l 1
 763 -5 l 1
 763 383 l 1
 251 383 l 1
 251 460 l 1
 388 1408 l 1
 524 1408 l 1
 393 508 l 1
 763 508 l 1
 763 1408 l 1
 901 1408 l 1
 901 513 l 1
 1029 513 l 1
 1029 383 l 1
 901 383 l 1
EndSplineSet
Validated: 1
Layer: 2
SplineSet
837 0 m 1
 827 0 l 1
 827 443 l 1
 167.788018952 443 l 1
 380.183984307 1409.06848439 l 1
 389.952984481 1406.93151561 l 1
 180.211981048 453 l 1
 827 453 l 1
 827 1408 l 1
 837 1408 l 1
 837 453 l 1
 1029 453 l 1
 1029 443 l 1
 837 443 l 1
 837 0 l 1
EndSplineSet
Layer: 3
Layer: 4
Substitution2: "'ss12' Style Set 12 lookup 11 subtable" four.triangle
EndChar
StartChar: five
Encoding: 53 53 75
GlifName: five
Width: 1024
VWidth: 0
Flags: W
HStem: -16 120<251.078 699.09> 787 130<461.543 709.199> 1288 120<389 901>
VStem: 251 138<821 1288> 795 138<210.863 686.681>
LayerCount: 5
Back
Fore
SplineSet
251 138 m 1
 257 137 l 2
 336 122 457 104 560 104 c 0
 759 104 795 257 795 447 c 0
 795 624 759 787 592 787 c 0
 500 787 429 740 387 680 c 0
 385 677 l 1
 251 713 l 1
 251 1408 l 1
 901 1408 l 1
 901 1288 l 1
 389 1288 l 1
 389 821 l 1
 392 821 l 1
 452 878 513 917 612 917 c 0
 842 917 933 734 933 450 c 0
 933 133 807 -16 560 -16 c 0
 448 -16 337 0 255 13 c 0
 251 13 l 1
 251 138 l 1
EndSplineSet
Validated: 1
Layer: 2
SplineSet
592 847 m 0
 570.134842347 847 548.292093097 845.289442784 526.965096644 841.094025227 c 0
 487.422198434 833.315200405 449.641842759 815.858486437 419.547469316 789.332484888 c 0
 389.434963315 762.790500806 367.186720589 727.745361181 352.987734677 689.909110295 c 0
 324.534372477 614.089008958 324.999999999 530.266309547 325 448 c 0
 325 366.331119758 324.534375492 283.117121724 352.987734679 207.847634059 c 0
 367.186713575 170.770295478 389.434977491 136.428037052 419.547469317 110.418426418 c 0
 449.641853224 84.4843459809 487.4221833 67.417192097 526.965096644 59.811949545 c 0
 548.292118988 55.6833195216 570.13481218 54 592 54 c 0
 613.865157653 54 635.707906903 55.6833245337 657.034903356 59.811949545 c 0
 696.577801566 67.4171891862 734.358157241 84.4843549985 764.452530684 110.418426418 c 0
 794.565036685 136.428049295 816.813279411 170.77027716 831.012265323 207.84763406 c 0
 859.465627523 283.117129697 859.000000001 366.331108528 859 448 c 0
 859 530.266298235 859.465624508 614.089016989 831.012265321 689.909110297 c 0
 816.813286425 727.745342488 794.565022509 762.7905133 764.452530683 789.332484888 c 0
 734.358146777 815.858495661 696.5778167 833.315197428 657.034903356 841.094025227 c 0
 635.707881012 845.289447878 613.86518782 847 592 847 c 0
EndSplineSet
Layer: 3
SplineSet
854.885505314 596.853308034 m 1
 854.095023778 603.763572471 853.176968398 610.656714233 852.113116467 617.530431363 c 0
 843.517193415 673.070062204 822.906358529 727.701616235 785.317922683 768.617352127 c 0
 761.188523461 794.882667605 730.647455075 815.167851331 697.314502445 828.110687244 c 0
 663.959376491 841.062132826 627.940383342 846.95445116 591.993663842 847.000004015 c 0
 541.778317068 847.063638539 491.519509762 835.936518764 446.137165257 814.479764977 c 0
 398.000520777 791.720779296 355.535415667 756.936438623 324.029858385 714.040229503 c 0
 315 701.745678096 l 1
 315 1344 l 1
 898.498952133 1344 l 1
 1261.11554207 865.848845249 l 1
 865.625833232 591.677274111 l 0
 864.80400201 591.107543085 854.885505314 596.853308034 854.885505314 596.853308034 c 1
856.110597598 585.080877175 m 1
 199.293250168 134.524600776 l 1
 266.414834411 113.942359224 330.943561556 96.0417133537 398.111807314 80.7496429671 c 0
 461.46903466 66.3669771036 525.551386849 54.0399794276 590.003116166 53.9999980579 c 0
 635.219114402 53.9723737018 680.905532899 61.0966704623 720.736805833 80.9169394222 c 0
 749.456064794 95.1580816603 774.780001869 115.895953714 794.365434879 140.906998442 c 0
 813.960126162 166.046620709 827.917508661 195.308988632 837.208863789 225.860079581 c 0
 858.545340872 296.887674004 857.99063777 372.868954643 859.000445018 448.06670816 c 0
 859.612134635 493.91081278 860.358114056 539.846998944 856.110597598 585.080877175 c 1
EndSplineSet
Layer: 4
SplineSet
770 705.760669733 m 1
 872.210458855 640.345376239 933 519.1515988 933 377 c 0
 932.99994691 373.97695877 l 0
 931.990531728 157.706723424 808.960198801 -16 546 -16 c 0
 442.614365251 -16 340.36912662 -3.99415141531 255.187418699 10 c 0
 251 10.6896924916 l 1
 251 141.834271728 l 1
 256.821994937 140.863939238 l 0
 340.646063237 121.741155646 445.461678522 104 536 104 c 0
 736.969074736 104 795 221.798335531 795 374 c 0
 795 489.966780557 749.372857752 589.459414717 664.167377408 623.347958036 c 0
 632.256245954 635.919009821 590.82651958 639 542 639 c 0
 379 639 l 1
 379 769 l 1
 543 769 l 0
 589.838046423 769 628.174757571 772.091611911 657.030403507 784.59572515 c 0
 738.097759548 819.338877739 775 919.683200187 775 1034 c 0
 775 1186.74680679 722.760961582 1294 536 1294 c 0
 436.525026577 1294 339.7854742 1278.09091748 256.715452724 1266.10290398 c 0
 251 1265.27657347 l 1
 251 1395.29000918 l 1
 255.158517686 1396 l 0
 337.217780409 1409.97452398 428.563117348 1424 536 1424 c 0
 799.993743841 1424 913 1257.03409802 913 1034 c 0
 913 898.476706976 863.413252519 777.337089906 770 710.415660781 c 1
 770 705.760669733 l 1
EndSplineSet
EndChar
StartChar: six
Encoding: 54 54 76
GlifName: six
Width: 1024
VWidth: 0
Flags: W
HStem: -16 120<464.328 719.765> 787 130<468.877 720.195> 1294 130<493.638 837>
VStem: 251 138<189.143 704.072 792 1186.29> 795 138<188.743 704.025>
LayerCount: 5
Back
SplineSet
592 104 m 4
 779 104 800 261 800 448 c 4
 800 635 779 792 592 792 c 4
 405 792 384 635 384 448 c 4
 384 261 405 104 592 104 c 4
618 1424 m 4
 679 1424 749 1419 832 1408 c 5
 832 1288 l 5
 746 1300 674 1304 618 1304 c 4
 517 1304 452 1256 416 1173 c 4
 384 1100 384 998 384 896 c 6
 384 787 l 5
 394 787 l 5
 449 872 514 912 612 912 c 4
 760 912 857 829 900 712 c 4
 928 635 928 550 928 448 c 4
 928 366 928 271 896 184 c 4
 853 67 750 -16 592 -16 c 4
 434 -16 332 67 288 184 c 4
 263 251 256 321 256 415 c 6
 256 896 l 6
 256 1017 258 1122 296 1215 c 4
 343 1330 449 1424 618 1424 c 4
EndSplineSet
Fore
SplineSet
389 446 m 0
 389 257 410 104 592 104 c 0
 774 104 795 257 795 446 c 0
 795 635 774 787 592 787 c 0
 410 787 389 635 389 446 c 0
291 1213 m 0
 339 1330 457 1424 638 1424 c 0
 693 1424 757 1422 832 1418 c 0
 837 1418 l 1
 837 1288 l 1
 832 1288 l 0
 754 1292 689 1294 638 1294 c 0
 529 1294 457 1249 421 1168 c 0
 390 1097 389 997 389 896 c 0
 389 792 l 1
 391 792 l 1
 447 877 513 917 612 917 c 0
 762 917 861 833 905 715 c 0
 933 637 933 551 933 450 c 0
 933 368 933 274 901 186 c 0
 857 68 752 -16 592 -16 c 0
 432 -16 328 68 283 186 c 0
 258 253 251 323 251 417 c 0
 251 895 l 0
 251 1015 253 1119 291 1213 c 0
EndSplineSet
Validated: 1
Layer: 2
SplineSet
592 847 m 0
 570.134842347 847 548.292093097 845.289442784 526.965096644 841.094025227 c 0
 487.422198434 833.315200405 449.641842759 815.858486437 419.547469316 789.332484888 c 0
 389.434963315 762.790500806 367.186720589 727.745361181 352.987734677 689.909110295 c 0
 324.534372477 614.089008958 324.999999999 530.266309547 325 448 c 0
 325 366.331119758 324.534375492 283.117121724 352.987734679 207.847634059 c 0
 367.186713575 170.770295478 389.434977491 136.428037052 419.547469317 110.418426418 c 0
 449.641853224 84.4843459809 487.4221833 67.417192097 526.965096644 59.811949545 c 0
 548.292118988 55.6833195216 570.13481218 54 592 54 c 0
 613.865157653 54 635.707906903 55.6833245337 657.034903356 59.811949545 c 0
 696.577801566 67.4171891862 734.358157241 84.4843549985 764.452530684 110.418426418 c 0
 794.565036685 136.428049295 816.813279411 170.77027716 831.012265323 207.84763406 c 0
 859.465627523 283.117129697 859.000000001 366.331108528 859 448 c 0
 859 530.266298235 859.465624508 614.089016989 831.012265321 689.909110297 c 0
 816.813286425 727.745342488 794.565022509 762.7905133 764.452530683 789.332484888 c 0
 734.358146777 815.858495661 696.5778167 833.315197428 657.034903356 841.094025227 c 0
 635.707881012 845.289447878 613.86518782 847 592 847 c 0
EndSplineSet
Layer: 3
Layer: 4
Substitution2: "'ss13' Style Set 13 lookup 12 subtable" six.straighter
EndChar
StartChar: seven
Encoding: 55 55 77
GlifName: seven
Width: 1024
VWidth: 0
Flags: W
HStem: 0 21G<356 503.106> 1288 120<187 820>
LayerCount: 5
Back
Fore
SplineSet
187 1288 m 1
 187 1408 l 1
 965 1408 l 1
 965 1320 l 1
 496 0 l 1
 356 0 l 1
 820 1284 l 1
 820 1288 l 1
 187 1288 l 1
EndSplineSet
Validated: 1
Layer: 2
Layer: 3
Layer: 4
EndChar
StartChar: eight
Encoding: 56 56 78
GlifName: eight
Width: 1024
VWidth: 0
Flags: W
HStem: -16 120<446.122 705.878> 649 130<459.889 692.111> 1294 130<454.506 697.494>
VStem: 219 138<198.078 546.354> 239 138<867.511 1209.66> 775 138<867.343 1209.66> 795 138<198.078 549.069>
LayerCount: 5
Back
Fore
SplineSet
775 1042 m 0xec
 775 1182 717 1294 576 1294 c 0
 435 1294 377 1182 377 1042 c 0
 377 901 437 779 576 779 c 0
 715 779 775 901 775 1042 c 0xec
239 1043 m 0
 239 1252 354 1424 576 1424 c 0
 798 1424 913 1252 913 1043 c 0xec
 913 899 865 786 756 720 c 1
 756 716 l 1
 877 649 933 530 933 376 c 0
 933 158 808 -16 576 -16 c 0
 344 -16 219 158 219 376 c 0xf2
 219 530 276 650 396 716 c 1
 396 720 l 1
 286 787 239 899 239 1043 c 0
795 371 m 0xf2
 795 523 728 649 576 649 c 0
 424 649 357 523 357 371 c 0
 357 219 424 104 576 104 c 0
 728 104 795 219 795 371 c 0xf2
EndSplineSet
Validated: 1
Layer: 2
Layer: 3
SplineSet
576 1354 m 0
 554.152114059 1354 532.31529013 1351.93245045 511.097386402 1347.24382389 c 0
 478.097015473 1339.98281369 446.6166388 1325.91330882 419.999239692 1305.64334411 c 0
 393.371837297 1285.33297197 371.631223518 1258.99938323 355.573511089 1229.75433367 c 0
 323.424098943 1170.70045753 313 1101.74794703 313 1034 c 0
 313 965.432312269 323.424096602 895.645503717 355.573511089 835.877085341 c 0
 371.631214895 806.02448695 393.371848577 779.143794018 419.999239692 758.411483405 c 0
 446.616645562 737.686947387 478.097002834 723.301933583 511.097386402 715.878088056 c 0
 532.315315595 711.104851758 554.152084421 709 576 709 c 0
 597.84788594 709 619.684709871 711.104857486 640.902613598 715.878088056 c 0
 673.902984526 723.301930739 705.3833612 737.686952652 732.000760308 758.411483404 c 0
 758.628162703 779.143802802 780.368776481 806.024470917 796.426488911 835.877085341 c 0
 828.575901057 895.645499365 839 965.432318878 839 1034 c 0
 839 1101.74795356 828.575903397 1170.70045323 796.426488911 1229.75433367 c 0
 780.368785106 1258.99936752 758.628151424 1285.33298058 732.000760308 1305.64334411 c 0
 705.383354437 1325.91331397 673.902997168 1339.98281091 640.902613597 1347.24382389 c 0
 619.684684405 1351.93245608 597.84791558 1354 576 1354 c 0
576 699 m 0
 554.14596494 699 532.308728633 697.225546516 510.950224617 693.091123023 c 0
 476.506638169 686.423784668 443.289584766 673.096465813 414.590731523 653.137858425 c 0
 385.883030064 633.173097548 361.745439373 606.744242398 343.453628791 576.812468312 c 0
 306.841105272 516.901625824 293 444.822428224 293 374 c 0
 293 304.088075267 306.841122614 232.935426534 343.453628791 173.794799467 c 0
 361.745399911 144.450406474 385.883073771 118.540042138 414.590731523 98.967057275 c 0
 443.289635952 79.4100329373 476.506554129 66.3509444479 510.950224617 59.8177539543 c 0
 532.308748075 55.747085261 554.145942662 54 576 54 c 0
 597.85403506 54 619.691271367 55.7470889663 641.049775383 59.8177539543 c 0
 675.493361831 66.3509285075 708.710415234 79.4100678186 737.409268477 98.967057275 c 0
 766.116969936 118.540071937 790.254560627 144.450343168 808.546371209 173.794799467 c 0
 845.158894728 232.935454548 859 304.088033725 859 374 c 0
 859 444.822386141 845.158877386 516.901654202 808.546371209 576.812468313 c 0
 790.254600089 606.744177825 766.116926229 633.173127944 737.409268477 653.137858425 c 0
 708.710364048 673.09650141 675.493445871 686.423768401 641.049775383 693.091123023 c 0
 619.691251925 697.22555028 597.854057338 699 576 699 c 0
EndSplineSet
Layer: 4
EndChar
StartChar: nine
Encoding: 57 57 79
GlifName: nine
Width: 1024
VWidth: 0
Flags: W
HStem: -16 120<283.078 672.14> 491 130<431.805 683.123> 1294 130<432.235 687.672>
VStem: 219 138<703.62 1210.9> 763 138<202.988 616 703.219 1212.21>
LayerCount: 5
Back
SplineSet
560 1304 m 4
 373 1304 352 1147 352 960 c 4
 352 773 373 616 560 616 c 4
 747 616 768 773 768 960 c 4
 768 1147 747 1304 560 1304 c 4
288 124 m 5
 383 110 467 104 524 104 c 4
 640 104 699 151 736 235 c 4
 768 308 768 410 768 512 c 6
 768 621 l 5
 758 621 l 5
 703 536 638 496 540 496 c 4
 392 496 295 579 252 696 c 4
 224 773 224 858 224 960 c 4
 224 1042 224 1137 256 1224 c 4
 299 1341 402 1424 560 1424 c 4
 718 1424 820 1341 864 1224 c 4
 889 1157 896 1087 896 993 c 6
 896 512 l 6
 896 391 894 286 856 193 c 4
 809 79 702 -16 544 -16 c 4
 463 -16 389 -11 288 1 c 5
 288 124 l 5
EndSplineSet
Fore
SplineSet
763 958 m 0
 763 1144 742 1294 560 1294 c 0
 378 1294 357 1144 357 958 c 0
 357 772 378 621 560 621 c 0
 742 621 763 772 763 958 c 0
283 125 m 1
 289 124 l 2
 388 110 475 104 534 104 c 0
 648 104 712 155 741 253 c 0
 763 326 763 429 763 532 c 0
 763 616 l 1
 761 616 l 1
 705 531 639 491 540 491 c 0
 390 491 291 575 247 693 c 0
 219 771 219 857 219 958 c 0
 219 1040 219 1134 251 1222 c 0
 295 1340 400 1424 560 1424 c 0
 720 1424 824 1340 869 1222 c 0
 894 1155 901 1085 901 991 c 0
 901 533 l 0
 901 413 899 308 871 215 c 0
 831 86 714 -16 554 -16 c 0
 470 -16 392 -11 287 -0 c 0
 283 0 l 1
 283 125 l 1
EndSplineSet
Validated: 1
Layer: 2
Layer: 3
Layer: 4
Substitution2: "'ss13' Style Set 13 lookup 12 subtable" nine.straighter
EndChar
StartChar: colon
Encoding: 58 58 80
GlifName: colon
Width: 1024
VWidth: 0
Flags: W
HStem: -5 250<379 645> 774 250<379 645>
VStem: 379 266<-5 245 774 1024>
LayerCount: 5
Back
Fore
SplineSet
379 -5 m 1
 379 245 l 1
 645 245 l 1
 645 -5 l 1
 379 -5 l 1
379 774 m 1
 379 1024 l 1
 645 1024 l 1
 645 774 l 1
 379 774 l 1
EndSplineSet
Validated: 1
Layer: 2
Layer: 3
Layer: 4
EndChar
StartChar: semicolon
Encoding: 59 59 81
GlifName: semicolon
Width: 1024
VWidth: 0
Flags: W
HStem: -272 130<379 478.465> 123 250<379 507> 774 250<379 645>
VStem: 379 266<123 373 774 1024> 507 138<-97.3557 123>
LayerCount: 5
Back
Fore
SplineSet
379 774 m 1xf0
 379 1024 l 1
 645 1024 l 1
 645 774 l 1
 379 774 l 1xf0
379 123 m 1
 379 373 l 1
 645 373 l 1xf0
 645 26 l 0xe8
 645 -33 645 -104 592 -175 c 0
 549 -233 475 -272 384 -272 c 0
 379 -272 l 1
 379 -142 l 1xf0
 384 -142 l 0
 430 -142 460 -126 480 -99 c 0
 507 -64 507 -24 507 25 c 0
 507 123 l 1xe8
 379 123 l 1
EndSplineSet
Validated: 1
Layer: 2
SplineSet
353.97017612 -207.080365047 m 2
 376.957913821 -175.90500533 399.787333221 -144.70388884 419.720037736 -111.830116821 c 0
 429.478576951 -95.9517091852 438.314913852 -79.60921736 444.699415458 -62.4494129542 c 0
 451.192104512 -45.2452924833 455.003241955 -27.3981698783 455.003241955 -9.05022964713 c 0
 455.003241955 16.6633251363 448.010775741 42.2376743631 437.351068148 65.9777943897 c 0
 426.53633776 89.4933103611 412.330860377 111.651754356 399.613527103 135 c 0
 378.928431359 172.076120297 363.03218505 213.160205939 362.999806048 256.263299414 c 0
 362.999806048 276.375520387 366.299294021 296.630853416 373.645498617 315.523804057 c 0
 381.029787974 334.514700988 392.547937586 351.937760209 407.475742043 365.909857279 c 0
 435.532490191 392.170357256 474.218564224 405.000394041 512.364789292 405.000394041 c 0
 531.796580533 405.000394041 551.327355524 401.745116695 569.583701693 394.756107677 c 0
 587.979800623 387.71359763 604.943711407 376.76158189 618.614975073 362.454266235 c 0
 635.518330261 344.764486842 646.824300537 322.421644492 653.107785882 299.087263748 c 0
 659.357349634 275.879278082 661.00006691 251.877209425 661.00006691 228.259368753 c 0
 660.985267063 171.381899736 654.81272574 114.574379804 642.890074084 59 c 0
 628.466218989 -8.12760193512 600.950388708 -71.8667731809 566.323115763 -131 c 0
 534.501408167 -185.537458652 497.746901023 -237.097987645 457.881795034 -286 c 0
 454.828976081 -288.931743488 l 1
 351.059209504 -210.023483487 l 1
 353.97017612 -207.080365047 l 2
EndSplineSet
Layer: 3
SplineSet
507 119.062246516 m 1
 422.499473059 121.156662388 363 176.691499956 363 256 c 0
 363 339.84215769 424.881874953 398 512 398 c 0
 591.988946601 398 645 337.153218354 645 239 c 0
 645 -256 l 1
 507 -256 l 1
 507 119.062246516 l 1
EndSplineSet
Layer: 4
EndChar
StartChar: less
Encoding: 60 60 82
GlifName: less
Width: 1024
VWidth: 0
Flags: W
LayerCount: 5
Back
Fore
SplineSet
394 573 m 1
 907 99 l 1
 814 2 l 1
 251 529 l 1
 251 623 l 1
 814 1150 l 1
 907 1053 l 1
 394 579 l 1
 394 573 l 1
EndSplineSet
Validated: 1
Layer: 2
SplineSet
863.067988791 53.8469680688 m 1
 856.208649116 46.5703301624 l 1
 852.570330162 50 l 1
 853.297993953 45.6757470793 852.570330162 45.3616810468 852.570330162 50 c 1
 290.710668611 576 l 1
 856.208649116 1105.42966984 l 1
 863.067988791 1098.15303193 l 1
 305.289331389 576 l 1
 859.429669838 57.2766379064 l 1
 859.429669838 54.6383189532 860.157333628 52.9523849857 859.429669838 57.2766379064 c 1
 863.067988791 53.8469680688 l 1
EndSplineSet
Layer: 3
Layer: 4
Substitution2: "Single Substitution lookup 64 subtable" less2
Substitution2: "Single Substitution lookup 63 subtable" less1
Substitution2: "Single Substitution lookup 40 subtable" larsenwork3
Substitution2: "Single Substitution lookup 31 subtable" larsenwork2
Substitution2: "Single Substitution lookup 26 subtable" larsenwork1
Substitution2: "Single Substitution lookup 25 subtable" larsenwork1
Substitution2: "Single Substitution lookup 19 subtable" larsenwork3
Substitution2: "Single Substitution lookup 15 subtable" larsenwork5
EndChar
StartChar: equal
Encoding: 61 61 83
GlifName: equal
Width: 1024
VWidth: 0
Flags: W
HStem: 255 130<187 965> 767 130<187 965>
LayerCount: 5
Back
Fore
SplineSet
187 255 m 1
 187 385 l 1
 965 385 l 1
 965 255 l 1
 187 255 l 1
187 767 m 1
 187 897 l 1
 965 897 l 1
 965 767 l 1
 187 767 l 1
EndSplineSet
Validated: 1
Layer: 2
Layer: 3
Layer: 4
Substitution2: "Single Substitution lookup 46 subtable" larsenwork2
Substitution2: "Single Substitution lookup 45 subtable" equalmore
Substitution2: "Single Substitution lookup 44 subtable" equalmore
Substitution2: "Single Substitution lookup 43 subtable" greaterequalliga
Substitution2: "Single Substitution lookup 41 subtable" lessequalliga
Substitution2: "Single Substitution lookup 39 subtable" notequalliga
Substitution2: "Single Substitution lookup 37 subtable" notequaltypeliga
Substitution2: "Single Substitution lookup 36 subtable" larsenwork1
EndChar
StartChar: greater
Encoding: 62 62 84
GlifName: greater
Width: 1024
VWidth: 0
Flags: W
LayerCount: 5
Back
Fore
SplineSet
245 1053 m 1
 338 1150 l 1
 901 623 l 1
 901 529 l 1
 338 2 l 1
 245 99 l 1
 758 573 l 1
 758 579 l 1
 245 1053 l 1
EndSplineSet
Validated: 1
Layer: 2
Layer: 3
Layer: 4
Substitution2: "Single Substitution lookup 62 subtable" greater2
Substitution2: "Single Substitution lookup 61 subtable" greater1
Substitution2: "Single Substitution lookup 47 subtable" ligaequalarrow
Substitution2: "Single Substitution lookup 42 subtable" larsenwork4
Substitution2: "Single Substitution lookup 34 subtable" ligaarrowright
Substitution2: "Single Substitution lookup 30 subtable" ligaarrowrighttwoheads
Substitution2: "Single Substitution lookup 29 subtable" larsenwork1
Substitution2: "Single Substitution lookup 24 subtable" ligaarrowrightlong
EndChar
StartChar: question
Encoding: 63 63 85
GlifName: question
Width: 1024
VWidth: 0
Flags: W
HStem: -16 298<468.5 683.5> 1294 130<273.078 700.015>
VStem: 427 298<25.5 240.5> 507 138<502 664.016> 775 138<930.417 1221.35>
LayerCount: 5
Back
SplineSet
208.212890625 1234.95703125 m 1
 175.787109375 1351.04296875 l 1
 233.561523438 1365.2265625 291.79296875 1379.76953125 350.8125 1393.28613281 c 0
 416.66015625 1408.36523438 487.560546875 1423.82617188 563.891601562 1424 c 1
 564.979492188 1424.00097656 l 1
 609.8046875 1424.00097656 656.743164062 1418.22460938 702.451171875 1401.83300781 c 0
 748.809570312 1385.20800781 791.684570312 1358.01953125 825.528320312 1321.11816406 c 0
 855.118164062 1288.85449219 876.25390625 1251.08007812 889.520507812 1211.46777344 c 0
 902.553710938 1172.54785156 908.001953125 1132.47460938 908.001953125 1093.28808594 c 0
 908.001953125 1031.36523438 894.654296875 970.557617188 869.743164062 914.483398438 c 0
 844.6875 858.083007812 808.294921875 809.825195312 769.368164062 767.708984375 c 0
 728.109375 723.067382812 689.87109375 687.21875 667.842773438 648.486328125 c 0
 656.907226562 629.259765625 649.024414062 608.102539062 644.860351562 586.399414062 c 0
 640.720703125 564.828125 640 539.821289062 640 512 c 0
 640 350 l 1
 512 350 l 1
 512 512 l 0
 512 541.08984375 512.296875 573.326171875 518.881835938 607.645507812 c 0
 525.442382812 641.8359375 537.694335938 674.702148438 554.895507812 704.946289062 c 0
 589.138671875 765.155273438 636.6328125 807.342773438 672.631835938 846.291015625 c 0
 705.712890625 882.083984375 733.56640625 920.06640625 751.581054688 960.619140625 c 0
 770.103515625 1002.3125 780.001953125 1047.56542969 780.001953125 1093.28808594 c 0
 780.001953125 1122.00585938 775.924804688 1150.06054688 767.397460938 1175.52441406 c 0
 758.828125 1201.109375 745.356445312 1224.47265625 728.471679688 1242.88183594 c 0
 709.323242188 1263.76074219 684.163085938 1279.91210938 656.720703125 1289.75292969 c 0
 629.245117188 1299.60644531 597.994140625 1304.00097656 565.010742188 1304.00097656 c 0
 564.061523438 1304 l 0
 506.813476562 1303.87011719 445.625 1291.47070312 381.1875 1276.71386719 c 0
 323.88671875 1263.59082031 266.329101562 1249.22460938 208.212890625 1234.95703125 c 1
  Spiro
    208.213 1234.96 v
    175.787 1351.04 v
    233.668 1365.28 o
    292.102 1379.49 o
    350.812 1393.29 o
    418.289 1407.9 o
    489.43 1419.32 o
    563.892 1424 v
    564.979 1424 v
    610.339 1421.9 o
    656.503 1414.86 o
    702.451 1401.83 o
    747.4 1381.74 o
    788.919 1354.72 o
    825.528 1321.12 o
    852.298 1287.19 o
    873.628 1250.29 o
    889.521 1211.47 o
    900.096 1172.28 o
    906.111 1132.66 o
    908.002 1093.29 o
    903.628 1031.93 o
    890.717 971.943 o
    869.743 914.483 o
    841.266 860.774 o
    807.088 811.9 o
    769.368 767.709 o
    729.642 725.606 o
    694.755 686.652 o
    667.843 648.486 o
    657.958 628.688 o
    650.233 607.848 o
    644.86 586.399 o
    641.763 563.73 o
    640.339 538.834 o
    640 512 ]
    640 350 v
    512 350 v
    512 512 [
    512.32 542.068 o
    514.174 574.093 o
    518.882 607.646 o
    527.302 641.313 o
    539.385 673.908 o
    554.896 704.946 o
    592.599 759.646 o
    633.759 805.758 o
    672.632 846.291 o
    703.771 882.791 o
    730.482 920.948 o
    751.581 960.619 o
    767.169 1003.34 o
    776.756 1047.88 o
    780.002 1093.29 o
    778.632 1121.69 o
    774.45 1149.3 o
    767.397 1175.52 o
    757.261 1200.24 o
    744.149 1222.94 o
    728.472 1242.88 o
    707.48 1262.11 o
    683.239 1277.88 o
    656.721 1289.75 o
    628.092 1297.82 o
    597.309 1302.5 o
    565.011 1304 o
    564.062 1304 o
    505.585 1300.15 o
    444.454 1290.31 o
    381.188 1276.71 o
    323.847 1263.24 o
    266.096 1249.19 o
    0 0 z
  EndSpiro
EndSplineSet
Fore
SplineSet
427 133 m 0xe8
 427 221 488 282 576 282 c 0
 664 282 725 221 725 133 c 0
 725 45 664 -16 576 -16 c 0
 488 -16 427 45 427 133 c 0xe8
507 502 m 1xd8
 507 507 l 2
 507 594 519 690 607 780 c 0
 706 881 775 954 775 1087 c 0
 775 1220 706 1294 534 1294 c 0
 451 1294 354 1274 279 1257 c 0
 273 1256 l 1
 273 1386 l 1
 277 1387 l 0
 354 1405 449 1424 534 1424 c 0
 779 1424 913 1296 913 1087 c 0
 913 916 824 809 711 693 c 0
 645 625 645 565 645 507 c 0
 645 502 l 1
 507 502 l 1xd8
EndSplineSet
Validated: 1
Layer: 2
SplineSet
576 1364 m 0
 736.493541598 1364 849 1253.816288 849 1096 c 0
 849 935.239336932 736.493540416 823 576 823 c 0
 415.506418253 823 303 935.239338112 303 1096 c 0
 303 1253.81628781 415.506418059 1364 576 1364 c 0
EndSplineSet
Layer: 3
SplineSet
188.336307922 1282.09627098 m 1
 185.952078013 1291.80788505 l 1
 190.807885046 1293 l 0
 248.740710265 1307.21658106 306.659782605 1321.67160608 364.883826962 1335 c 0
 430.093071845 1349.86912637 496.451736431 1363.84767842 563.994333097 1363.99999998 c 0
 565.011018983 1364.00114587 l 0
 604.310935655 1364.00114587 644.009132701 1358.94492441 681.273717514 1345.79331075 c 0
 718.881510985 1332.58144413 753.588922179 1310.94188409 780.684896198 1282 c 0
 804.440678118 1256.61203357 822.077149363 1226.04816253 833.199751237 1193.49582937 c 0
 844.177743483 1161.22758332 849.002281777 1127.16833469 849.002281777 1093.28785403 c 0
 849.002281777 1038.74424069 837.223992919 985.025241434 815.231649893 935.521119221 c 0
 793.392762755 886.362421733 760.913036914 842.817425818 724.671857512 803.606261293 c 0
 685.829487199 761.580736792 643.33405803 722.80615477 615.714886625 674.244401753 c 0
 601.913064227 649.97717517 592.037760824 623.475325347 586.78120138 596.080797001 c 0
 581.526859659 568.697826302 581 540.400302083 581 512 c 0
 581 345 l 1
 571 345 l 1
 571 512 l 0
 571 540.511765969 571.489872867 569.45581528 576.960365262 597.965253933 c 0
 582.428639934 626.463134939 592.688148211 653.98477578 607.022418155 679.188184909 c 0
 635.675431436 729.567703316 678.912637491 768.830061376 717.328142488 810.393738707 c 0
 753.094607452 849.091285678 784.860481811 891.787522581 806.092884393 939.581041035 c 0
 827.534086509 987.844561148 839.002281777 1040.18569873 839.002281777 1093.28785403 c 0
 839.002281777 1126.23561035 834.301728007 1159.22488645 823.717394921 1190.32015327 c 0
 813.005028993 1221.64562591 796.03317523 1250.98220061 773.315103802 1275.2408462 c 0
 747.417970483 1302.87777417 714.090265529 1323.67696586 677.898075142 1336.38028581 c 0
 641.997089135 1349.04395925 603.448179397 1354.00114587 565.011018983 1354.00114587 c 0
 564.005666903 1354.00000644 l 0
 497.863293325 1353.85084832 432.218658479 1340.09657099 367.116173038 1325.25235254 c 0
 309.019111085 1311.95303178 251.150400565 1297.51120968 193.192114954 1283.28838594 c 0
 188.336307922 1282.09627098 l 1
EndSplineSet
Layer: 4
EndChar
StartChar: at
Encoding: 64 64 86
GlifName: at
Width: 1024
VWidth: 0
Flags: W
HStem: 0 130<398.163 951.922> 363 130<573.564 794.398> 891 120<585.334 891> 1288 120<398.233 814.118>
VStem: 123 138<268.304 1148.34> 379 138<554.502 821.871> 891 138<379 501 597.927 891 1011 1209.07>
LayerCount: 5
Back
Fore
SplineSet
891 855 m 0
 891 891 l 1
 732 891 l 0
 677 891 621 891 572 839 c 0
 537 802 517 745 517 687 c 0
 517 580 577 493 680 493 c 0
 885 493 891 724 891 855 c 0
1016 1161 m 0
 1029 1109 1029 1058 1029 1013 c 2
 1029 379 l 1
 891 379 l 1
 891 501 l 1
 889 501 l 1
 829 413 757 363 656 363 c 0
 502 363 379 498 379 685 c 0
 379 768 404 857 468 921 c 0
 560 1012 672 1011 734 1011 c 0
 891 1011 l 1
 891 1059 890 1102 881 1140 c 0
 863 1212 818 1259 747 1278 c 0
 714 1287 673 1288 627 1288 c 0
 568 1288 513 1287 467 1275 c 0
 365 1248 301 1182 274 1079 c 0
 261 1029 261 977 261 918 c 0
 261 500 l 0
 261 441 261 389 274 339 c 1
 300 236 365 170 467 143 c 0
 513 131 568 130 627 130 c 0
 726 130 834 138 946 151 c 0
 952 152 l 1
 952 22 l 1
 948 21 l 0
 837 8 734 0 627 0 c 0
 567 0 501 0 432 17 c 0
 288 52 176 154 139 311 c 0
 123 379 123 441 123 500 c 0
 123 918 l 0
 123 977 123 1039 139 1107 c 0
 176 1259 288 1358 432 1392 c 0
 501 1408 567 1408 627 1408 c 0
 674 1408 726 1408 782 1394 c 0
 902 1364 987 1280 1016 1161 c 0
EndSplineSet
Validated: 33
Layer: 2
SplineSet
891 402 m 2
 891 502 l 1
 888.737030271 502 l 1
 832.064247518 414.07917031 764.213948269 363 668 363 c 0
 613.765016306 363 504.09378089 389.345450476 438.839748528 487.226499019 c 0
 404.354362828 538.954577569 379 606.90363831 379 685 c 0
 379 767.954401795 404.270882702 856.341950514 468.464466094 920.535533906 c 0
 560.036083099 1012.10715091 672.04349707 1011 734 1011 c 0
 890.999586355 1011 l 1
 890.985947562 1057.40824894 890.615319894 1099.98896003 881.15668067 1136.5162465 c 0
 863.130785687 1204.94972759 818.082561252 1250.24722391 746.740589029 1268.32242096 c 0
 713.537758466 1285.60608619 672.926384586 1288 627 1288 c 0
 568.047818192 1288 513.405800709 1286.13324842 467.236916226 1265.31082289 c 0
 364.827047682 1239.6428154 300.44627713 1174.07278898 273.842464663 1072.5095896 c 0
 260.945103599 1022.74169652 261 971.575088552 261 913 c 0
 261 495 l 0
 261 436.428063614 261.049793482 385.281282421 273.845072677 335.470037051 c 0
 300.224254911 233.881836542 364.918271015 168.760063977 467.256425667 142.679131065 c 0
 513.350891802 130.861827901 568.036090502 130 627 130 c 0
 672.937680216 130 713.581441838 131.04344378 746.720537198 139.667052279 c 0
 818.033849898 158.039220359 863.561509136 202.955852232 881.149287499 271.42535625 c 0
 890.698796042 309.27190046 891 354.450593014 891 402 c 2
1029 391 m 2
 1029 346.657137 1028.82282359 295.989967309 1015.85551484 244.007650884 c 0
 986.426022568 126.127896708 901.886539097 43.9820896589 782.233396403 14 c 0
 726.501431983 -0.0314569044206 673.994075375 0 627 0 c 0
 566.992398052 0 500.578435848 0.192061442718 431.803417055 17 c 0
 288.171233083 51.9570979791 176.591666446 152.129901795 139.136748844 307 c 0
 122.973490194 374.268095717 123 436.371859993 123 495 c 0
 123 913 l 0
 123 971.628759064 122.979658867 1033.73073504 139.136643064 1101 c 0
 176.579775867 1255.88569654 288.297966913 1355.57834467 431.787321875 1391 c 0
 500.526052272 1408.03508698 567.005640408 1408 627 1408 c 0
 673.99557153 1408 726.497462776 1408.01546838 782.231993895 1394 c 0
 901.908747353 1364.04685759 985.950877389 1281.73948429 1015.8507125 1164 c 0
 1029.0366143 1111.68504953 1029 1060.6319278 1029 1016 c 0
 1029 391 l 2
891 805 m 2
 891 891 l 1
 732 891 l 0
 676.883498264 891 621.196840773 890.882080634 571.62976342 838.56127676 c 0
 536.722429094 801.714646084 517 744.928944197 517 687 c 0
 517 580.142230561 588.23804058 493 692 493 c 0
 779.487808062 493 839.885585993 551.198288906 869.395163745 620.948199954 c 0
 890.83719561 671.629366182 891 732.927781255 891 805 c 2
EndSplineSet
Layer: 3
Layer: 4
EndChar
StartChar: A
Encoding: 65 65 29
GlifName: A_
Width: 1024
VWidth: 0
Flags: W
HStem: 0 21G<97 243 909 1055> 388 120<320 832> 1269 139<553.097 598.903>
AnchorPoint: "bottom" 970 0 basechar 0
AnchorPoint: "top" 576 1408 basechar 0
LayerCount: 5
Back
Fore
SplineSet
97 0 m 1
 98 5 l 2
 151 498 263 970 507 1405 c 0
 508 1408 l 1
 644 1408 l 1
 645 1405 l 0
 889 970 1001 498 1054 5 c 0
 1055 -0 l 1
 909 0 l 1
 909 5 l 0
 898 139 878 267 855 388 c 1
 297 388 l 1
 278 265 254 139 243 5 c 0
 243 -0 l 1
 97 0 l 1
320 508 m 1
 832 508 l 1
 765 793 692 1047 578 1269 c 1
 574 1269 l 1
 460 1046 387 791 320 508 c 1
EndSplineSet
Validated: 1
Layer: 2
Layer: 3
Layer: 4
EndChar
StartChar: B
Encoding: 66 66 30
GlifName: B_
Width: 1024
VWidth: 0
Flags: W
HStem: 0 120<325 789.371> 643 130<325 719.688> 1288 120<325 717.981>
VStem: 187 138<120 643 773 1288> 826 138<879.453 1182.42> 891 138<228.334 537.237>
LayerCount: 5
Back
SplineSet
449 768 m 6xf8
 525 768 565 769 601 778 c 4
 709 804 784 896 784 1028 c 4
 784 1160 709 1254 601 1278 c 4
 565 1286 525 1288 449 1288 c 6
 256 1288 l 5
 256 768 l 5
 449 768 l 6xf8
912 1028 m 4
 912 896 849 798 763 748 c 5
 925 704 1040 566 1040 384 c 4xf4
 1040 193 928 54 776 16 c 4
 712 0 648 0 563 0 c 6
 128 0 l 5
 128 1408 l 5
 449 1408 l 6
 526 1408 578 1408 633 1395 c 4
 792 1357 912 1222 912 1028 c 4
256 648 m 5
 256 120 l 5
 563 120 l 6
 644 120 699 120 744 132 c 4
 843 158 912 254 912 384 c 4
 912 514 844 612 744 636 c 4
 699 647 644 648 563 648 c 6
 256 648 l 5
EndSplineSet
Fore
SplineSet
325 773 m 1xf8
 496 773 l 2
 572 773 612 774 647 783 c 1
 753 809 826 899 826 1030 c 0
 826 1161 753 1254 647 1278 c 0
 612 1286 572 1288 496 1288 c 0
 325 1288 l 1
 325 773 l 1xf8
187 0 m 1
 187 1408 l 1
 496 1408 l 0
 573 1408 625 1408 681 1395 c 0
 842 1357 964 1221 964 1026 c 0xf8
 964 886 895 783 790 729 c 1
 790 725 l 1
 929 678 1029 555 1029 386 c 0xf4
 1029 194 915 54 761 16 c 0
 696 0 632 0 547 0 c 0
 187 0 l 1
547 643 m 0
 325 643 l 1
 325 120 l 1
 547 120 l 0
 628 120 683 120 727 132 c 0
 823 158 891 253 891 382 c 0xf4
 891 512 824 607 727 631 c 0
 683 642 628 643 547 643 c 0
EndSplineSet
Validated: 1
Layer: 2
SplineSet
636 645 m 0
 791.717224159 645 901 537.745835938 901 384 c 0
 901 233.200242468 791.717863374 128 636 128 c 0
 480.282775841 128 371 233.199486589 371 384 c 0
 371 537.745065296 480.282136626 645 636 645 c 0
636 1476 m 0
 829.430026201 1476 965 1344.54905471 965 1156 c 0
 965 964.505218571 829.430328125 831 636 831 c 0
 442.569973799 831 307 964.504866307 307 1156 c 0
 307 1344.54870787 442.569671875 1476 636 1476 c 0
EndSplineSet
Layer: 3
SplineSet
601 645 m 2
 638.11537854 645 675.92835842 644.358347097 712.678466936 635.569429588 c 0
 749.422854939 626.781880161 784.444729174 609.97771629 813.36492017 585.435945896 c 0
 842.271562267 560.905673139 864.725420666 529.19040975 879.349301502 494.331752923 c 0
 893.96529084 459.491906899 901.000000001 421.682189785 901 384 c 0
 901 346.978284414 893.965330106 309.831669569 879.349301498 275.602525486 c 0
 864.725329661 241.462241212 842.271662813 210.401060141 813.364920162 186.376376942 c 0
 784.444878334 162.34900283 749.422561283 145.896777219 712.678466932 137.293439486 c 0
 675.928566566 128.632371617 638.11502454 128 601 128 c 0
 197 128 l 1
 197 645 l 1
 601 645 l 2
591 1476 m 2
 637.397396589 1476 684.577377108 1475.20096858 730.357076731 1464.39200598 c 0
 776.131016937 1453.6409188 819.753157158 1433.08101339 855.766526061 1403.06615104 c 0
 891.766495168 1373.0544449 919.756778852 1334.22834261 937.991129346 1291.53651138 c 0
 956.217551 1248.755984 965.000000001 1202.30385388 965 1156 c 0
 965 1108.37308658 956.217557886 1060.59372687 937.991129341 1016.5908199 c 0
 919.756764349 973.921399914 891.766513174 935.11575932 855.766526052 905.119816769 c 0
 819.753183586 874.591501097 776.130969491 853.679835779 730.357076728 842.744836968 c 0
 684.577408753 831.808458508 637.39734951 831 591 831 c 0
 187 831 l 1
 187 1476 l 1
 591 1476 l 2
EndSplineSet
Layer: 4
EndChar
StartChar: C
Encoding: 67 67 31
GlifName: C_
Width: 1024
VWidth: 0
Flags: W
HStem: -16 130<430.802 964.922> 1294 130<424.916 934.922>
VStem: 107 138<352.454 1055.66>
AnchorPoint: "bottom" 704 0 basechar 0
AnchorPoint: "top" 576 1408 basechar 0
LayerCount: 5
Back
SplineSet
1024 173 m 5
 1024 49 l 5
 907 13 777 -16 643 -16 c 4
 543 -16 436 7 347 64 c 4
 246 129 175 237 143 364 c 4
 114 478 112 594 112 704 c 4
 112 814 114 930 143 1044 c 4
 176 1171 246 1278 347 1344 c 4
 436 1402 543 1424 643 1424 c 4
 766 1424 885 1401 994 1367 c 5
 994 1243 l 5
 881 1278 755 1304 643 1304 c 4
 430 1304 312 1188 268 1016 c 4
 243 919 240 813 240 704 c 4
 240 595 243 489 268 392 c 4
 312 220 430 104 643 104 c 4
 765 104 903 136 1024 173 c 5
  Spiro
    1024 173 v
    1024 49 v
    903.125 16.177 o
    775.203 -7.16503 o
    643 -16 o
    541.694 -7.94247 o
    440.976 17.9615 o
    347 64 o
    256.413 142.353 o
    187.61 244.334 o
    143 364 o
    122.088 478.256 o
    113.588 592.409 o
    112 704 o
    113.588 815.591 o
    122.088 929.744 o
    143 1044 o
    188.054 1163.44 o
    256.635 1265.2 o
    347 1344 o
    440.976 1390.48 o
    541.694 1416.16 o
    643 1424 o
    764.325 1416.79 o
    882.004 1396.86 o
    994 1367 v
    994 1243 v
    877.785 1274.34 o
    758.548 1295.98 o
    643 1304 o
    461.041 1267.63 o
    337.349 1166.98 o
    268 1016 o
    249.642 916.325 o
    241.7 811.671 o
    240 704 o
    241.7 596.329 o
    249.642 491.675 o
    268 392 o
    337.349 241.017 o
    461.041 140.374 o
    643 104 o
    768.982 113.648 o
    898.684 138.697 o
    0 0 z
  EndSpiro
EndSplineSet
Fore
SplineSet
959 151 m 0
 965 152 l 1
 965 22 l 1
 961 21 l 0
 850 1 726 -16 599 -16 c 0
 336 -16 194 144 138 365 c 0
 109 479 107 595 107 704 c 0
 107 813 109 929 138 1043 c 0
 194 1264 329 1424 589 1424 c 0
 708 1424 825 1412 931 1395 c 0
 935 1394 l 1
 935 1264 l 1
 929 1265 l 0
 819 1282 698 1294 589 1294 c 0
 401 1294 317 1181 273 1012 c 0
 248 917 245 812 245 704 c 0
 245 596 248 491 273 396 c 0
 317 228 405 114 599 114 c 0
 715 114 844 131 959 151 c 0
EndSplineSet
Validated: 1
Layer: 2
SplineSet
768.732698444 1354 m 0
 839.881145536 1343.48313738 909.759376031 1326.51308479 979.224825409 1309 c 0
 1037.33616823 1294.32066194 1095.30274333 1279.13791824 1153.26375202 1264 c 0
 1158.53354924 1262.62335918 l 1
 981.243954828 767.826705238 l 1
 1158.1961229 145.288494187 l 1
 1153.26375202 144 l 0
 1095.30274333 128.862081753 1037.33616823 113.67933806 979.224825409 99 c 0
 909.75937597 81.4869151924 839.881145589 64.5168626295 768.732698444 54 c 0
 727.034293727 47.8560074664 685.413993962 44.0277378602 642.796203095 43.9998649121 c 1
 551.173791671 43.9998649121 458.254927948 63.5147634251 381.274007629 113 c 0
 334.868286315 142.801592833 295.360846046 182.6657328 265.234272029 228.437965788 c 0
 235.114687438 274.329566938 214.326880472 325.698323493 200.580708381 378.48172514 c 0
 173.109254448 484.599055284 171 595.130857377 171 704 c 0
 171 812.869139936 173.10925492 923.400946538 200.580708381 1029.51827486 c 0
 214.326883139 1082.30168674 235.114682118 1133.67042495 265.234272029 1179.56203421 c 0
 295.360847758 1225.3342698 334.868283981 1265.19840567 381.274007629 1295 c 0
 458.184164026 1344.43974777 551.398270851 1364.00013482 642.590803223 1364.00013482 c 0
 684.927159686 1363.98628901 727.016963211 1360.14654608 768.732698444 1354 c 0
EndSplineSet
Layer: 3
Layer: 4
EndChar
StartChar: D
Encoding: 68 68 32
GlifName: D_
Width: 1024
VWidth: 0
Flags: W
HStem: 0 120<325 682.506> 1288 120<325 682.506>
VStem: 187 138<120 1288> 907 138<368.118 1039.88>
AnchorPoint: "top" 640 1408 basechar 0
LayerCount: 5
Back
Fore
SplineSet
187 1408 m 1
 474 1408 l 2
 719 1408 862 1305 947 1170 c 0
 1030 1039 1045 876 1045 704 c 0
 1045 532 1030 369 947 238 c 0
 862 103 719 0 474 0 c 0
 187 0 l 1
 187 1408 l 1
821 281 m 0
 888 376 907 519 907 704 c 0
 907 889 888 1032 821 1127 c 0
 763 1211 668 1288 474 1288 c 0
 325 1288 l 1
 325 120 l 1
 474 120 l 0
 668 120 763 197 821 281 c 0
EndSplineSet
Validated: 1
Layer: 2
Layer: 3
Layer: 4
EndChar
StartChar: F
Encoding: 70 70 34
GlifName: F_
Width: 1024
VWidth: 0
Flags: W
HStem: 0 21G<187 325> 635 130<325 837> 1288 120<325 965>
VStem: 187 138<0 635 765 1288>
LayerCount: 5
Back
Fore
SplineSet
187 0 m 1
 187 1408 l 1
 965 1408 l 1
 965 1288 l 1
 325 1288 l 1
 325 765 l 1
 837 765 l 1
 837 635 l 1
 325 635 l 1
 325 0 l 1
 187 0 l 1
EndSplineSet
Validated: 1
Layer: 2
Layer: 3
Layer: 4
EndChar
StartChar: G
Encoding: 71 71 35
GlifName: G_
Width: 1024
VWidth: 0
Flags: W
HStem: -16 130<423.273 823.71> 643 130<571 827> 1294 130<439.709 914.922>
VStem: 107 138<352.477 1055.57> 827 138<130.819 643>
AnchorPoint: "bottom" 576 0 basechar 0
AnchorPoint: "top" 576 1408 basechar 0
LayerCount: 5
Back
SplineSet
643 1424 m 4
 766 1424 885 1413.10526316 994 1397 c 5
 994 1277 l 5
 881 1292.49180328 755 1304 643 1304 c 4
 430 1304 312 1188 268 1016 c 4
 243 919 240 813 240 704 c 4
 240 595 243 489 268 392 c 4
 312 220 430 104 643 104 c 4
 724 104 811 113.176470588 896 128 c 5
 896 648 l 5
 640 648 l 5
 640 768 l 5
 1024 768 l 5
 1024 34 l 5
 907 6.30769230769 777 -16 643 -16 c 4
 366 -16 199 142 143 364 c 4
 114 478 112 594 112 704 c 4
 112 814 114 930 143 1044 c 4
 201 1266 366 1424 643 1424 c 4
EndSplineSet
Fore
SplineSet
138 1043 m 0
 194 1265 348 1424 609 1424 c 0
 714 1424 818 1415 911 1402 c 0
 915 1401 l 1
 915 1271 l 1
 909 1272 l 0
 812 1285 705 1294 609 1294 c 0
 418 1294 317 1180 273 1012 c 0
 248 917 245 812 245 704 c 0
 245 596 248 491 273 396 c 0
 317 228 405 114 579 114 c 0
 658 114 744 123 827 137 c 1
 827 643 l 1
 571 643 l 1
 571 773 l 1
 965 773 l 1
 965 35 l 1
 961 34 l 0
 844 6 714 -16 579 -16 c 0
 334 -16 194 145 138 365 c 0
 109 479 107 595 107 704 c 0
 107 813 109 929 138 1043 c 0
EndSplineSet
Validated: 1
Layer: 2
Layer: 3
Layer: 4
EndChar
StartChar: H
Encoding: 72 72 36
GlifName: H_
Width: 1024
VWidth: 0
Flags: W
HStem: 0 21G<187 325 827 965> 635 130<325 827> 1388 20G<187 325 827 965>
VStem: 187 138<0 635 765 1408> 827 138<0 635 765 1408>
AnchorPoint: "top" 576 1408 basechar 0
LayerCount: 5
Back
Fore
SplineSet
187 0 m 1
 187 1408 l 1
 325 1408 l 1
 325 765 l 1
 827 765 l 1
 827 1408 l 1
 965 1408 l 1
 965 0 l 1
 827 0 l 1
 827 635 l 1
 325 635 l 1
 325 0 l 1
 187 0 l 1
EndSplineSet
Validated: 1
Layer: 2
Layer: 3
Layer: 4
EndChar
StartChar: J
Encoding: 74 74 38
GlifName: J_
Width: 1024
VWidth: 0
InSpiro: 1
Flags: W
HStem: -16 130<251.078 668.568> 1388 20G<763 901>
VStem: 763 138<222.861 1408>
AnchorPoint: "top" 832 1408 basechar 0
LayerCount: 5
Back
SplineSet
896 512 m 6
 896 391 894 286 856 193 c 4
 809 78 703 -16 534 -16 c 4
 441 -16 341 -5 224 15 c 5
 224 136 l 5
 342 116 444 104 534 104 c 4
 635 104 700 152 736 235 c 4
 768 308 768 410 768 512 c 6
 768 1288 l 5
 256 1288 l 5
 256 1408 l 5
 469 1408 683 1408 896 1408 c 5
 896 512 l 6
  Spiro
    896 512 ]
    894.079 396.296 o
    883.241 290.047 o
    856 193 o
    789.272 87.7966 o
    682.021 12.5751 o
    534 -16 o
    438.395 -12.4145 o
    335.597 -1.91214 o
    224 15 v
    224 136 v
    336.707 118.829 o
    439.95 107.844 o
    534 104 o
    623.181 119.488 o
    690.13 164.206 o
    736 235 o
    758.504 316.503 o
    766.818 411.173 o
    768 512 [
    768 1288 v
    256 1288 v
    256 1408 v
    896 1408 v
    0 0 z
  EndSpiro
EndSplineSet
Fore
SplineSet
901 1408 m 1
 901 513 l 2
 901 397 901 289 861 195 c 0
 812 80 708 -16 544 -16 c 0
 428 -16 334 -2 255 8 c 0
 251 9 l 1
 251 140 l 1
 257 139 l 0
 334 128 433 114 537 114 c 0
 634 114 696 161 731 241 c 0
 762 312 763 413 763 514 c 0
 763 1408 l 1
 901 1408 l 1
EndSplineSet
Validated: 1
Layer: 2
Layer: 3
Layer: 4
EndChar
StartChar: K
Encoding: 75 75 39
GlifName: K_
Width: 1024
VWidth: 0
Flags: W
HStem: 0 21G<123 261 887.905 1072> 1388 20G<123 261 811.324 980>
VStem: 123 138<0 561 728 1408>
AnchorPoint: "bottom" 576 0 basechar 0
LayerCount: 5
Back
Fore
SplineSet
261 561 m 1
 261 0 l 1
 123 0 l 1
 123 1408 l 1
 261 1408 l 1
 261 728 l 1
 828 1408 l 1
 980 1408 l 1
 487 812 l 1
 1072 -0 l 1
 902 0 l 1
 396 718 l 1
 261 561 l 1
EndSplineSet
Validated: 1
Layer: 2
SplineSet
495.131268489 769.679442595 m 1
 503.679442595 774.868731511 l 1
 513.470327116 758.740474463 l 1
 513.681061152 758.868335563 l 1
 516.274698357 754.593637206 l 1
 515.755970916 755.448576877 517.274698357 754.593637206 516.274698357 754.593637206 c 1
 1056.27439276 -132.811214674 l 1
 1058.86873151 -135.405355542 l 1
 1058.86772445 -135.405966893 l 1
 1058.86833556 -135.406362794 l 1
 1054.59414087 -137.999694407 l 1
 1050.32055741 -140.594644458 l 1
 1050.31994605 -140.593026092 l 1
 1050.31893885 -140.593637206 l 1
 1047.72560724 -137.99949641 l 1
 495.131268489 769.679442595 l 1
389 617.446680957 m 1
 389 0 l 1
 251 0 l 1
 251 1408 l 1
 389 1408 l 1
 389 635.856203658 l 1
 1150.51795974 1808.71598568 l 1
 1158.91401162 1803.28401432 l 1
 389 617.446680957 l 1
EndSplineSet
Layer: 3
Layer: 4
EndChar
StartChar: L
Encoding: 76 76 40
GlifName: L_
Width: 1024
VWidth: 0
Flags: W
HStem: 0 120<389 1029> 1388 20G<251 389>
VStem: 251 138<120 1408>
AnchorPoint: "bottom" 640 0 basechar 0
AnchorPoint: "top" 320 1408 basechar 0
LayerCount: 5
Back
Fore
SplineSet
1029 0 m 1
 251 0 l 1
 251 1408 l 1
 389 1408 l 1
 389 120 l 1
 1029 120 l 1
 1029 0 l 1
EndSplineSet
Validated: 1
Layer: 2
Layer: 3
Layer: 4
EndChar
StartChar: M
Encoding: 77 77 28
GlifName: M_
Width: 1024
VWidth: 0
Flags: W
HStem: 0 21G<123 261 891 1029> 1388 20G<123 269.032 883 1029>
VStem: 123 138<0 1150> 891 138<0 1150>
LayerCount: 5
Back
Fore
SplineSet
261 1150 m 1
 261 0 l 1
 123 0 l 1
 123 1408 l 1
 259 1408 l 1
 574 780 l 1
 579 780 l 1
 893 1408 l 1
 1029 1408 l 1
 1029 0 l 1
 891 0 l 1
 891 1150 l 1
 889 1150 l 1
 634 640 l 1
 518 640 l 1
 263 1150 l 1
 261 1150 l 1
EndSplineSet
Validated: 1
Layer: 2
SplineSet
197 0 m 1
 187 0 l 1
 187 1535.96325162 l 1
 576 909.506965092 l 1
 965 1535.96325162 l 1
 965 0 l 1
 955 0 l 1
 955 1500.77744644 l 1
 576 890.493034908 l 1
 197 1500.77744644 l 1
 197 0 l 1
EndSplineSet
Layer: 3
Layer: 4
EndChar
StartChar: N
Encoding: 78 78 41
GlifName: N_
Width: 1024
VWidth: 0
Flags: W
HStem: 0 21G<187 325 820.099 965> 1388 20G<187 330.918 827 965>
VStem: 187 138<0 1128> 827 138<280 1408>
AnchorPoint: "top" 576 1408 basechar 0
LayerCount: 5
Back
Fore
SplineSet
325 1128 m 1
 325 0 l 1
 187 0 l 1
 187 1408 l 1
 322 1408 l 1
 825 280 l 1
 827 280 l 1
 827 1408 l 1
 965 1408 l 1
 965 0 l 1
 829 0 l 1
 327 1128 l 1
 325 1128 l 1
EndSplineSet
Validated: 1
Layer: 2
SplineSet
197 0 m 1
 187 0 l 1
 187 1539.5391916 l 1
 955 38.0821707667 l 1
 955 1536 l 1
 965 1536 l 1
 965 -3.53919160136 l 1
 197 1497.91782923 l 1
 197 0 l 1
EndSplineSet
Layer: 3
Layer: 4
EndChar
StartChar: O
Encoding: 79 79 42
GlifName: O_
Width: 1024
VWidth: 0
Flags: W
HStem: -16 130<425.117 726.883> 1294 130<425.117 726.883>
VStem: 107 138<335.009 1072.99> 907 138<335.009 1072.99>
AnchorPoint: "bottom" 576 0 basechar 0
AnchorPoint: "top" 576 1408 basechar 0
LayerCount: 5
Back
Fore
SplineSet
270 1022 m 1
 248 928 245 819 245 704 c 0
 245 589 248 480 270 386 c 1
 306 241 399 114 576 114 c 0
 753 114 846 241 882 386 c 1
 904 480 907 589 907 704 c 0
 907 819 904 928 882 1022 c 1
 846 1167 753 1294 576 1294 c 0
 399 1294 306 1167 270 1022 c 1
135 356 m 1
 109 459 107 578 107 704 c 0
 107 830 109 949 135 1052 c 1
 184 1252 328 1424 576 1424 c 0
 824 1424 968 1252 1017 1052 c 1
 1043 949 1045 830 1045 704 c 0
 1045 578 1043 459 1017 356 c 1
 968 156 824 -16 576 -16 c 0
 328 -16 184 156 135 356 c 1
EndSplineSet
Validated: 1
Layer: 2
SplineSet
576 1492 m 0
 814.250366598 1492 981 1327.70012677 981 1092 c 0
 981 950.337928854 917.331965669 835.280596011 812.553663911 768.000005045 c 1
 917.331956615 700.719429097 981 585.662113804 981 444 c 0
 981 208.299897824 814.250391206 44 576 44 c 0
 337.749633402 44 171 208.299873226 171 444 c 0
 171 585.662071146 234.668034331 700.719403989 339.446336089 767.999994955 c 1
 234.668043385 835.280570903 171 950.337886196 171 1092 c 0
 171 1327.70010218 337.749608794 1492 576 1492 c 0
EndSplineSet
Layer: 3
SplineSet
576 1364 m 0
 644.115353218 1364 712.39425992 1346.0739823 770.606450193 1311 c 0
 819.16146406 1281.73203391 860.062090294 1240.80476629 890.659214248 1193.60840999 c 0
 921.248742727 1146.26133341 941.65220601 1093.09514573 954.735329313 1038.6650265 c 0
 980.880300873 929.193168514 981 815.752600567 981 704 c 0
 981 592.247395955 980.880301437 478.806833849 954.735329313 369.3349735 c 0
 941.65220661 314.904856766 921.24874153 261.73866474 890.659214248 214.391590007 c 0
 860.062090879 167.195234621 819.161463467 126.267965728 770.606450192 97 c 0
 712.394263479 61.9260198465 644.11534815 44 576 44 c 0
 507.884646782 44 439.60574008 61.9260177021 381.393549808 97 c 0
 332.838535939 126.267966087 291.937909706 167.195233717 261.340785752 214.391590006 c 0
 230.751257273 261.738666593 210.34779399 314.904854271 197.264670687 369.3349735 c 0
 171.119699127 478.806831486 171 592.247399433 171 704 c 0
 171 815.752604045 171.119698563 929.193166151 197.264670687 1038.6650265 c 0
 210.34779339 1093.09514323 230.75125847 1146.26133526 261.340785752 1193.60840999 c 0
 291.937909121 1240.80476538 332.838536533 1281.73203427 381.393549808 1311 c 0
 439.605736521 1346.07398015 507.88465185 1364 576 1364 c 0
EndSplineSet
Layer: 4
EndChar
StartChar: Q
Encoding: 81 81 44
GlifName: Q_
Width: 1024
VWidth: 0
Flags: W
HStem: -272 130<740.672 1029> 1294 130<424.885 726.826>
VStem: 107 138<327.843 1072.32> 507 138<112 384> 907 138<325.218 1072.18>
CounterMasks: 1 38
LayerCount: 5
Back
SplineSet
112 704 m 4
 112 831 115 950 140 1053 c 4
 189 1253 331 1424 576 1424 c 4
 821 1424 962 1253 1012 1053 c 4
 1038 950 1040 831 1040 704 c 4
 1040 577 1037 458 1012 355 c 4
 969 181 856 29 667 -8 c 5
 668 -12 670 -17 672 -21 c 4
 708 -103 772 -152 871 -152 c 4
 928 -152 982 -147 1024 -143 c 5
 1024 -263 l 5
 980 -267 928 -272 864 -272 c 4
 702 -272 600 -177 552 -63 c 4
 545 -47 540 -31 535 -14 c 5
 315 4 188 167 140 355 c 4
 114 458 112 577 112 704 c 4
240 704 m 4
 240 588 242 478 265 382 c 4
 297 253 376 136 516 109 c 5
 512 156 512 205 512 256 c 6
 512 384 l 5
 640 384 l 5
 640 256 l 6
 640 206 640 157 644 111 c 5
 780 139 855 255 887 382 c 4
 911 478 912 588 912 704 c 4
 912 820 910 930 887 1026 c 4
 851 1173 756 1304 576 1304 c 4
 396 1304 299 1174 265 1026 c 4
 243 930 240 820 240 704 c 4
EndSplineSet
Fore
SplineSet
135 356 m 0
 109 459 107 578 107 704 c 0
 107 830 110 949 135 1052 c 0
 184 1252 328 1424 576 1424 c 0
 824 1424 967 1252 1017 1052 c 0
 1043 949 1045 830 1045 704 c 0
 1045 578 1042 459 1017 356 c 0
 974 183 861 32 674 -7 c 1
 708 -93 773 -142 871 -142 c 0
 928 -142 982 -137 1024 -133 c 0
 1029 -133 l 1
 1029 -263 l 1
 1024 -263 l 0
 980 -267 928 -272 864 -272 c 0
 681 -272 573 -154 531 -14 c 1
 309 6 183 169 135 356 c 0
270 1020 m 0
 248 925 245 815 245 699 c 0
 245 583 247 473 270 378 c 1
 301 252 377 139 510 110 c 1
 507 155 507 202 507 251 c 0
 507 384 l 1
 645 384 l 1
 645 251 l 0
 645 203 646 154 649 112 c 1
 779 142 851 254 882 378 c 0
 906 473 907 583 907 699 c 0
 907 815 905 925 882 1020 c 0
 846 1166 753 1294 576 1294 c 0
 399 1294 304 1167 270 1020 c 0
EndSplineSet
Validated: 1
Layer: 2
SplineSet
576 1424 m 0
 816.772883738 1424 968.489534431 1255.48864123 1016.86491438 1053 c 0
 1045.03900282 934.657781832 1045 815.624405342 1045 704 c 0
 1045 592.385214133 1045.0341772 473.322109811 1016.8688154 355.016565472 c 0
 973.754864306 172.417809412 846.459410678 18.4882684714 646.190643885 -11.3584396027 c 1
 648.567293984 -62.2228156797 656.998960535 -125.814632817 688.235953136 -176.687109626 c 0
 724.467325909 -233.046006169 777.570519292 -270 872 -270 c 0
 919.450797756 -270 971.209331362 -262.09685809 1023.14729283 -253.146494941 c 0
 1029 -252.133526393 l 1
 1029 -384.270987059 l 1
 1024.86892667 -385 l 0
 973.682477809 -393.987317743 922.399938866 -400 872 -400 c 0
 722.3356557 -400 624.544390987 -332.989745739 568.698542332 -240.983396402 c 0
 521.099233953 -159.817292468 510.496394699 -73.4965167921 508.149579776 -11.4264464827 c 1
 305.998355628 17.7263495559 179.135457808 172.888037767 135.135085623 355.008479604 c 0
 106.96099718 473.347822428 107 592.378306781 107 704 c 0
 107 815.622187396 106.962110982 934.662445112 135.134174513 1052.99615355 c 0
 183.511230295 1255.491831 335.226855852 1424 576 1424 c 0
576 1294 m 0
 406.969579508 1294 305.544616457 1172.22688583 269.869554545 1023.71301459 c 0
 246.037164145 921.799662331 245 815.58011725 245 704 c 0
 245 592.430915274 246.04239217 486.177879765 269.865401437 384.304663839 c 0
 305.548133807 235.758724433 406.968487163 114 576 114 c 0
 745.030420492 114 846.455383543 235.773114171 882.130445455 384.286985406 c 0
 905.962835855 486.200337669 907 592.41988275 907 704 c 0
 907 815.569084726 905.95760783 921.822120235 882.134598563 1023.69533616 c 0
 846.451866193 1172.24127557 745.031512837 1294 576 1294 c 0
EndSplineSet
Layer: 3
Layer: 4
EndChar
StartChar: R
Encoding: 82 82 45
GlifName: R_
Width: 1024
VWidth: 0
Flags: W
HStem: 0 21G<187 325 852.971 1009> 515 130<325 622.192> 1288 120<325 692.69>
VStem: 187 138<0 515 645 1288> 843 138<798.323 1135.61>
AnchorPoint: "top" 576 1408 basechar 0
AnchorPoint: "bottom" 576 0 basechar 0
LayerCount: 5
Back
Fore
SplineSet
469 1288 m 0
 325 1288 l 1
 325 645 l 1
 469 645 l 0
 551 645 656 646 738 717 c 0
 800 770 843 859 843 966 c 0
 843 1073 800 1163 738 1216 c 1
 656 1288 551 1288 469 1288 c 0
187 0 m 1
 187 1408 l 1
 469 1408 l 0
 560 1408 709 1408 830 1302 c 0
 917 1226 981 1109 981 962 c 0
 981 815 917 698 830 622 c 0
 806 601 780 584 755 571 c 1
 1009 0 l 1
 862 0 l 1
 625 525 l 1
 565 514 511 515 469 515 c 0
 325 515 l 1
 325 0 l 1
 187 0 l 1
EndSplineSet
Validated: 33
Layer: 2
Layer: 3
Layer: 4
EndChar
StartChar: S
Encoding: 83 83 46
GlifName: S_
Width: 1024
VWidth: 0
InSpiro: 1
Flags: W
HStem: -16 130<245.078 790.019> 1294 130<468.925 994.922>
VStem: 221 138<897.393 1184.78> 921 138<240.185 529.49>
AnchorPoint: "bottom" 704 0 basechar 0
AnchorPoint: "top" 640 1408 basechar 0
LayerCount: 5
Back
Fore
SplineSet
1059 387 m 0
 1059 148 881 -16 620 -16 c 0
 486 -16 365 -2 249 16 c 0
 245 17 l 1
 245 150 l 1
 251 149 l 0
 365 131 492 114 620 114 c 0
 807 114 921 220 921 388 c 0
 921 484 873 565 797 610 c 1
 704 663 583 647 463 690 c 0
 320 741 221 864 221 1043 c 0
 221 1260 382 1424 620 1424 c 0
 756 1424 878 1411 991 1399 c 0
 995 1398 l 1
 995 1267 l 1
 989 1268 l 0
 877 1280 745 1294 620 1294 c 0
 458 1294 359 1184 359 1042 c 0
 359 935 410 860 484 822 c 0
 581 773 729 793 852 729 c 0
 976 665 1059 539 1059 387 c 0
EndSplineSet
Validated: 1
Layer: 2
SplineSet
576 1364 m 0
 772.934442552 1364 911 1234.22762363 911 1034 c 0
 911 862.638461565 803.148637024 732.394190669 641.932278142 704.538344144 c 1
 826.463993686 678.968371803 950.999999969 546.113573377 951 374.000000001 c 0
 951 175.640712523 796.056103476 44 576 44 c 0
 355.943899204 44 201 175.640686471 201 374 c 0
 201 546.11355385 325.535984176 678.968371016 510.067721986 704.538344423 c 1
 348.851368719 732.394190354 241.000000004 862.63845587 241 1034 c 0
 241 1234.2276411 379.065572113 1364 576 1364 c 0
EndSplineSet
Layer: 3
SplineSet
112.918847929 120 m 1
 115.391733174 138.92586152 l 1
 120.236442623 137.689418897 l 2
 186.051983718 120.91497377 252.32898475 105.946168321 318.968216171 92.8107201461 c 0
 368.379552735 83.0735998637 417.943825057 74.1876904278 467.725959977 66.8940349932 c 0
 517.240876889 59.6576029673 565.944973001 54.0724192067 616.45735133 53.9993408882 c 0
 669.642428653 53.9993408882 721.233471465 60.4446241043 770.281167261 77.8332972111 c 0
 819.34425335 95.1611013582 864.487543418 123.69098112 899.285487128 161.693995556 c 0
 953.167720545 220.592801513 981.019112705 299.904907989 981.019112705 380.748041824 c 0
 981.019112705 443.536421288 964.693203581 506.636169231 931.437109872 559.645458983 c 0
 897.567042966 613.633404962 845.401011357 655.528021716 786.134519484 679.36103649 c 0
 731.256877622 701.429149651 671.322909516 708.689070658 611.798316274 717.001535842 c 0
 552.215300024 725.322159656 491.389303161 736.645669979 437.629222293 765.597794523 c 0
 388.387077213 792.11681559 346.977426719 832.941536192 320.178999072 882.06756375 c 0
 293.622387383 930.750301961 280.997509904 986.388924138 280.997509904 1041.66505784 c 0
 280.997509904 1129.33585784 314.357320695 1217.44818586 378.541435671 1278 c 0
 409.861054067 1307.50327153 447.848668179 1329.87846309 488.704609507 1343.96601727 c 0
 529.740106306 1358.15363711 572.492346254 1363.93778436 616.353390773 1364.00051781 c 0
 660.322065731 1364.00051781 702.44832378 1358.48013411 744.873158398 1351 c 0
 785.962406192 1343.72964001 826.674676371 1334.69294308 867.166601963 1325 c 0
 948.596535702 1305.48332397 1029.30049151 1283.10774539 1109.54017887 1259 c 2
 1114.32827712 1257.55982113 l 1
 1111.44791937 1247.98362463 l 1
 1106.65982113 1249.42380351 l 2
 1026.55680973 1273.49042465 946.034725022 1295.81416488 864.833398037 1315.27600085 c 0
 824.449045757 1324.9430858 783.931388646 1333.93375698 743.126841602 1341.15366171 c 0
 701.006583735 1348.57957254 659.446408646 1354.00051781 616.360642671 1354.00051781 c 0
 573.417527554 1353.93912186 531.76853027 1348.26872192 492.013154605 1334.52919952 c 0
 452.445915771 1320.89382655 415.684502123 1299.23496466 385.458564329 1270.77827367 c 0
 323.534138189 1212.38596604 290.997509904 1126.91576381 290.997509904 1041.66505784 c 0
 290.997509904 987.896427386 303.299214325 933.892874255 328.957773554 886.856417328 c 0
 354.800687713 839.48200679 394.830676475 800.00460245 442.370777707 774.402205477 c 0
 494.305985457 746.432853893 553.869987342 735.188123008 613.181371366 726.905431974 c 0
 672.551178398 718.61458231 733.363362946 711.360332031 789.865480516 688.63896351 c 0
 850.982818913 664.061662188 904.822519578 620.885250718 939.908082412 564.959837989 c 0
 974.279856653 510.172184455 991.019112705 445.244773332 991.019112705 380.748041824 c 0
 991.019112705 297.684236817 962.448131961 215.949759273 906.714512872 155 c 0
 870.703651804 115.652651177 824.157695184 86.264817212 773.659175429 68.4211210116 c 0
 723.215082885 50.5321441464 670.484135945 43.9993408882 616.450087908 43.9993408882 c 0
 565.171758518 44.0735298138 516.002317781 49.7321436258 466.274040023 57 c 0
 416.280911515 64.3246060882 366.555531653 73.2406774904 317.031783829 83 c 0
 250.212372124 96.1710119381 183.75655627 111.180264911 117.763557377 128 c 1
 117.763557377 122.155290552 116.794615487 123.402579076 117.763557377 128 c 1
 112.918847929 120 l 1
EndSplineSet
Layer: 4
EndChar
StartChar: U
Encoding: 85 85 48
GlifName: U_
Width: 1024
VWidth: 0
Flags: W
HStem: -16 130<430.42 721.502> 1388 20G<187 325 827 965>
VStem: 187 138<228.77 1408> 827 138<228.77 1408>
AnchorPoint: "bottom" 576 0 basechar 0
AnchorPoint: "top" 576 1408 basechar 0
LayerCount: 5
Back
Fore
SplineSet
187 483 m 0
 187 1408 l 1
 325 1408 l 1
 325 484 l 0
 325 429 325 362 337 305 c 0
 361 191 441 114 576 114 c 0
 711 114 791 191 815 305 c 0
 827 362 827 429 827 484 c 0
 827 1408 l 1
 965 1408 l 1
 965 483 l 0
 965 417 965 353 949 275 c 0
 914 106 776 -16 576 -16 c 0
 376 -16 237 106 203 275 c 0
 187 353 187 417 187 483 c 0
EndSplineSet
Validated: 1
Layer: 2
SplineSet
576 817 m 0
 804.82536498 817 965 657.20581713 965 428 c 0
 965 201.740362215 804.825454237 44 576 44 c 0
 347.17463502 44 187 201.740273064 187 428 c 0
 187 657.205726819 347.174545763 817 576 817 c 0
EndSplineSet
Layer: 3
SplineSet
187 1536 m 1
 197 1536 l 1
 197 482 l 0
 197 427.154782445 198.067892095 372.140159856 210.957434045 319.503348178 c 0
 223.84844781 267.242351338 248.464846566 217.637382778 284.010410831 177.015411007 c 0
 319.568117733 136.380924146 365.560657198 104.854070159 416.019538687 84.3839664742 c 0
 466.498172702 63.859845263 521.306885076 53.9999999981 576 54 c 0
 630.693113663 54 685.501828285 63.8598456679 735.980461314 84.3839664801 c 0
 786.439340194 104.854069108 832.431883641 136.380925727 867.989589168 177.015411019 c 0
 903.535155122 217.637384719 928.151551402 267.242348153 941.042565953 319.503348184 c 0
 953.932108867 372.14016379 954.999999999 427.154777496 955 482 c 0
 955 1535 l 1
 965 1535 l 1
 965 482 l 0
 964.999999999 427.04088876 963.996178003 371.200890011 950.759539585 317.141056196 c 0
 937.524372806 263.462843831 912.246563002 212.424885287 875.562383182 170.484500605 c 0
 838.890342931 128.559321541 791.599341844 96.1646201346 739.786870192 75.1367370865 c 0
 687.994152689 54.0720909271 631.903635025 44 576 44 c 0
 520.096366236 43.9999999981 464.005846326 54.0720913243 412.213129809 75.1367370804 c 0
 360.400660766 96.1646190677 313.109655695 128.559323101 276.437616819 170.484500593 c 0
 239.753435306 212.424887209 214.47562798 263.462840629 201.240460413 317.14105619 c 0
 188.003821033 371.200893937 187 427.040883807 187 482 c 0
 187 1536 l 1
EndSplineSet
Layer: 4
EndChar
StartChar: V
Encoding: 86 86 49
GlifName: V_
Width: 1024
VWidth: 0
Flags: W
HStem: 0 21G<513 639> 1388 20G<99 240 912 1053>
LayerCount: 5
Back
SplineSet
113 1738 m 5
 163 1448 l 6
 247.236184118 959.430132117 360.279088989 471.386311474 576 25 c 5
 791.720911011 471.386311474 904.763815882 959.430132117 989 1448 c 6
 1039 1738 l 1029
  Spiro
    113 1738 {
    163 1448 ]
    576 25 v
    989 1448 [
    1039 1738 o
    0 0 z
  EndSpiro
EndSplineSet
Fore
SplineSet
574 157 m 1
 578 157 l 1
 743 552 838 975 912 1404 c 0
 913 1408 l 1
 1053 1408 l 1
 1052 1402 l 0
 968 924 854 446 639 3 c 0
 637 -0 l 1
 515 0 l 1
 513 3 l 0
 298 446 184 924 100 1402 c 0
 99 1408 l 1
 239 1408 l 1
 240 1404 l 0
 314 975 409 548 574 157 c 1
EndSplineSet
Validated: 1
Layer: 2
SplineSet
44.0260131301 1727.66127431 m 1
 180.274563186 1748.30725954 l 1
 231.106988205 1457.57421524 l 0
 306.185604453 1023.0863878 405.358687553 588.382249136 576.000100302 191.715956491 c 1
 748.094250631 591.740954428 845.738656631 1022.65001007 920.8930124 1457.5742186 c 0
 971.725436814 1748.30725954 l 1
 1107.97398687 1727.66127431 l 1
 1057.10698785 1436.72670946 l 0
 972.485255389 946.952860802 858.613486917 454.144248204 638.797773908 0.2392578125 c 0
 637.432843432 0.2392578125 l 1
 514.567156568 0.2392578125 l 1
 513.202226092 0.2392578125 l 0
 293.38651342 454.14424751 179.514744574 946.952861021 94.8930119213 1436.72671077 c 0
 44.0260131301 1727.66127431 l 1
EndSplineSet
Layer: 3
Layer: 4
EndChar
StartChar: W
Encoding: 87 87 50
GlifName: W_
Width: 1024
VWidth: 0
Flags: W
HStem: 0 21G<253 391.136 760.864 899> 1388 20G<114 252 900 1038>
VStem: 114 138<963.516 1408> 900 138<963.516 1408>
AnchorPoint: "top" 576 1408 basechar 0
LayerCount: 5
Back
Fore
SplineSet
336 210 m 1
 510 896 l 1
 642 896 l 1
 816 210 l 1
 818 210 l 1
 882 578 900 988 900 1403 c 0
 900 1408 l 1
 1038 1408 l 1
 1038 1403 l 0
 1038 933 991 467 899 4 c 0
 898 0 l 1
 766 0 l 1
 577 736 l 1
 575 736 l 1
 386 -0 l 1
 254 0 l 1
 253 4 l 0
 161 467 114 933 114 1403 c 0
 114 1408 l 1
 252 1408 l 1
 252 1403 l 0
 252 988 271 577 334 210 c 1
 336 210 l 1
EndSplineSet
Validated: 1
Layer: 2
Layer: 3
Layer: 4
Substitution2: "'ss10' Style Set 10 lookup 9 subtable" W.straight
EndChar
StartChar: Y
Encoding: 89 89 52
GlifName: Y_
Width: 1024
VWidth: 0
Flags: W
HStem: 0 21G<507 645> 1388 20G<93 241 911 1059>
VStem: 507 138<0 671.622>
AnchorPoint: "top" 576 1408 basechar 0
LayerCount: 5
Back
SplineSet
43 1738 m 1
 153 1448 l 2
 261.793904146 1161.17970725 388.971561724 878.150893867 576 635 c 1
 763.028438276 878.150893867 890.206095854 1161.17970725 999 1448 c 2
 1109 1738 l 1025
  Spiro
    43 1738 {
    153 1448 ]
    576 635 v
    999 1448 [
    1109 1738 o
    0 0 z
  EndSpiro
EndSplineSet
Fore
SplineSet
569 741 m 1
 583 741 l 1
 720 943 822 1170 911 1405 c 0
 913 1408 l 1
 1059 1408 l 1
 1057 1401 l 0
 951 1127 826 854 645 615 c 1
 645 0 l 1
 507 0 l 1
 507 615 l 1
 325 855 201 1127 95 1401 c 0
 93 1408 l 1
 239 1408 l 1
 241 1405 l 0
 330 1170 434 941 569 741 c 1
EndSplineSet
Validated: 1
Layer: 2
SplineSet
583.351432287 745.814453125 m 1
 720.497781997 947.590052799 822.05475243 1173.9329567 910.91143211 1408 c 0
 912.134185288 1408 l 1
 1058.98810861 1408 l 1
 1056.3920404 1404.42712079 l 0
 950.9184144 1129.32800749 825.856634739 853.977465802 645 614.10994992 c 1
 645 0 l 1
 507 0 l 1
 507 614.10994992 l 1
 325.181625119 855.252498411 200.971885413 1129.72374229 95.7842271107 1403.96570696 c 1
 93.0118913884 1408 l 1
 239.872881283 1408 l 1
 241.096033636 1408 l 0
 329.956773777 1174.06937941 433.451839569 944.725015383 568.648592695 745.814453125 c 1
 583.351432287 745.814453125 l 1
EndSplineSet
Layer: 3
Layer: 4
EndChar
StartChar: Z
Encoding: 90 90 53
GlifName: Z_
Width: 1024
VWidth: 0
Flags: W
HStem: 0 120<347 965> 1288 120<207 785>
AnchorPoint: "top" 576 1408 basechar 0
LayerCount: 5
Back
Fore
SplineSet
785 1288 m 1
 207 1288 l 1
 207 1408 l 1
 945 1408 l 1
 945 1312 l 1
 347 124 l 1
 347 120 l 1
 965 120 l 1
 965 0 l 1
 187 0 l 1
 187 98 l 1
 785 1284 l 1
 785 1288 l 1
EndSplineSet
Validated: 1
Layer: 2
Layer: 3
Layer: 4
EndChar
StartChar: bracketleft
Encoding: 91 91 87
GlifName: bracketleft
Width: 1024
VWidth: 0
Flags: W
HStem: -128 130<517 901> 1406 130<517 901>
VStem: 379 138<2 1406>
LayerCount: 5
Back
Fore
SplineSet
379 -128 m 1
 379 1536 l 1
 901 1536 l 1
 901 1406 l 1
 517 1406 l 1
 517 2 l 1
 901 2 l 1
 901 -128 l 1
 379 -128 l 1
EndSplineSet
Validated: 1
Layer: 2
Layer: 3
Layer: 4
EndChar
StartChar: backslash
Encoding: 92 92 26
GlifName: backslash
Width: 1024
VWidth: 0
Flags: W
LayerCount: 5
Back
Fore
SplineSet
912 -157 m 1
 118 1508 l 1
 240 1565 l 1
 1034 -100 l 1
 912 -157 l 1
EndSplineSet
Validated: 1
Layer: 2
Layer: 3
Layer: 4
EndChar
StartChar: bracketright
Encoding: 93 93 88
GlifName: bracketright
Width: 1024
VWidth: 0
Flags: W
HStem: -128 130<251 635> 1406 130<251 635>
VStem: 635 138<2 1406>
LayerCount: 5
Back
Fore
SplineSet
251 1406 m 1
 251 1536 l 1
 773 1536 l 1
 773 -128 l 1
 251 -128 l 1
 251 2 l 1
 635 2 l 1
 635 1406 l 1
 251 1406 l 1
EndSplineSet
Validated: 1
Layer: 2
Layer: 3
Layer: 4
EndChar
StartChar: asciicircum
Encoding: 94 94 89
GlifName: asciicircum
Width: 1024
VWidth: 0
Flags: W
HStem: 1289 119<517.969 633.744>
LayerCount: 5
Back
Fore
SplineSet
194 896 m 1
 196 902 l 2
 245 1079 328 1250 493 1407 c 0
 494 1408 l 1
 658 1408 l 1
 659 1407 l 0
 824 1250 907 1079 956 902 c 0
 958 896 l 1
 812 896 l 1
 811 900 l 0
 764 1054 695 1184 599 1289 c 1
 553 1289 l 1
 456 1183 388 1054 341 900 c 0
 340 896 l 1
 194 896 l 1
EndSplineSet
Validated: 1
Layer: 2
Layer: 3
Layer: 4
EndChar
StartChar: underscore
Encoding: 95 95 90
GlifName: underscore
Width: 1024
VWidth: 0
Flags: W
HStem: -130 130<123 1029>
LayerCount: 5
Back
Fore
SplineSet
123 -130 m 1
 123 0 l 1
 1029 0 l 1
 1029 -130 l 1
 123 -130 l 1
EndSplineSet
Validated: 1
Layer: 2
Layer: 3
Layer: 4
EndChar
StartChar: grave
Encoding: 96 96 27
GlifName: grave
Width: 1024
VWidth: 0
Flags: W
HStem: 1024 384
VStem: 351 319
LayerCount: 5
Back
Fore
SplineSet
500 1408 m 1
 670 1024 l 1
 522 1024 l 1
 351 1408 l 1
 500 1408 l 1
EndSplineSet
Validated: 1
Layer: 2
SplineSet
209.429005407 1601.02045351 m 1
 218.611901617 1604.97954649 l 1
 582.570994593 769.979546488 l 1
 573.388098383 766.020453512 l 1
 209.429005407 1601.02045351 l 1
EndSplineSet
Layer: 3
Layer: 4
EndChar
StartChar: a
Encoding: 97 97 2
GlifName: a
Width: 1024
VWidth: 0
Flags: W
HStem: -16 130<419.504 657.961> 0 21G<763 901> 507 120<425.334 763> 910 130<315.078 735.803>
VStem: 219 138<176.225 438.558> 763 138<0 123 224.017 507 627 882.6>
AnchorPoint: "top" 576 1024 basechar 0
AnchorPoint: "bottom" 832 0 basechar 0
LayerCount: 5
Back
Fore
SplineSet
763 471 m 0xbc
 763 507 l 1
 572 507 l 0
 517 507 461 507 412 455 c 0
 377 419 357 363 357 306 c 0
 357 200 420 114 532 114 c 0
 757 114 763 342 763 471 c 0xbc
319 1021 m 0
 406 1031 516 1040 608 1040 c 0
 705 1040 808 1021 870 912 c 0
 901 858 901 783 901 747 c 0
 901 0 l 1
 763 0 l 1x7c
 763 123 l 1
 761 123 l 1
 696 35 618 -16 508 -16 c 0
 347 -16 219 118 219 304 c 0
 219 386 244 473 308 537 c 0
 400 627 512 627 574 627 c 0
 763 627 l 1
 763 742 l 0
 763 785 763 826 746 855 c 0
 726 889 695 910 608 910 c 0
 520 910 409 900 321 889 c 0
 315 888 l 1
 315 1020 l 1
 319 1021 l 0
EndSplineSet
Validated: 1
Layer: 2
SplineSet
640 980 m 0
 755.725365592 980 837 900.977109741 837 788 c 0
 837 696.933641091 786.839454355 627.367677032 709.220094145 601.724734624 c 1
 788.710586238 548.597076184 837 457.730364596 837 346 c 0
 837 168.122848384 710.522428542 44 530 44 c 0
 349.478146154 44 223 168.12227654 223 346 c 0
 223 514.245543534 332.495799543 635.1837382 493.141454437 651.192903962 c 1
 461.394321937 685.591264234 443 732.85326093 443 788 c 0
 443 900.976140494 524.273651104 980 640 980 c 0
EndSplineSet
Layer: 3
SplineSet
803 577 m 1
 803 567 l 1
 572 567 l 0
 533.413904525 567 494.710711891 565.636973607 458.672194376 554.304682755 c 0
 422.601255622 542.962197062 389.545835771 522.139000937 363.643602764 494.575944087 c 0
 316.613610691 444.530438556 292.981201153 374.512913704 292.981201153 305.404730188 c 0
 292.981201153 236.899315769 317.414182188 169.473921639 365.54290654 122.056291732 c 0
 408.482379951 79.84789919 469.121516105 56.1558639591 530.180776489 53.9934618348 c 0
 533.543996652 53.8739676902 536.90897486 53.8145693516 540.273846003 53.8145693516 c 0
 590.855345925 53.8145693516 641.410412162 67.2653592127 685.545973372 91.7126926518 c 0
 736.158590932 119.681152715 777.841748186 163.548291522 800.394454483 215.893045335 c 0
 826.378158536 276.769950025 827.00079465 345.328283677 827.00079465 412.893718175 c 0
 827 752.999988318 l 0
 827 786.541487357 826.385829986 820.116366711 816.925435262 851.438362123 c 0
 807.474981575 882.20168439 788.797131985 910.427652521 762.911162329 930.136392217 c 0
 742.148138415 945.986498316 717.157120918 956.443603472 691.158945608 962.338475481 c 0
 664.984494148 968.343557027 638.400350884 969.981126682 610.746585246 970.000176321 c 1
 577.50746471 970.000176321 545.302591507 967.783420908 512.417894391 965.034988354 c 0
 469.727249061 961.461428733 427.126460508 956.802519815 384.668034867 951.089656027 c 0
 341.904712995 945.337535959 299.305037628 938.395600929 257.055987684 930.184484211 c 0
 252.148229789 929.228496528 l 1
 250.236254422 939.044012316 l 1
 255.144012316 940 l 0
 297.593069258 948.250072447 340.384348857 955.223031349 383.331965133 961 c 0
 425.95471512 966.735017757 468.722248523 971.412248552 511.582105609 975 c 0
 544.569933524 977.757119743 577.046200434 980.000176321 610.75008836 980.000176321 c 1
 638.817352571 979.980831117 666.164284811 978.336086217 693.431323114 972.076868596 c 0
 720.578274298 965.91192719 746.937961379 954.935922607 769.088837671 938 c 0
 796.781571715 916.87664548 816.518219959 886.876407953 826.509686818 854.291802523 c 0
 836.49121264 821.231112194 837 786.633639263 837 752.999988318 c 0
 837.00079465 412.893718175 l 0
 837.00079465 345.353745592 836.612805456 275.286980737 809.605545517 212 c 0
 786.115634696 157.441193785 742.885462588 111.99415806 690.454026628 83 c 0
 644.850720374 57.7257949533 592.652125605 43.8145693516 540.273846003 43.8145693516 c 0
 536.789141614 43.8145693516 533.30363205 43.8761216848 529.819223511 44 c 0
 466.427957825 46.246952932 403.390994929 70.7925097891 358.45709346 115 c 0
 308.158395932 164.590238643 282.981201153 234.634231679 282.981201153 305.404730188 c 0
 282.981201153 376.705761322 307.280916981 449.201907656 356.356397236 501.424055913 c 0
 383.438318791 530.242441697 417.935972338 551.977941722 455.67250718 563.844173135 c 0
 493.441463261 575.720599387 533.215637881 577 572 577 c 0
 803 577 l 1
EndSplineSet
Layer: 4
EndChar
StartChar: b
Encoding: 98 98 0
GlifName: b
Width: 1024
VWidth: 0
InSpiro: 1
Flags: W
HStem: -16 130<484.393 702.174> 0 21G<251 389> 910 130<484.766 702.174> 1388 20G<251 389>
VStem: 251 138<0 125 225.659 798.341 899 1408> 795 138<225.939 798.061>
LayerCount: 5
Back
Fore
SplineSet
391 899 m 1x7c
 451 991 528 1040 612 1040 c 0
 745 1040 857 952 905 802 c 0
 933 712 933 623 933 512 c 0
 933 401 933 312 905 222 c 0
 857 72 745 -16 612 -16 c 0xbc
 527 -16 450 34 391 125 c 1
 389 125 l 1
 389 0 l 1
 251 0 l 1
 251 1408 l 1
 389 1408 l 1
 389 899 l 1
 391 899 l 1x7c
769 763 m 0
 743 840 685 910 592 910 c 0
 499 910 441 840 415 763 c 0
 390 689 389 603 389 512 c 0
 389 421 390 335 415 261 c 0
 441 184 499 114 592 114 c 0
 685 114 743 184 769 261 c 0
 794 335 795 421 795 512 c 0
 795 603 794 689 769 763 c 0
EndSplineSet
Validated: 1
Layer: 2
SplineSet
592 980 m 0
 754.850069291 980 869 868.17662971 869 708 c 0
 869 544.878943849 754.850066226 431 592 431 c 0
 429.149930709 431 315 544.87894695 315 708 c 0
 315 868.176632754 429.149933774 980 592 980 c 0
EndSplineSet
Layer: 3
SplineSet
315 1536 m 1
 325 1536 l 1
 325 512 l 2
 325 420.578062863 325.506166724 327.856139139 353.666429624 241.919288173 c 0
 367.726652574 199.460777068 389.558144368 159.214161116 420.484745075 126.963512434 c 0
 451.396652145 94.8892335829 491.559065879 71.2537729808 535.198210423 60.7086130386 c 0
 553.748520763 56.2270831543 572.875085999 54 592 54 c 0
 611.124908527 54 630.251482745 56.2270840018 648.801789577 60.7086130386 c 0
 692.440953099 71.2537775669 732.603312973 94.88919739 763.515254924 126.963512434 c 0
 794.44189053 159.214197511 816.273328087 199.460718673 830.333570375 241.919288174 c 0
 858.493896586 327.856332344 859 420.577722457 859 512 c 0
 859 603.421937137 858.493833276 696.143860861 830.333570376 782.080711827 c 0
 816.273347426 824.539222932 794.441855632 864.785838884 763.515254925 897.036487566 c 0
 732.603347855 929.110766417 692.440934121 952.746227019 648.801789577 963.291386961 c 0
 630.251479237 967.772916846 611.124914001 970 592 970 c 0
 572.875091473 970 553.748517255 967.772915999 535.198210423 963.291386961 c 0
 491.559046901 952.746222433 451.396687027 929.11080261 420.484745076 897.036487566 c 0
 389.55810947 864.785802489 367.726671912 824.539281327 353.666429625 782.080711826 c 0
 325.506103414 696.143667656 325 603.422277543 325 512 c 2
 325 4 l 1
 315 4 l 1
 315 1536 l 1
EndSplineSet
Layer: 4
EndChar
StartChar: c
Encoding: 99 99 3
GlifName: c
Width: 1024
VWidth: 0
Flags: W
HStem: -16 130<457.996 900.922> 910 130<457.996 880.922>
VStem: 219 138<229.642 794.358>
AnchorPoint: "bottom" 704 0 basechar 0
AnchorPoint: "top" 576 1024 basechar 0
LayerCount: 5
Back
Fore
SplineSet
262 194 m 0
 220 287 219 392 219 512 c 0
 219 632 220 737 262 830 c 0
 313 945 416 1040 606 1040 c 0
 709 1040 786 1032 876 1023 c 0
 881 1023 l 1
 881 892 l 1
 876 893 l 0
 785 902 702 910 606 910 c 0
 488 910 431 864 392 783 c 0
 358 712 357 613 357 512 c 0
 357 411 358 312 392 241 c 0
 431 160 488 114 606 114 c 0
 701 114 795 125 895 140 c 0
 901 141 l 1
 901 11 l 1
 897 10 l 0
 798 -5 708 -16 606 -16 c 0
 416 -16 313 79 262 194 c 0
EndSplineSet
Validated: 1
Layer: 2
Layer: 3
Layer: 4
EndChar
StartChar: d
Encoding: 100 100 4
GlifName: d
Width: 1024
VWidth: 0
Flags: W
HStem: -16 130<449.826 670.632> 0 21G<763 901> 910 130<449.826 670.632> 1388 20G<763 901>
VStem: 219 138<225.939 798.061> 763 138<0 125 225.659 798.341 899 1408>
LayerCount: 5
Back
Fore
SplineSet
247 802 m 0xbc
 295 952 407 1040 540 1040 c 0
 624 1040 711 1000 761 899 c 1
 763 899 l 1
 763 1408 l 1
 901 1408 l 1
 901 0 l 1
 763 0 l 1x7c
 763 125 l 1
 761 125 l 1
 711 23 624 -16 540 -16 c 0
 407 -16 295 72 247 222 c 0
 219 312 219 401 219 512 c 0
 219 623 219 712 247 802 c 0xbc
737 763 m 0
 711 840 653 910 560 910 c 0
 467 910 409 840 383 763 c 0
 358 689 357 603 357 512 c 0
 357 421 358 335 383 261 c 0
 409 184 467 114 560 114 c 0xbc
 653 114 711 184 737 261 c 0
 762 335 763 421 763 512 c 0
 763 603 762 689 737 763 c 0
EndSplineSet
Validated: 1
Layer: 2
Layer: 3
Layer: 4
Substitution2: "Single Substitution lookup 70 subtable" larsenwork
EndChar
StartChar: e
Encoding: 101 101 5
GlifName: e
Width: 1024
VWidth: 0
Flags: W
HStem: -16 130<455.257 900.922> 507 125<359 793> 910 130<442.677 709.323>
VStem: 219 138<221.679 507 632 816.11>
AnchorPoint: "top" 576 1024 basechar 0
LayerCount: 5
Back
Fore
SplineSet
766 792 m 1
 738 865 671 910 576 910 c 0
 481 910 414 865 386 792 c 1
 366 747 362 689 359 632 c 1
 793 632 l 1
 790 691 786 746 766 792 c 1
256 838 m 1
 299 951 412 1040 576 1040 c 0
 740 1040 853 951 896 838 c 1
 932 746 933 636 933 512 c 0
 933 507 l 1
 357 507 l 1
 357 407 358 310 389 240 c 0
 425 159 492 114 596 114 c 0
 689 114 790 123 895 135 c 0
 901 136 l 1
 901 6 l 1
 897 5 l 0
 793 -7 696 -16 596 -16 c 0
 420 -16 307 77 259 194 c 0
 221 287 219 392 219 512 c 0
 219 636 220 746 256 838 c 1
EndSplineSet
Validated: 1
Layer: 2
SplineSet
575.995682403 970.000003672 m 0
 567.446248851 970.007159768 558.903263752 969.696358215 550.3959016 969.031396904 c 0
 501.529450178 965.228650297 453.5206785 948.417587526 414.937271839 919.098426068 c 0
 376.331757542 889.689791064 347.555612017 848.605180004 329.316508391 803.761192824 c 0
 292.770608563 712.851678334 293.698192333 611.255641128 292.999877903 511.96505778 c 0
 292.919314687 500.437277199 292.856395582 488.911951422 292.856395582 477.392976915 c 0
 292.856395582 438.126414982 293.589124682 398.934518155 296.834407008 359.969712306 c 0
 301.029467627 310.276330569 309.985166952 260.713200387 329.671010457 215.281596636 c 0
 349.341943179 170.108118841 380.461974472 129.405449928 421.147997915 101.251220014 c 0
 461.813377222 73.1350761761 511.372660288 58.4336999672 561.351853658 54.9752090712 c 0
 569.563735308 54.4029631327 577.804852167 54.095042979 586.058704534 53.9993107318 c 0
 588.061600662 53.9760246649 590.064778134 53.9646254314 592.068203574 53.9646254314 c 0
 621.837803916 53.9646254314 651.663412549 56.4949938712 681.422986082 59.9331877941 c 0
 732.219923935 65.8211039022 782.743090653 74.2397896917 833.062520003 83.822653665 c 0
 883.864694523 93.5013500277 934.917517926 104.830383756 984.641564002 117.388655429 c 1
 858.584914237 512.547966151 l 1
 859.628934196 514.427711626 l 0
 884.687260907 559.544929744 898.034376913 611.145354672 898.034376913 662.755670374 c 0
 898.034376913 715.457044151 883.944253726 766.893719396 857.73041265 812.189605358 c 0
 831.858546278 856.909476166 794.23130108 894.984589861 749.70905764 922.026893801 c 0
 705.18636948 949.087210301 653.843542631 965.118011259 601.620839634 969.028793971 c 0
 593.094856028 969.66773371 584.545008196 969.99283791 575.995682403 970.000003672 c 0
EndSplineSet
Layer: 3
Layer: 4
EndChar
StartChar: f
Encoding: 102 102 6
GlifName: f
Width: 1024
VWidth: 0
Flags: W
HStem: 0 21G<379 517> 769 129<123 379 517 901> 1294 130<546.497 900.922>
VStem: 379 138<0 769 898 1249.35>
LayerCount: 5
Back
Fore
SplineSet
517 769 m 1
 517 0 l 1
 379 0 l 1
 379 769 l 1
 123 769 l 1
 123 898 l 1
 379 898 l 1
 379 1124 l 0
 379 1176 379 1256 432 1327 c 0
 477 1388 560 1424 660 1424 c 0
 740 1424 835 1415 897 1408 c 0
 901 1407 l 1
 901 1277 l 1
 895 1278 l 0
 833 1285 737 1294 660 1294 c 0
 605 1294 566 1279 544 1251 c 0
 517 1216 517 1168 517 1124 c 0
 517 898 l 1
 901 898 l 1
 901 769 l 1
 517 769 l 1
EndSplineSet
Validated: 1
Layer: 2
SplineSet
453 1014 m 1
 443 1014 l 1
 443 1257 l 0
 443 1286.08348005 443.272650252 1315.69897658 449.327327297 1344.78093185 c 0
 455.383509197 1373.45619536 467.321335505 1401.2792782 486.031801221 1424.50609499 c 0
 504.743147459 1447.65678864 529.85265487 1465.67555471 557.845783805 1476.76776343 c 0
 585.782779956 1487.89382357 615.349916651 1492.00063055 645.695345662 1492.00063055 c 1
 666.115269559 1491.95939828 685.016196418 1490.22882711 704.570798615 1488 c 0
 745.750226746 1483.27043206 786.688562373 1477.2612419 827.637495377 1472 c 0
 883.326906328 1464.84321053 939.033276129 1457.68841607 994.783264906 1450 c 0
 999.736359804 1449.31673509 l 1
 998.369829992 1439.4105453 l 1
 993.416735094 1440.0938102 l 0
 937.728116285 1447.77376164 882.052407642 1454.9247615 826.362504623 1462.08161311 c 0
 785.294776781 1467.35811541 744.400701946 1473.35969144 703.429201385 1478.06537591 c 0
 684.04207497 1480.27481671 665.493968842 1481.96063766 645.685167093 1482.00063055 c 1
 616.307647288 1482.00063055 588.021282469 1478.00908828 561.622976217 1467.50856166 c 0
 535.192627578 1457.05439109 511.481986823 1440.04852625 493.897420537 1418.330981 c 0
 476.311973729 1396.53124203 464.915623963 1370.15865638 459.121999023 1342.7648947 c 0
 453.326869226 1314.93702877 453 1286.01919444 453 1257 c 0
 453 1014 l 1
EndSplineSet
Layer: 3
Layer: 4
Substitution2: "Single Substitution lookup 72 subtable" larsenwork
EndChar
StartChar: g
Encoding: 103 103 7
GlifName: g
Width: 1024
VWidth: 0
Flags: W
HStem: -272 130<295.078 672.79> 111 121<445.021 667.11> 910 130<445.202 666.715> 1004 20G<763 901>
VStem: 219 138<332.876 810.216> 763 138<-42.7483 250 332.893 809.107 899 1024>
AnchorPoint: "top" 576 1024 basechar 0
LayerCount: 5
Back
Fore
SplineSet
440 865 m 0xec
 376 806 357 704 357 571 c 0
 357 438 376 336 440 277 c 0
 470 249 511 232 560 232 c 0
 609 232 650 249 680 277 c 0
 744 336 763 438 763 571 c 0
 763 704 744 806 680 865 c 0
 650 893 609 910 560 910 c 0
 511 910 470 893 440 865 c 0xec
763 163 m 0
 763 250 l 1
 761 250 l 1
 705 166 628 111 540 111 c 0
 458 111 386 143 335 192 c 0
 250 276 219 403 219 575 c 0
 219 747 250 874 336 958 c 0
 387 1007 458 1040 540 1040 c 0xec
 629 1040 706 983 761 899 c 1
 763 899 l 1
 763 1024 l 1
 901 1024 l 1xdc
 901 163 l 0
 901 103 901 -9 839 -111 c 0
 783 -204 686 -272 536 -272 c 0
 446 -272 363 -265 299 -257 c 0
 295 -256 l 1
 295 -126 l 1
 301 -127 l 0
 364 -134 447 -142 536 -142 c 0
 630 -142 684 -104 720 -46 c 0
 763 23 763 116 763 163 c 0
EndSplineSet
Validated: 1
Layer: 2
Layer: 3
SplineSet
560.015405077 256.000005016 m 0
 540.881954762 255.947230046 521.749750393 253.931003338 503.009586328 250 c 0
 431.919880623 235.07500526 366.875479778 190.72077971 327.556281307 128.686816502 c 0
 299.796256213 84.8773743287 285.159157176 32.6258251761 285.159157176 -19.5380184051 c 0
 285.159157176 -40.4352076399 287.690785947 -61.3117269424 292.850989736 -81.5768627121 c 0
 293.167274616 -82.7406224079 l 1
 215.230108847 -365.251191166 l 1
 248.823361165 -371.9959787 279.431082761 -378.004771555 311.933130919 -384.175690011 c 0
 349.822941335 -391.361977541 387.708022166 -398.368492587 425.747689435 -404.112440036 c 0
 462.544741882 -409.646104272 499.402932966 -413.984762176 536.377578814 -414.000158115 c 0
 558.790902045 -414.000158115 581.177874037 -412.332840985 603.053665049 -408.180743376 c 0
 638.514071371 -401.480472717 672.686990573 -387.922978869 702.169712335 -367.674303217 c 0
 731.661249916 -347.405455525 756.409911421 -320.612525511 775.153012811 -290.318020968 c 0
 812.975451118 -228.766850166 827.002686517 -155.309041509 827.002686517 -82.2233925653 c 0
 827.002686517 -10.7440840516 814.113899737 61.7800757026 779.819706341 123.59687694 c 0
 762.544073076 154.947740803 739.615475342 183.152481971 711.801016402 205.036980648 c 0
 683.994888968 226.962341281 651.292420499 242.387943735 616.93964372 250 c 0
 598.285523627 254.126279686 579.151941727 256.052884823 560.015405077 256.000005016 c 0
EndSplineSet
Layer: 4
Substitution2: "Single Substitution lookup 71 subtable" larsenwork
Substitution2: "'ss11' Style Set 11 lookup 10 subtable" g.long
EndChar
StartChar: i
Encoding: 105 105 9
GlifName: i
Width: 1024
VWidth: 0
Flags: W
HStem: 0 21G<571 709> 904 120<315 571> 1190 234<516.302 699.698>
VStem: 491 234<1215.3 1398.7> 571 138<0 904>
AnchorPoint: "bottom" 640 0 basechar 0
LayerCount: 5
Back
Fore
SplineSet
491 1307 m 0xf0
 491 1376 539 1424 608 1424 c 0
 677 1424 725 1376 725 1307 c 0
 725 1238 677 1190 608 1190 c 0
 539 1190 491 1238 491 1307 c 0xf0
709 0 m 1xe8
 571 0 l 1
 571 904 l 1
 315 904 l 1
 315 1024 l 1
 709 1024 l 1
 709 0 l 1xe8
EndSplineSet
Validated: 1
Layer: 2
Layer: 3
Layer: 4
Substitution2: "'ss07' Style Set 7 lookup 6 subtable" i.flyingdot
EndChar
StartChar: j
Encoding: 106 106 10
GlifName: j
Width: 1024
VWidth: 0
Flags: W
HStem: -272 130<167.078 544.79> 904 120<379 635> 1190 234<580.302 763.698>
VStem: 555 234<1215.3 1398.7> 635 138<-42.7469 904>
LayerCount: 5
Back
Fore
SplineSet
592 -46 m 0xe8
 635 23 635 118 635 165 c 2
 635 904 l 1
 379 904 l 1
 379 1024 l 1
 773 1024 l 1
 773 163 l 0
 773 103 773 -9 711 -111 c 0
 655 -204 558 -272 408 -272 c 0
 318 -272 235 -265 171 -257 c 0
 167 -256 l 1
 167 -126 l 1
 173 -127 l 0
 236 -134 319 -142 408 -142 c 0
 502 -142 556 -104 592 -46 c 0xe8
555 1307 m 0xf0
 555 1376 603 1424 672 1424 c 0
 741 1424 789 1376 789 1307 c 0
 789 1238 741 1190 672 1190 c 0
 603 1190 555 1238 555 1307 c 0xf0
EndSplineSet
Validated: 1
Layer: 2
SplineSet
256.719699229 -127.104135607 m 2
 311.540928072 -135.050356882 380.339939382 -142 448 -142 c 0
 513.778824366 -142 562.225430909 -119.226046838 593.161031953 -83.5757568593 c 1
 634.702624736 -34.1451790261 635 27.136553708 635 114 c 0
 635 904 l 1
 379 904 l 1
 379 1024 l 1
 773 1024 l 1
 773 104 l 0
 773 14.2214553216 773.158756428 -81.4038984535 703.856115125 -163.991145835 c 0
 650.9124467 -227.078211503 565.453247345 -272 458 -272 c 0
 382.733325908 -272 315.476177333 -265.999492868 255.258297735 -257 c 0
 251 -256.36125534 l 1
 251 -126.272179356 l 1
 256.719699229 -127.104135607 l 2
672 1424 m 0
 740.628996864 1424 789 1377.69618941 789 1312 c 0
 789 1240.43814002 740.629055013 1190 672 1190 c 0
 603.371003136 1190 555 1240.43807939 555 1312 c 0
 555 1377.69613375 603.370944987 1424 672 1424 c 0
EndSplineSet
Layer: 3
SplineSet
709 58.7919828213 m 1
 709 -172 l 0
 709 -208.977124442 708.484826466 -246.610339316 700.099990725 -283.306117057 c 0
 691.714927531 -319.606591095 675.461642744 -354.446787397 651.049628282 -383.22315815 c 0
 626.643388685 -411.956993705 594.605984475 -434.129955978 559.293317881 -448.086477886 c 0
 523.898124732 -462.129560486 485.71279677 -467.986544628 447.729768683 -468.00009819 c 0
 404.707009609 -468.00009819 362.082405198 -460.708211042 320.73583225 -450 c 0
 285.082365059 -440.738587335 250.161232969 -428.862564484 216.105215553 -415 c 0
 183.760306716 -401.827599543 152.188471196 -386.785440374 121.585300059 -370 c 0
 114.641060478 -366.170116187 l 1
 709 58.7919828213 l 1
EndSplineSet
Layer: 4
Substitution2: "'ss11' Style Set 11 lookup 10 subtable" j.long
Substitution2: "'ss07' Style Set 7 lookup 6 subtable" j.flyingdot
EndChar
StartChar: k
Encoding: 107 107 11
GlifName: k
Width: 1024
VWidth: 0
Flags: W
HStem: 0 21G<251 389 830.971 1011> 1004 20G<772.578 967> 1388 20G<251 389>
VStem: 251 138<0 438 609 1408>
AnchorPoint: "bottom" 640 0 basechar 0
LayerCount: 5
Back
Fore
SplineSet
389 438 m 1
 389 0 l 1
 251 0 l 1
 251 1408 l 1
 389 1408 l 1
 389 609 l 1
 792 1024 l 1
 967 1024 l 1
 598 643 l 1
 1011 0 l 1
 843 0 l 1
 508 557 l 1
 389 438 l 1
EndSplineSet
Validated: 1
Layer: 2
SplineSet
330 346.928932188 m 1
 322.928932188 354 l 1
 1107 1134.53553391 l 1
 1114.07106781 1127.46446609 l 1
 516.071067812 533 l 1
 1467.07106781 -414.464466094 l 1
 1460 -421.535533906 l 1
 509 525.928932188 l 1
 330 346.928932188 l 1
EndSplineSet
Layer: 3
Layer: 4
EndChar
StartChar: l
Encoding: 108 108 12
GlifName: l
Width: 1024
VWidth: 0
Flags: W
HStem: -11 130<672.898 901> 1388 20G<507 645>
VStem: 507 138<157.693 1408>
AnchorPoint: "bottom" 704 0 basechar 0
AnchorPoint: "top" 576 1408 basechar 0
LayerCount: 5
Back
Fore
SplineSet
901 -11 m 5
 896 -11 l 6
 858 -13 813 -16 758 -16 c 4
 685 -16 624 9 581 53 c 5
 507 129 507 221 507 282 c 4
 507 1408 l 5
 645 1408 l 5
 645 283 l 4
 645 236 645 192 672 156 c 4
 691 131 720 114 768 114 c 4
 810 114 860 116 896 119 c 4
 901 119 l 5
 901 -11 l 5
EndSplineSet
Validated: 1
Layer: 2
SplineSet
768 433 m 0
 883.725365592 433 965 351.919221974 965 236 c 0
 965 123.023859506 883.726348896 44 768 44 c 0
 652.274634408 44 571 123.022890259 571 236 c 0
 571 351.918227486 652.273651104 433 768 433 c 0
EndSplineSet
Layer: 3
SplineSet
571 517 m 1
 581 517 l 1
 581 279 l 0
 581 250.371402179 581.275650296 221.852146779 586.696901563 194.323005786 c 0
 592.116592367 167.226218648 602.82405273 141.033585816 619.643700933 119.143504231 c 0
 636.460927597 97.3584530677 659.36831828 80.0132482965 685.172241976 69.2049111967 c 0
 710.916798735 58.3695749581 739.391774691 53.9999099414 767.777448423 53.9999099414 c 0
 788.285082029 53.9999099414 808.790190591 56.1187102743 829.320808658 58.9073102548 c 0
 851.312273698 61.9104555781 873.220984251 65.6306854886 895.054256066 69.8194843878 c 0
 916.419191473 73.9193855039 937.682412386 78.5455341705 958.913059941 83.714149123 c 0
 963.770134502 84.9010891822 l 1
 966.144014621 75.1869400592 l 1
 961.286940059 74 l 0
 939.89725827 68.792520106 918.472540391 64.1310793954 896.945743934 60 c 0
 874.972320685 55.7841775865 852.886230226 52.0326810473 830.679191342 49 c 0
 809.939276143 46.1824833038 788.979680377 43.9999099414 767.777448423 43.9999099414 c 0
 738.357135961 43.9999099414 708.519047205 48.5141406119 681.204630604 60.0256922758 c 0
 653.813394044 71.5202472042 629.532944499 89.926914595 611.636310737 113.153370488 c 0
 593.742098516 136.473647771 582.538456295 164.088939367 576.881273065 192.411609125 c 0
 571.225650298 221.137966826 571 250.316569511 571 279 c 0
 571 517 l 1
EndSplineSet
Layer: 4
Substitution2: "'ss09' Style Set 9 lookup 8 subtable" l.base
Substitution2: "'ss08' Style Set 8 lookup 7 subtable" l.zstyle
EndChar
StartChar: m
Encoding: 109 109 13
GlifName: m
Width: 1024
VWidth: 0
Flags: W
HStem: 0 21G<123 261 507 645 891 1029> 910 130<306.049 479.946 672.234 863.788> 1004 20G<123 261>
VStem: 123 138<0 883.14 949 1024> 507 138<0 883.14> 891 138<0 882.685>
CounterMasks: 1 1c
LayerCount: 5
Back
Fore
SplineSet
263 949 m 1xbc
 304 1008 353 1040 414 1040 c 0
 497 1040 561 994 598 933 c 1
 653 1002 717 1040 798 1040 c 0
 876 1040 938 1004 976 953 c 0
 1029 882 1029 811 1029 728 c 0
 1029 0 l 1
 891 0 l 1
 891 727 l 0
 891 794 890 839 862 871 c 0
 842 894 810 910 768 910 c 0
 726 910 694 894 674 871 c 0
 646 839 645 794 645 727 c 0
 645 0 l 1
 507 0 l 1
 507 727 l 0
 507 794 506 839 478 871 c 0
 458 894 426 910 384 910 c 0xdc
 342 910 310 894 290 871 c 0
 262 839 261 794 261 727 c 0
 261 0 l 1
 123 0 l 1
 123 1024 l 1
 261 1024 l 1
 261 949 l 1
 263 949 l 1xbc
EndSplineSet
Validated: 1
Layer: 2
SplineSet
384 980 m 0
 499.72515648 980 581 900.976905909 581 788 c 0
 581 672.081981631 499.726139761 591 384 591 c 0
 268.27484352 591 187 672.080987166 187 788 c 0
 187 900.975936685 268.273860239 980 384 980 c 0
EndSplineSet
Layer: 3
SplineSet
187 1024 m 1
 197 1024 l 1
 197 852.859783852 l 1
 204.170160402 875.982870859 215.945379474 897.821608852 232.167447829 916.241767246 c 0
 250.746810361 937.340546049 274.707126992 953.657302104 300.982926224 964.263761507 c 0
 327.239342507 974.905451214 355.673527187 980.000000001 384 980 c 0
 412.326481062 980 440.760652482 974.905453244 467.017073777 964.263761504 c 0
 493.29289471 953.65729334 517.253178156 937.340559084 535.83255217 916.24176724 c 0
 554.423716751 895.125461512 567.174366796 869.517801628 573.84629569 842.632342795 c 0
 580.519661903 815.368646664 581 787.379830194 581 760 c 2
 581 0 l 1
 571 0 l 1
 571 760 l 2
 571 787.262582936 570.456275239 814.432350582 564.12539759 840.286252402 c 0
 557.793082622 865.761299955 545.696369733 889.939123453 528.236580256 909.73782915 c 0
 510.765000214 929.545563324 488.100433454 944.986577174 463.182934627 955.027995321 c 0
 438.24603616 965.122670676 411.102942712 970 384 970 c 0
 356.897049039 970.000000001 329.753968853 965.122672707 304.817065374 955.027995324 c 0
 279.899544844 944.986568432 257.235011269 929.545576348 239.763419743 909.737829156 c 0
 222.303645275 889.939140476 210.206910555 865.761272515 203.874602409 840.286252405 c 0
 197.543727582 814.432362101 197 787.262561033 197 760 c 2
 197 0 l 1
 187 0 l 1
 187 760 l 1
 187 1024 l 1
EndSplineSet
Layer: 4
Substitution2: "Single Substitution lookup 51 subtable" larsenwork
Substitution2: "Single Substitution lookup 50 subtable" mm
EndChar
StartChar: n
Encoding: 110 110 14
GlifName: n
Width: 1024
VWidth: 0
Flags: W
HStem: 0 21G<251 389 763 901> 910 130<473.364 698.7> 1004 20G<251 389>
VStem: 251 138<0 847.65 912 1024> 763 138<0 843.876>
AnchorPoint: "top" 576 1024 basechar 0
LayerCount: 5
Back
Fore
SplineSet
391 912 m 1xb8
 441 989 519 1040 596 1040 c 0
 698 1040 780 995 831 932 c 0
 901 845 901 749 901 656 c 0
 901 0 l 1
 763 0 l 1
 763 655 l 0
 763 741 763 800 719 850 c 0
 688 885 639 910 576 910 c 0xd8
 513 910 464 885 433 850 c 0
 389 800 389 741 389 655 c 0
 389 0 l 1
 251 0 l 1
 251 1024 l 1
 389 1024 l 1
 389 912 l 1
 391 912 l 1xb8
EndSplineSet
Validated: 1
Layer: 2
SplineSet
576 980 m 0
 729.425086494 980 837 874.736745852 837 724 c 0
 837 570.319551645 729.425456761 463 576 463 c 0
 422.574913506 463 315 570.319177081 315 724 c 0
 315 874.736378463 422.574543239 980 576 980 c 0
EndSplineSet
Layer: 3
SplineSet
837 0 m 1
 827 0 l 1
 827 687 l 2
 827 723.479356889 826.283562743 759.95203237 817.776068274 794.758638182 c 0
 809.267146382 829.187883271 793.013499987 861.872708384 769.53547106 888.650293016 c 0
 746.045444815 915.43798415 715.60791745 936.284418269 682.166969081 949.835668636 c 0
 648.706696765 963.440176571 612.321070187 970.000000001 576 970 c 0
 539.679058633 970 503.293221216 963.440143222 469.833030918 949.835668632 c 0
 436.392310895 936.284510797 405.954461714 915.437877551 382.464528941 888.650293008 c 0
 358.986376162 861.87256712 342.732923733 829.188166964 334.223931727 794.758638178 c 0
 330.161874896 778.222593313 327.870489525 761.311483093 326.590177574 744.196829593 c 0
 325.189127633 725.290313511 325 706.14219077 325 687 c 2
 325 5 l 2
 324 0 315 -1 315 0 c 2
 315 687 l 1
 315 1024 l 1
 325 1024 l 1
 325 799.074620545 l 1
 334.108933362 837.388091392 350.922352813 874.136716568 374.874331509 904 c 0
 399.473664492 928.195636728 431.207970789 946.912023493 466.005807942 959.074302963 c 0
 500.78417482 973.224270364 538.458772205 980 576 980 c 0
 613.541098975 980.000000001 651.215907197 973.224236996 685.994192057 959.074302967 c 0
 720.791800864 946.912103306 752.526428977 928.195544794 777.125668492 904 c 0
 801.736905321 873.371370212 818.646314188 836.180684355 827.49598965 797.108771891 c 0
 836.347092535 760.888025985 837 723.594487071 837 687 c 2
 837 0 l 1
EndSplineSet
Layer: 4
EndChar
StartChar: o
Encoding: 111 111 15
GlifName: o
Width: 1024
VWidth: 0
Flags: W
HStem: -16 130<448.971 703.029> 910 130<448.971 703.029>
VStem: 219 138<219.709 804.291> 795 138<219.709 804.291>
AnchorPoint: "bottom" 576 0 basechar 0
AnchorPoint: "top" 576 1024 basechar 0
LayerCount: 5
Back
Fore
SplineSet
285 879 m 1
 347 977 447 1040 576 1040 c 0
 705 1040 805 977 867 879 c 1
 924 786 933 661 933 512 c 0
 933 363 924 238 867 145 c 1
 805 47 705 -16 576 -16 c 0
 447 -16 347 47 285 145 c 1
 228 238 219 363 219 512 c 0
 219 661 228 786 285 879 c 1
748 816 m 0
 714 873 658 910 576 910 c 0
 494 910 438 873 404 816 c 0
 359 741 357 628 357 512 c 0
 357 396 359 283 404 208 c 0
 438 151 494 114 576 114 c 0
 658 114 714 151 748 208 c 0
 793 283 795 396 795 512 c 0
 795 628 793 741 748 816 c 0
EndSplineSet
Validated: 1
Layer: 2
SplineSet
576 980 m 0
 748.275054821 980 869 861.616913135 869 692 c 0
 869 621.859118427 849.054227626 560.329878884 813.808146928 511.999999761 c 1
 849.054228457 463.670118881 869 402.140878261 869 332 c 0
 869 162.383071627 748.275039499 44 576 44 c 0
 403.724945179 44 283 162.383086865 283 332 c 0
 283 402.140881573 302.945772374 463.670121116 338.191853072 512.000000239 c 1
 302.945771543 560.329881119 283 621.859121739 283 692 c 0
 283 861.616928373 403.724960501 980 576 980 c 0
EndSplineSet
Layer: 3
SplineSet
576 970 m 0
 567.448513447 970 558.902785094 969.687310083 550.390652179 969.030568547 c 0
 501.407444763 965.269077054 453.221483036 948.723299407 414.401661979 919.553130214 c 0
 375.560062761 890.301602009 346.526086316 849.258477991 328.19470756 804.367903494 c 0
 309.850881124 759.213490394 301.517994364 710.422861982 297.425748863 661.499562523 c 0
 293.331554635 611.915373266 293 561.984293866 293 512 c 0
 293 462.015712516 293.33155498 412.084622588 297.425748866 362.500437476 c 0
 301.517982965 313.57727433 309.850921634 264.786409899 328.194707565 219.632096504 c 0
 346.525948255 174.741860107 375.560273177 133.698239529 414.401661982 104.446869786 c 0
 453.221658608 75.2765686655 501.407078795 58.7309510492 550.390652179 54.9694314531 c 0
 558.902785094 54.3126899172 567.448513447 54 576 54 c 0
 584.551486553 54 593.097214906 54.3126899172 601.609347821 54.9694314531 c 0
 650.592555237 58.7309229458 698.778516964 75.2767005937 737.598338021 104.446869786 c 0
 776.439937239 133.698397991 805.473913684 174.741522009 823.80529244 219.632096506 c 0
 842.149118876 264.786509606 850.482005636 313.577138018 854.574251137 362.500437477 c 0
 858.668445365 412.084626734 859 462.015706134 859 512 c 0
 859 561.984287484 858.66844502 611.915377412 854.574251134 661.499562524 c 0
 850.482017035 710.42272567 842.149078366 759.213590101 823.805292435 804.367903496 c 0
 805.474051745 849.258139893 776.439726823 890.301760471 737.598338018 919.553130214 c 0
 698.778341392 948.723431335 650.592921205 965.269048951 601.60934782 969.030568547 c 0
 593.097214906 969.687310083 584.551486553 970 576 970 c 0
EndSplineSet
Layer: 4
EndChar
StartChar: p
Encoding: 112 112 16
GlifName: p
Width: 1024
VWidth: 0
Flags: W
HStem: -16 130<484.393 702.174> 910 130<484.766 702.174> 1004 20G<251 389>
VStem: 251 138<-384 125 225.659 798.341 899 1024> 795 138<225.939 798.061>
LayerCount: 5
Back
Fore
SplineSet
905 222 m 0xd8
 857 72 745 -16 612 -16 c 0
 527 -16 450 34 391 125 c 1
 389 125 l 1
 389 -384 l 1
 251 -384 l 1
 251 1024 l 1
 389 1024 l 1xb8
 389 899 l 1
 391 899 l 1
 451 991 528 1040 612 1040 c 0
 745 1040 857 952 905 802 c 0
 933 712 933 623 933 512 c 0
 933 401 933 312 905 222 c 0xd8
415 261 m 0
 441 184 499 114 592 114 c 0
 685 114 743 184 769 261 c 0
 794 335 795 421 795 512 c 0
 795 603 794 689 769 763 c 0
 743 840 685 910 592 910 c 0xd8
 499 910 441 840 415 763 c 0
 390 689 389 603 389 512 c 0
 389 421 390 335 415 261 c 0
EndSplineSet
Validated: 1
Layer: 2
Layer: 3
Layer: 4
EndChar
StartChar: q
Encoding: 113 113 17
GlifName: q
Width: 1024
VWidth: 0
Flags: W
HStem: -16 130<449.826 667.234> 910 130<449.826 667.607> 1004 20G<763 901>
VStem: 219 138<225.939 798.061> 763 138<-384 125 225.659 798.341 899 1024>
LayerCount: 5
Back
Fore
SplineSet
761 125 m 1xb8
 701 33 624 -16 540 -16 c 0
 407 -16 295 72 247 222 c 0
 219 312 219 401 219 512 c 0
 219 623 219 712 247 802 c 0
 295 952 407 1040 540 1040 c 0xd8
 625 1040 702 990 761 899 c 1
 763 899 l 1
 763 1024 l 1
 901 1024 l 1
 901 -384 l 1
 763 -384 l 1
 763 125 l 1
 761 125 l 1xb8
383 261 m 0
 409 184 467 114 560 114 c 0
 653 114 711 184 737 261 c 0
 762 335 763 421 763 512 c 0
 763 603 762 689 737 763 c 0
 711 840 653 910 560 910 c 0
 467 910 409 840 383 763 c 0
 358 689 357 603 357 512 c 0
 357 421 358 335 383 261 c 0
EndSplineSet
Validated: 1
Layer: 2
Layer: 3
Layer: 4
EndChar
StartChar: r
Encoding: 114 114 18
GlifName: r
Width: 1024
VWidth: 0
Flags: W
HStem: 0 21G<251 389> 910 130<543.574 900.76> 1004 20G<251 389>
VStem: 251 138<0 737.02 865 1024>
AnchorPoint: "bottom" 384 0 basechar 0
AnchorPoint: "top" 576 1024 basechar 0
LayerCount: 5
Back
Fore
SplineSet
895 897 m 0xd0
 838 904 781 910 716 910 c 0xd0
 625 910 554 885 504 839 c 0
 389 735 389 588 389 475 c 0
 389 0 l 1
 251 0 l 1
 251 1024 l 1
 389 1024 l 1xb0
 389 865 l 1
 391 865 l 1
 467 967 560 1040 716 1040 c 0
 782 1040 840 1034 897 1027 c 0
 901 1026 l 1
 901 896 l 1
 895 897 l 0xd0
EndSplineSet
Validated: 1
Layer: 2
SplineSet
686 980 m 0
 886.549998826 980 1027 841.938048444 1027 644 c 0
 1027 446.086444003 887.396693643 308 688 308 c 0
 468.978194841 308 315 445.691037025 315 644 c 0
 315 842.286842338 468.133649027 980 686 980 c 0
EndSplineSet
Layer: 3
SplineSet
315 1536 m 1
 325 1536 l 1
 325 545.363270769 l 2
 324.89910214 539.866773611 324.850230634 534.371717602 324.850230634 528.881047982 c 0
 324.850230634 523.277260245 324.901033639 517.678444829 324.999228922 512.087807648 c 0
 324.999228922 512.073192167 325 512.058576653 325 512.043961106 c 2
 325 4 l 1
 315 4 l 1
 315 1536 l 1
695.474058065 970.000760426 m 0
 665.487861748 970.000760426 637.489468084 967.764307459 608.970358899 962.190126686 c 0
 561.081706405 952.863813636 515.090728415 933.564718609 476.178338519 904.745732385 c 0
 437.255424139 875.893926733 405.554551958 837.862386828 382.481712116 795.429938992 c 0
 341.489454596 719.631175265 326.611226672 632.315191485 325 545.363270769 c 2
 325 512.043961106 l 2
 326.718641373 415.247233086 342.538976749 316.971560443 388.087021697 232.096471027 c 0
 410.846230898 189.929812577 441.469574631 151.721039676 479.236735528 122.083003323 c 0
 516.993617305 92.5101850631 561.859743752 71.8080663591 609.055796176 61.7745167521 c 0
 633.931303744 56.4774527814 659.432233363 53.9985646322 684.937384869 53.9985646322 c 0
 685.287088814 53.9985646322 685.636793186 53.9990312269 685.986496367 53.9999635303 c 0
 711.835886928 54.0688732372 737.680561956 56.6662994404 762.994535592 61.7957217855 c 0
 860.069651137 81.4353260113 948.903368175 141.741706788 997.945517106 226.393464436 c 0
 1026.28268975 275.275201836 1040.80179148 331.669712575 1040.80179148 387.997711916 c 0
 1040.80179148 429.757442568 1033.06346885 471.461560313 1017.36731519 510.118981275 c 2
 1017.08861645 510.805377116 l 1
 978.349112766 928.101274586 l 1
 941.280570887 936.862378217 905.848694956 944.405661138 869.0936018 951.1656841 c 0
 838.658986585 956.755105783 808.117765663 961.623266502 777.440858673 965.062724523 c 0
 750.332393772 968.094099295 722.811452292 970.000760426 695.474058065 970.000760426 c 0
EndSplineSet
Layer: 4
SplineSet
251 1024 m 1
 389 1024 l 1
 389 924.220807436 l 1
 402.683437801 937.702410109 415.279210651 948.515846247 430.111194853 959.532226562 c 0
 478.659214165 995.596261872 535.259758507 1019.26969673 593.815842834 1030.70703125 c 0
 628.387122931 1037.47663736 661.162696941 1039.94644056 695.517578125 1040.00097656 c 0
 727.3532876 1040.00097656 756.667887337 1037.87578988 786.187185431 1034.57226562 c 0
 819.275559426 1030.8609146 851.615492456 1025.68368818 883.254991084 1019.87207031 c 0
 887.821282529 1019.03240647 892.382684913 1018.17770548 896.93919366 1017.30839641 c 0
 901 1016.53179612 l 1
 901 883.638441838 l 1
 894.997609616 884.866725909 l 0
 882.252833075 887.468192177 869.501895189 889.946591871 856.744808325 892.292696462 c 0
 827.362104003 897.68885537 798.385361518 902.287270884 769.812873934 905.490471289 c 0
 744.375453279 908.333562367 720.324733749 910.000982957 695.634950207 910.000982957 c 0
 669.007216085 909.959006382 645.544652888 908.038443831 622.184290376 903.483120874 c 0
 583.59798075 895.998431062 546.816356577 880.507374124 516.234459799 857.950336329 c 0
 485.500212067 835.243052732 459.10891149 804.128043193 439.672979327 768.500272177 c 0
 404.806313272 704.098070128 390.568478936 625.858953825 389 544.619285278 c 1
 389 0 l 1
 251 0 l 1
 251 1024 l 1
EndSplineSet
Substitution2: "'ss09' Style Set 9 lookup 8 subtable" r.base
EndChar
StartChar: s
Encoding: 115 115 19
GlifName: s
Width: 1024
VWidth: 0
Flags: W
HStem: -16 130<251.078 724.696> 6 129<251 570.573> 910 130<419.742 890.93>
VStem: 229 138<657.517 856.667> 795 138<179.492 403.759>
AnchorPoint: "bottom" 704 0 basechar 0
AnchorPoint: "top" 576 1024 basechar 0
LayerCount: 5
Back
Fore
SplineSet
229 758 m 0xb8
 229 946 387 1040 575 1040 c 0
 693 1040 793 1029 887 1019 c 0
 891 1018 l 1
 891 889 l 1
 886 889 l 0
 791 898 684 910 575 910 c 0
 459 910 367 867 367 757 c 0
 367 692 407 645 456 623 c 0
 546 582 657 605 761 558 c 0
 854 516 933 420 933 293 c 0
 933 105 776 -16 576 -16 c 0xb8
 460 -16 358 -3 256 6 c 0
 251 6 l 1
 251 135 l 1
 256 135 l 0x78
 356 126 466 114 576 114 c 0
 702 114 795 178 795 294 c 0
 795 367 753 420 701 444 c 0
 613 485 500 462 396 508 c 0
 308 547 229 637 229 758 c 0xb8
EndSplineSet
Validated: 1
Layer: 2
SplineSet
576 980 m 0
 741.042457889 980 859 898.575529633 859 779 c 0
 859 673.054642481 770.841842555 596.331617116 640.316896015 577.485707261 c 1
 777.379783557 553.184419913 868.999999998 450.62588424 869 311 c 0
 869 153.46565298 747.960521999 44 576 44 c 0
 404.039646817 44 283 153.465216312 283 311 c 0
 283 450.625525926 374.620126359 553.184361494 511.68313871 577.485702919 c 1
 381.158177401 596.331607171 293.000000051 673.054644802 293 778.999999998 c 0
 293 898.575542513 410.95753508 980 576 980 c 0
EndSplineSet
Layer: 3
SplineSet
133.965918449 114.173819422 m 1
 136.313557293 123.89434368 l 1
 141.173819422 122.720524258 l 0
 186.859221147 111.704480609 232.810771689 101.775723988 278.95450771 92.8160918968 c 0
 328.392192727 83.2145197383 377.985409016 74.4492635105 427.752218711 66.8861857175 c 0
 473.955776845 59.8858467436 520.333384675 53.9187396477 566.684503277 53.9187396477 c 0
 569.760452998 53.9187396477 572.836303272 53.944837772 575.912010372 53.9984514452 c 0
 614.414182332 54.6658910743 652.931661246 59.9259956421 689.000882696 72.410219026 c 0
 725.056695212 84.8301632196 758.554365003 104.649486455 785.461701287 131.065533871 c 0
 833.430958123 178.193078351 859.004774862 245.19952889 859.004774862 312.660323432 c 0
 859.004774862 357.978309322 848.134896556 403.456180563 826.009328982 442.823500158 c 0
 803.641765924 482.62139463 769.267714135 515.550021376 728.700547234 536.560121964 c 0
 683.253069016 560.097779674 631.160132213 568.435622018 579.330130485 573.600275774 c 0
 527.460293246 578.76889898 473.932507343 582.255762429 424.209064717 601.331750777 c 0
 387.757876854 615.315948133 353.974459932 637.916991791 329.927254827 669.118320077 c 0
 306.407305632 699.635532071 292.979869429 737.871656601 292.979869429 776.456152707 c 0
 292.979869429 808.207777249 302.090233977 838.261421038 318.148457154 864.896442057 c 0
 333.785232031 890.937186693 355.817549398 912.988049969 381.167366356 930 c 0
 436.541720722 967.411608879 505.317130255 980.017443723 571.771003965 980.017443723 c 0
 573.195407111 980.017443723 574.618834661 980.011590084 576.041137965 980 c 0
 619.028546396 979.648343702 661.740812905 974.363530266 703.865797043 967 c 0
 745.305170614 959.729291502 786.284855412 950.444684175 827.128671229 941 c 0
 868.496952129 931.414684503 909.806173137 921.638410585 951.233078977 912 c 0
 956.10300013 910.866921023 l 1
 953.836842175 901.127078718 l 1
 948.966921023 902.260157695 l 0
 907.515439771 911.904285987 866.209095215 921.679865745 824.871328771 931.258110808 c 0
 784.056552898 940.695999654 743.250727938 949.937059775 702.134202957 957.151061889 c 0
 660.339646883 964.456338781 618.175258136 969.655012748 575.958862035 970.000338472 c 0
 574.563748295 970.011704832 573.167744335 970.017443723 571.771003965 970.017443723 c 0
 506.516483215 970.017443723 439.85201382 957.557563112 386.832633644 921.759566361 c 0
 362.570773692 905.497686586 341.583323847 884.469386729 326.775681744 859.839664834 c 0
 311.540839877 834.612869156 302.979869429 806.333818912 302.979869429 776.456152707 c 0
 302.979869429 740.182499613 315.657110768 704.015316463 337.847825513 675.222790569 c 0
 360.546743512 645.770869271 392.746142246 624.112894813 427.790935283 610.668249223 c 0
 475.649850905 592.307571271 528.189494358 588.745761008 580.321680203 583.550995806 c 0
 632.493701559 578.352261154 685.938310798 569.968639414 733.299452766 545.439878036 c 0
 775.593201775 523.535565046 811.375086228 489.272023842 834.726838992 447.722991888 c 0
 857.77829819 406.708262737 869.004774862 359.560019234 869.004774862 312.660323432 c 0
 869.004774862 242.783235095 842.601179111 173.219607414 792.538298713 124 c 0
 764.465839699 96.4189113935 729.673401378 75.8539003776 692.31632091 62.9758208232 c 0
 654.972649378 50.0446877976 615.387838546 44.6815731021 576.087989628 44 c 0
 572.95208524 43.9453269849 569.817565848 43.9187396477 566.684503277 43.9187396477 c 0
 519.472603379 43.9187396477 472.595414205 49.9775651782 426.247781289 57 c 0
 376.321735912 64.587304499 326.593832299 73.3769018928 277.04549229 83 c 0
 230.764011011 91.9864234677 184.666161489 101.946626759 138.826180578 113 c 0
 133.965918449 114.173819422 l 1
EndSplineSet
Layer: 4
EndChar
StartChar: u
Encoding: 117 117 21
GlifName: u
Width: 1024
VWidth: 0
Flags: W
HStem: -16 130<453.3 678.636> 0 21G<763 901> 1004 20G<251 389 763 901>
VStem: 251 138<180.124 1024> 763 138<0 112 176.35 1024>
AnchorPoint: "bottom" 832 0 basechar 0
AnchorPoint: "top" 576 1024 basechar 0
LayerCount: 5
Back
Fore
SplineSet
761 112 m 1x78
 711 35 633 -16 556 -16 c 0
 454 -16 372 29 321 92 c 0
 251 179 251 275 251 368 c 0
 251 1024 l 1
 389 1024 l 1
 389 369 l 0
 389 283 389 224 433 174 c 0
 464 139 513 114 576 114 c 0xb8
 639 114 688 139 719 174 c 0
 763 224 763 283 763 369 c 0
 763 1024 l 1
 901 1024 l 1
 901 0 l 1
 763 0 l 1
 763 112 l 1
 761 112 l 1x78
EndSplineSet
Validated: 1
Layer: 2
Layer: 3
Layer: 4
EndChar
StartChar: v
Encoding: 118 118 1
GlifName: v
Width: 1024
VWidth: 0
Flags: W
HStem: 0 21G<514 638> 1004 20G<198 340 812 954>
LayerCount: 5
Back
Fore
SplineSet
574 168 m 1
 578 168 l 1
 689 441 756 727 812 1020 c 0
 813 1024 l 1
 954 1024 l 1
 953 1018 l 0
 886 672 797 325 638 3 c 0
 637 -0 l 1
 515 0 l 1
 514 3 l 0
 355 325 266 672 199 1018 c 0
 198 1024 l 1
 339 1024 l 1
 340 1020 l 0
 396 727 464 437 574 168 c 1
EndSplineSet
Validated: 1
Layer: 2
SplineSet
202.155899123 1347.06833174 m 1
 211.980764366 1348.93166826 l 1
 267.912432622 1058 l 0
 334.509283725 707.920047363 421.003990765 358.376479961 576 38.6129030818 c 1
 731.805361071 360.046208358 817.454588133 707.730132406 884.087567378 1058 c 0
 940.019235634 1348.93166826 l 1
 949.844100877 1347.06833174 l 1
 893.912432622 1056.13666349 l 0
 826.606275357 702.322460274 739.290706291 349.049546772 580.492501819 25 c 0
 576 15.8046358223 l 1
 571.507498181 25 l 0
 412.709293581 349.049547033 325.393724702 702.322459964 258.087567378 1056.13666349 c 0
 202.155899123 1347.06833174 l 1
EndSplineSet
Layer: 3
Layer: 4
EndChar
StartChar: w
Encoding: 119 119 22
GlifName: w
Width: 1024
VWidth: 0
Flags: W
HStem: 0 21G<253 421.417 730.583 899> 1004 20G<104 242 910 1048>
VStem: 104 138<573.076 1024> 910 138<573.076 1024>
AnchorPoint: "top" 576 1024 basechar 0
LayerCount: 5
Back
Fore
SplineSet
346 140 m 1
 510 767 l 1
 642 767 l 1
 806 140 l 1
 808 140 l 1
 879 413 910 714 910 1019 c 0
 910 1024 l 1
 1048 1024 l 1
 1048 1019 l 0
 1048 678 998 340 899 4 c 0
 898 -0 l 1
 736 0 l 1
 577 587 l 1
 575 587 l 1
 416 0 l 1
 254 0 l 1
 253 4 l 0
 154 340 104 678 104 1019 c 0
 104 1024 l 1
 242 1024 l 1
 242 1019 l 0
 242 714 274 411 344 140 c 1
 346 140 l 1
EndSplineSet
Validated: 1
Layer: 2
SplineSet
1070.17982612 1125.06507152 m 1
 1079.95031692 1122.93492848 l 1
 832.401970883 -6.38299404807 l 1
 576 987.687639116 l 1
 319.598029117 -6.38299404807 l 1
 72.0496830756 1122.93492848 l 1
 81.8201738834 1125.06507152 l 1
 320.401970883 36.8747086506 l 1
 576 1027.82064628 l 1
 831.598029117 36.8747086506 l 1
 1070.17982612 1125.06507152 l 1
EndSplineSet
Layer: 3
Layer: 4
Substitution2: "'ss10' Style Set 10 lookup 9 subtable" w.straight
EndChar
StartChar: x
Encoding: 120 120 23
GlifName: x
Width: 1024
VWidth: 0
Flags: W
HStem: 0 21G<150 340.893 811.107 1002> 1004 20G<172 362.737 789.263 980>
LayerCount: 5
Back
Fore
SplineSet
351 1024 m 1
 574 644 l 1
 578 644 l 1
 801 1024 l 1
 980 1024 l 1
 655 549 l 1
 655 542 l 1
 1002 -0 l 1
 822 0 l 1
 578 448 l 1
 574 448 l 1
 330 -0 l 1
 150 0 l 1
 497 542 l 1
 497 549 l 1
 172 1024 l 1
 351 1024 l 1
EndSplineSet
Validated: 1
Layer: 2
SplineSet
128.936868966 -147.035929815 m 1
 120.991271403 -140.964070185 l 1
 633.707207091 526 l 1
 120.991271403 1192.96407018 l 1
 128.936868966 1199.03592982 l 1
 131.972798781 1196 l 1
 132.579984744 1198.24137006 132.972798781 1199.03592982 131.972798781 1194.03592982 c 1
 640 534.23470947 l 1
 1151.06313103 1199.03592982 l 1
 1159.0087286 1192.96407018 l 1
 646.292792909 526 l 1
 1159.0087286 -140.964070185 l 1
 1151.06313103 -147.035929815 l 1
 640 517.76529053 l 1
 131.972798781 -142.035929815 l 1
 132.972798781 -147.035929815 131.365612818 -147.830489571 131.972798781 -144 c 1
 128.936868966 -147.035929815 l 1
EndSplineSet
Layer: 3
Layer: 4
EndChar
StartChar: y
Encoding: 121 121 24
GlifName: y
Width: 1024
VWidth: 0
Flags: W
HStem: -272 130<251 448.27> 1004 20G<198 340 813 955>
AnchorPoint: "top" 576 1024 basechar 0
LayerCount: 5
Back
Fore
SplineSet
598 240 m 1
 601 240 l 1
 685 497 749 754 813 1020 c 0
 814 1024 l 1
 955 1024 l 1
 954 1018 l 0
 874 695 812 429 681 56 c 0
 645 -46 612 -141 549 -192 c 1
 493 -239 411 -272 256 -272 c 0
 251 -272 l 1
 251 -142 l 1
 256 -142 l 0
 338 -142 416 -128 449 -102 c 1
 494 -70 515 -11 562 118 c 1
 514 118 l 1
 513 120 l 0
 356 406 268 714 199 1018 c 0
 198 1024 l 1
 339 1024 l 1
 340 1020 l 0
 399 751 474 485 598 240 c 1
EndSplineSet
Validated: 1
Layer: 2
SplineSet
202.155899123 1347.06833174 m 1
 211.980764366 1348.93166826 l 1
 267.912432622 1058 l 0
 339.959216409 679.237829187 436.712084269 299.798028563 614.944547383 -39.9394864785 c 1
 733.270440193 318.47699423 813.582992325 687.345482255 884.087567378 1058 c 0
 940.019235634 1348.93166826 l 1
 949.844100877 1347.06833174 l 1
 893.912432622 1056.13666349 l 0
 822.656267012 681.267613211 741.196681346 307.409586914 620.745859736 -55 c 0
 617.059437149 -65.3515014532 l 1
 611.580785871 -55 l 0
 428.347856894 290.188852129 330.963043535 673.011866009 258.087567378 1056.13666349 c 0
 202.155899123 1347.06833174 l 1
EndSplineSet
Layer: 3
SplineSet
202.155899123 1347.06833174 m 1
 211.980764366 1348.93166826 l 1
 267.912432622 1058 l 0
 339.696092008 680.554547619 431.546778414 304.337515549 595.523130327 -42.7379385059 c 0
 597.525954777 -44.7375985679 l 1
 107.688325032 -313.31561695 l 1
 156.33684163 -324.538954824 206.115465911 -329.999685466 256.012087682 -330.000000077 c 0
 309.911122527 -330.000000077 364.029265973 -325.429726035 415.673828132 -311.358160305 c 0
 442.74669099 -304.086901902 468.911819237 -293.306859245 490.985637259 -277.021624911 c 0
 516.694868211 -258.02178377 536.287531494 -231.672583221 551.577908174 -203.333050726 c 0
 576.910243264 -155.569554828 594.107743367 -103.703226273 611.250561212 -51.8740881681 c 0
 730.64435135 310.136654297 816.641075725 682.733553613 884.078492706 1058 c 0
 936.960969876 1348.88247717 l 1
 946.803984464 1347.11752283 l 1
 893.921507294 1056.23504566 l 0
 826.426527181 680.647268596 740.334508922 307.591693759 620.749438788 -55 c 0
 603.608150323 -106.827156406 586.275520656 -159.251509413 560.422091826 -208 c 0
 544.697316844 -237.172225684 524.327030863 -264.796080019 497.014362741 -285 c 0
 473.598737157 -302.294068672 446.227149948 -313.498127424 418.326171868 -321 c 0
 365.491558961 -335.398400735 310.473375839 -340.000000077 256.012087682 -340.000000077 c 0
 201.053289135 -339.999653521 146.062509134 -333.446472321 92.7679496248 -320 c 0
 80.4802464101 -316.875855183 l 1
 584.477409861 -40.4957890708 l 1
 421.770237903 304.741040532 329.618559268 680.792092595 258.087567378 1056.13666349 c 0
 202.155899123 1347.06833174 l 1
EndSplineSet
Layer: 4
Substitution2: "'ss11' Style Set 11 lookup 10 subtable" y.long
EndChar
StartChar: z
Encoding: 122 122 25
GlifName: z
Width: 1024
VWidth: 0
Flags: W
HStem: 0 120<406 901> 904 120<271 726>
AnchorPoint: "top" 576 1024 basechar 0
LayerCount: 5
Back
Fore
SplineSet
726 904 m 1
 271 904 l 1
 271 1024 l 1
 881 1024 l 1
 881 928 l 1
 406 124 l 1
 406 120 l 1
 901 120 l 1
 901 0 l 1
 251 0 l 1
 251 98 l 1
 726 900 l 1
 726 904 l 1
EndSplineSet
Validated: 1
Layer: 2
Layer: 3
Layer: 4
EndChar
StartChar: braceleft
Encoding: 123 123 91
GlifName: braceleft
Width: 1024
VWidth: 0
Flags: W
HStem: -144 130<714.953 901> 638 130<251 437.047> 1420 130<715.339 901>
VStem: 507 138<52.209 572.935 833.065 1353.79>
CounterMasks: 1 e0
LayerCount: 5
Back
Fore
SplineSet
486 705 m 1
 486 701 l 1
 603 656 645 584 645 438 c 0
 645 187 l 0
 645 32 737 -14 896 -14 c 0
 901 -14 l 1
 901 -144 l 1
 896 -144 l 0
 668 -144 507 -47 507 186 c 0
 507 437 l 0
 507 593 415 638 256 638 c 0
 251 638 l 1
 251 768 l 1
 256 768 l 0
 414 768 507 813 507 969 c 0
 507 1220 l 0
 507 1453 668 1550 896 1550 c 0
 901 1550 l 1
 901 1420 l 1
 896 1420 l 0
 738 1420 645 1374 645 1219 c 0
 645 968 l 0
 645 822 602 750 486 705 c 1
EndSplineSet
Validated: 1
Layer: 2
SplineSet
256.00666349 707.99999556 m 2
 334.12693558 707.895884732 414.22391107 691.350020739 480.677077601 649.22294394 c 0
 514.243787637 627.943786823 543.58433512 598.626467207 560.890412977 562.384897429 c 0
 569.536555522 544.27855462 575.072826354 524.830596065 577.948413955 505.091802582 c 0
 580.824677372 485.348370129 581 465.531608503 581 446 c 0
 581 61 l 0
 581 41.7723186498 581.200744373 22.6868097844 583.947129539 4.0706017875 c 0
 586.694188026 -14.2891884264 591.972944822 -32.2819121412 600.133529491 -48.9212266273 c 0
 616.441642452 -82.2187603915 644.358986718 -109.578902212 676.677077601 -129.554112121 c 0
 741.043463258 -169.804207478 819.235485353 -185.899085334 896.00666349 -186.00000888 c 1
 896.605676211 -196 l 1
 -292.79389285 -341.147066055 l 1
 252.960395525 708.004055319 l 1
 256.00666349 707.99999556 l 2
EndSplineSet
Layer: 3
Layer: 4
EndChar
StartChar: bar
Encoding: 124 124 92
GlifName: bar
Width: 1024
VWidth: 0
Flags: W
VStem: 507 138<-256 1536>
LayerCount: 5
Back
Fore
SplineSet
645 1536 m 1
 645 -256 l 1
 507 -256 l 1
 507 1536 l 1
 645 1536 l 1
EndSplineSet
Validated: 1
Layer: 2
Layer: 3
Layer: 4
Substitution2: "Single Substitution lookup 55 subtable" bar2
Substitution2: "Single Substitution lookup 54 subtable" bar1
EndChar
StartChar: braceright
Encoding: 125 125 93
GlifName: braceright
Width: 1024
VWidth: 0
Flags: W
HStem: -144 130<251 437.047> 638 130<714.953 901> 1420 130<251 436.661>
VStem: 507 138<52.209 572.935 833.065 1353.79>
CounterMasks: 1 e0
LayerCount: 5
Back
Fore
SplineSet
507 438 m 0
 507 584 550 656 666 701 c 1
 666 705 l 1
 549 750 507 822 507 968 c 0
 507 1219 l 0
 507 1374 414 1420 256 1420 c 0
 251 1420 l 1
 251 1550 l 1
 256 1550 l 0
 484 1550 645 1453 645 1220 c 0
 645 969 l 0
 645 813 738 768 896 768 c 0
 901 768 l 1
 901 638 l 1
 896 638 l 0
 737 638 645 593 645 437 c 0
 645 186 l 0
 645 -47 484 -144 256 -144 c 0
 251 -144 l 1
 251 -14 l 1
 256 -14 l 0
 415 -14 507 32 507 187 c 0
 507 438 l 0
EndSplineSet
Validated: 1
Layer: 2
Layer: 3
Layer: 4
EndChar
StartChar: tilde
Encoding: 126 126 94
GlifName: tilde
Width: 1024
VWidth: 0
Flags: W
HStem: 375 130<696.96 860.064> 647 130<291.936 455.04>
VStem: 123 138<379 619.977> 891 138<532.023 773>
LayerCount: 5
Back
Fore
SplineSet
261 384 m 0
 261 379 l 1
 123 379 l 1
 123 384 l 0
 123 603 160 777 375 777 c 0
 606 777 643 505 777 505 c 0
 885 505 891 594 891 768 c 0
 891 773 l 1
 1029 773 l 1
 1029 768 l 0
 1029 549 992 375 777 375 c 0
 546 375 509 647 375 647 c 0
 267 647 261 558 261 384 c 0
EndSplineSet
Validated: 1
Layer: 2
Layer: 3
Layer: 4
EndChar
StartChar: exclamdown
Encoding: 161 161 100
GlifName: exclamdown
Width: 1024
VWidth: 0
Flags: W
HStem: 870 298<468.5 683.5>
VStem: 427 298<911.5 1126.5> 497 158<-256 650>
LayerCount: 5
Back
Fore
SplineSet
427 1019 m 0xc0
 427 1107 488 1168 576 1168 c 0
 664 1168 725 1107 725 1019 c 0
 725 931 664 870 576 870 c 0
 488 870 427 931 427 1019 c 0xc0
507 650 m 1
 645 650 l 1
 655 -256 l 1
 497 -256 l 1xa0
 507 650 l 1
EndSplineSet
Validated: 1
Layer: 2
Layer: 3
Layer: 4
EndChar
StartChar: cent
Encoding: 162 162 528
GlifName: cent
Width: 1024
VWidth: 0
Flags: W
HStem: -16 120<645 900.906> 910 130<645 880.906>
VStem: 219 138<221.327 790.162> 507 138<-256 -16 1040 1280>
LayerCount: 5
Back
SplineSet
224 512 m 4
 224 633 226 738 267 831 c 4
 317 946 418 1040 606 1040 c 4
 709 1040 786 1032 876 1018 c 5
 876 898 l 5
 785 912 702 920 606 920 c 4
 486 920 427 872 387 789 c 4
 352 716 352 614 352 512 c 4
 352 410 352 308 387 235 c 4
 427 152 486 104 606 104 c 4
 706 104 796 114 896 130 c 5
 896 10 l 5
 797 -6 713 -16 606 -16 c 4
 418 -16 317 78 267 193 c 4
 226 286 224 391 224 512 c 4
EndSplineSet
Fore
SplineSet
262 186 m 0
 220 280 219 386 219 507 c 0
 219 625 222 729 259 821 c 0
 299 921 383 1006 507 1030 c 1
 507 1280 l 1
 645 1280 l 1
 645 1040 l 1
 724 1038 791 1032 877 1018 c 0
 881 1017 l 1
 881 887 l 1
 875 888 l 0
 762 905 676 910 592 910 c 0
 487 910 425 854 389 771 c 1
 358 701 357 605 357 507 c 0
 357 405 358 303 392 232 c 0
 430 151 490 104 596 104 c 0
 684 104 786 113 895 130 c 0
 901 131 l 1
 901 8 l 1
 897 7 l 0
 803 -6 720 -13 645 -16 c 1
 645 -256 l 1
 507 -256 l 1
 507 -13 l 1
 383 11 304 92 262 186 c 0
EndSplineSet
Validated: 1
Layer: 2
Layer: 3
Layer: 4
EndChar
StartChar: sterling
Encoding: 163 163 433
GlifName: sterling
Width: 1024
VWidth: 0
Flags: W
HStem: -5 130<123 251 389 901> 643 130<123 251 389 773> 1288 121<621.611 871> 1294 130<488.602 870.922>
VStem: 251 138<125 643 773 1185.34>
LayerCount: 5
Back
Fore
SplineSet
123 125 m 1xd8
 251 125 l 1
 251 643 l 1
 123 643 l 1
 123 773 l 1
 251 773 l 1
 251 895 l 0
 251 1015 253 1121 291 1214 c 0
 339 1330 447 1424 618 1424 c 0xd8
 695 1424 774 1418 866 1409 c 0
 871 1409 l 1
 871 1288 l 1
 866 1288 l 0xe8
 773 1291 689 1294 618 1294 c 0
 519 1294 456 1248 421 1167 c 0
 390 1096 389 996 389 895 c 0
 389 773 l 1
 773 773 l 1
 773 643 l 1
 389 643 l 1
 389 125 l 1
 901 125 l 1
 901 -5 l 1
 123 -5 l 1
 123 125 l 1xd8
EndSplineSet
Validated: 1
Layer: 2
Layer: 3
Layer: 4
EndChar
StartChar: currency
Encoding: 164 164 531
GlifName: currency
Width: 1024
VWidth: 0
Flags: W
HStem: 239 130<446.021 705.757> 783 130<446.243 705.979>
VStem: 235 138<441.889 710.442> 779 138<441.558 710.111>
LayerCount: 5
Back
SplineSet
576 848 m 4
 736.22479248 848 848 736.49041748 848 576 c 4
 848 415.50958252 736.22479248 304 576 304 c 4
 415.77520752 304 304 415.50958252 304 576 c 4
 304 736.49041748 415.77520752 848 576 848 c 4
EndSplineSet
Fore
SplineSet
779 576 m 0
 779 705 696 783 576 783 c 0
 456 783 373 705 373 576 c 0
 373 447 456 369 576 369 c 0
 696 369 779 447 779 576 c 0
291 767 m 1
 149 908 l 1
 244 1003 l 1
 386 860 l 1
 440 894 504 913 576 913 c 0
 648 913 713 893 766 860 c 1
 908 1003 l 1
 1003 908 l 1
 861 767 l 1
 897 713 917 647 917 576 c 0
 917 504 896 438 861 385 c 1
 1003 244 l 1
 908 149 l 1
 766 292 l 1
 712 258 648 239 576 239 c 0
 504 239 439 259 386 292 c 1
 244 149 l 1
 149 244 l 1
 291 385 l 1
 255 439 235 505 235 576 c 0
 235 648 256 714 291 767 c 1
EndSplineSet
Validated: 1
Layer: 2
SplineSet
576 778 m 0
 455.372250794 778 373 702.437925872 373 576 c 0
 373 446.437156223 455.358515851 369 576 369 c 0
 696.627770743 369 779 446.431450731 779 576 c 0
 779 702.433326957 696.642456103 778 576 778 c 0
576 908 m 0
 775.92060229 908 917 764.675958248 917 576 c 0
 917 387.330994187 775.93635223 244 576 244 c 0
 376.078418359 244 235 387.32405481 235 576 c 0
 235 764.669005813 376.06364777 908 576 908 c 0
EndSplineSet
Layer: 3
Layer: 4
EndChar
StartChar: yen
Encoding: 165 165 430
GlifName: yen
Width: 1024
VWidth: 0
Flags: W
HStem: -5 21G<507 645> 379 130<251 507 645 901> 643 130<251 386 766 901> 1388 20G<107 243 909 1045>
VStem: 507 138<-5 379 509 628>
LayerCount: 5
Back
Fore
SplineSet
108 1402 m 0
 107 1408 l 1
 242 1408 l 1
 243 1404 l 0
 308 1142 402 920 563 740 c 1
 589 740 l 1
 751 921 844 1142 909 1404 c 0
 910 1408 l 1
 1045 1408 l 1
 1044 1402 l 0
 995 1183 913 971 766 773 c 1
 901 773 l 1
 901 643 l 1
 659 643 l 1
 645 628 l 1
 645 509 l 1
 901 509 l 1
 901 379 l 1
 645 379 l 1
 645 -5 l 1
 507 -5 l 1
 507 379 l 1
 251 379 l 1
 251 509 l 1
 507 509 l 1
 507 628 l 1
 493 643 l 1
 251 643 l 1
 251 773 l 1
 386 773 l 1
 238 973 157 1183 108 1402 c 0
EndSplineSet
Validated: 1
Layer: 2
Layer: 3
Layer: 4
EndChar
StartChar: brokenbar
Encoding: 166 166 314
GlifName: brokenbar
Width: 1024
VWidth: 0
Flags: W
VStem: 507 138<-128 394 1019 1536>
LayerCount: 5
Back
Fore
SplineSet
507 394 m 1
 645 394 l 1
 645 -128 l 1
 507 -128 l 1
 507 394 l 1
507 1536 m 1
 645 1536 l 1
 645 1019 l 1
 507 1019 l 1
 507 1536 l 1
EndSplineSet
Validated: 1
Layer: 2
Layer: 3
Layer: 4
EndChar
StartChar: section
Encoding: 167 167 432
GlifName: section
Width: 1024
VWidth: 0
Flags: W
HStem: -272 130<257.323 710.861> 1292 130<441.139 860.922>
VStem: 210 138<448.914 699.703> 228 138<975.999 1218.75> 786 138<-69.709 175.763> 804 138<449.252 702.208>
LayerCount: 5
Back
Fore
SplineSet
348 571 m 0xe4
 348 427 462 373 584 373 c 0
 762 373 804 499 804 578 c 0
 804 717 703 775 565 775 c 0
 389 775 348 651 348 571 c 0xe4
689 221 m 0
 603 264 489 231 381 287 c 0
 278 340 210 443 210 571 c 0xe8
 210 676 265 780 372 842 c 1
 283 900 228 990 228 1098 c 0
 228 1262 348 1422 594 1422 c 0
 683 1422 784 1407 857 1394 c 0
 861 1393 l 1
 861 1260 l 1
 855 1261 l 0
 785 1275 676 1292 594 1292 c 0
 409 1292 366 1174 366 1097 c 0
 366 1020 402 971 448 937 c 1
 531 876 655 923 773 861 c 0
 868 812 942 711 942 578 c 0xd4
 942 473 888 369 780 307 c 1
 865 252 924 162 924 50 c 0
 924 -113 804 -272 558 -272 c 0
 457 -272 341 -251 255 -233 c 0
 251 -232 l 1
 251 -99 l 1
 257 -100 l 0
 339 -119 465 -142 558 -142 c 0
 743 -142 786 -25 786 51 c 0xc8
 786 134 744 193 689 221 c 0
EndSplineSet
Validated: 1
Layer: 2
Layer: 3
Layer: 4
EndChar
StartChar: dieresis
Encoding: 168 168 315
GlifName: dieresis
Width: 1024
VWidth: 0
Flags: W
HStem: 1131 234<260.302 443.698 708.302 891.698>
VStem: 235 234<1156.3 1339.7> 683 234<1156.3 1339.7>
LayerCount: 5
Back
Fore
SplineSet
683 1248 m 0
 683 1317 731 1365 800 1365 c 0
 869 1365 917 1317 917 1248 c 0
 917 1179 869 1131 800 1131 c 0
 731 1131 683 1179 683 1248 c 0
235 1248 m 0
 235 1317 283 1365 352 1365 c 0
 421 1365 469 1317 469 1248 c 0
 469 1179 421 1131 352 1131 c 0
 283 1131 235 1179 235 1248 c 0
EndSplineSet
Validated: 1
Layer: 2
Layer: 3
Layer: 4
EndChar
StartChar: copyright
Encoding: 169 169 514
GlifName: copyright
Width: 1024
VWidth: 0
Flags: W
HStem: 108 92<400.76 751.022> 369 130<498.106 752.922> 909 130<499.862 752.922> 1208 92<400.978 751.24>
VStem: 107 98<429.009 978.991> 347 138<506.635 897.253> 947 98<429.009 978.991>
LayerCount: 5
Back
SplineSet
576 1254 m 4
 642.182508122 1254 708.91182233 1240.81126701 768 1211 c 4
 811.681986195 1188.96149068 850.660607343 1157.75452256 881.989650702 1120.17390451 c 4
 913.31869406 1082.59328646 937.004265576 1038.95797087 953.878053846 993.033172773 c 4
 987.625630386 901.183576576 996 801.853192302 996 704 c 4
 996 606.146807698 987.625630386 506.816423424 953.878053846 414.966827227 c 4
 937.004265576 369.042029129 913.31869406 325.406713543 881.989650702 287.826095491 c 4
 850.660607343 250.245477439 811.681986195 219.038509318 768 197 c 4
 708.91182233 167.188732986 642.182508122 154 576 154 c 4
 509.817491878 154 443.08817767 167.188732986 384 197 c 4
 340.318013805 219.038509318 301.339392657 250.245477439 270.010349298 287.826095491 c 4
 238.68130594 325.406713543 214.995734424 369.042029129 198.121946154 414.966827227 c 4
 164.374369614 506.816423424 156 606.146807698 156 704 c 4
 156 801.853192302 164.374369614 901.183576576 198.121946154 993.033172773 c 4
 214.995734424 1038.95797087 238.68130594 1082.59328646 270.010349298 1120.17390451 c 4
 301.339392657 1157.75452256 340.318013805 1188.96149068 384 1211 c 4
 443.08817767 1240.81126701 509.817491878 1254 576 1254 c 4
  Spiro
    576 1254 o
    768 1211 o
    996 704 o
    768 197 o
    576 154 o
    384 197 o
    156 704 o
    384 1211 o
    0 0 z
  EndSpiro
EndSplineSet
Fore
SplineSet
753 386 m 1
 749 385 l 2
 702 376 652 369 595 369 c 0
 510 369 447 389 406 433 c 0
 346 497 347 597 347 708 c 0
 347 763 346 854 370 914 c 0
 400 990 475 1039 596 1039 c 0
 644 1039 705 1030 749 1020 c 0
 753 1019 l 1
 753 889 l 1
 747 890 l 0
 704 900 650 909 594 909 c 0
 539 909 514 900 500 869 c 0
 486 837 485 758 485 708 c 0
 485 602 487 542 510 518 c 0
 528 499 555 499 595 499 c 0
 641 499 701 506 747 515 c 0
 753 516 l 1
 753 386 l 1
907 978 m 0
 859 1110 752 1208 576 1208 c 0
 401 1208 293 1110 245 978 c 0
 214 894 205 800 205 704 c 0
 205 608 214 514 245 430 c 0
 293 298 400 200 576 200 c 0
 751 200 859 298 907 430 c 0
 938 514 947 608 947 704 c 0
 947 800 938 894 907 978 c 0
151 1008 m 0
 212 1174 357 1300 576 1300 c 0
 795 1300 940 1174 1001 1008 c 0
 1037 909 1045 804 1045 704 c 0
 1045 604 1037 499 1001 400 c 0
 940 234 795 108 576 108 c 0
 357 108 212 234 151 400 c 0
 115 499 107 604 107 704 c 0
 107 804 115 909 151 1008 c 0
EndSplineSet
Validated: 33
Layer: 2
SplineSet
605.039631813 978.999842929 m 0
 637.384386166 978.743458625 669.5210917 974.421124084 701.014406849 967.89601662 c 0
 742.777159646 959.243181924 783.550395955 945.739193392 822.13478507 927.521359608 c 0
 822.913369257 927.153746756 l 1
 982.130305042 768.957432354 l 1
 829.565405789 475.015726459 l 1
 827.798316108 474.334589067 l 0
 781.975330868 456.671790728 734.313552323 443.701810233 685.777569135 436.060831422 c 0
 659.136933096 431.866818607 632.143199672 429.052949452 605.009755458 429.000009517 c 0
 583.426311046 428.95789816 561.436576547 430.81542995 540.401642923 437.292223783 c 0
 519.317723098 443.784100789 499.51221286 455.255660889 484.336187755 471.597577358 c 0
 470.473831734 486.5249027 460.935072149 504.906227249 455.031698221 524.089406496 c 0
 449.140056528 543.234461516 446.60130183 563.04085805 445.016342474 582.5960722 c 0
 441.620767231 624.490648746 440.996442127 666.159537658 440.996442127 708.235612476 c 0
 440.996442127 744.934592132 441.814499801 781.736445181 445.018952941 818.434936999 c 0
 447.212481303 843.55597299 450.877150219 869.133817589 460.292215094 893.15794874 c 0
 469.736098329 917.255614811 485.5766968 939.264095569 507.165732026 954.119092746 c 0
 521.4496101 963.947552715 537.721823043 970.475963177 554.439200061 974.24116782 c 0
 571.134129427 978.001316647 588.19435926 979.133368862 605.039631813 978.999842929 c 0
EndSplineSet
Layer: 3
SplineSet
769.328930698 394.822739268 m 2
 742.104100878 387.316782722 714.4064329 381.301801083 686.378249889 376.889947912 c 0
 657.391989612 372.326095221 626.910790179 369.062191812 595.144631736 369.000009734 c 0
 569.632386829 368.949668308 540.636722891 370.988507284 510.429830768 380.287852016 c 0
 479.496852831 389.813537276 449.660696252 406.793082049 426.067682515 432.199086612 c 0
 404.64453505 455.267385478 391.480295416 481.657091661 383.53950094 507.457186157 c 0
 375.744338369 532.789220798 372.926782343 556.750111677 371.199933865 578.050202868 c 0
 367.606277855 622.391914184 366.99609375 665.607887567 366.99609375 708.235351562 c 0
 366.99609375 745.769107506 367.81670003 784.208554338 371.232814612 823.330381624 c 0
 373.603516706 850.484446633 377.584363524 881.610677176 390.218790551 913.850868975 c 0
 403.202794744 946.979673635 425.409056027 979.171536166 459.295445303 1002.48714015 c 0
 481.412602174 1017.70686896 505.652138443 1027.21169025 529.4893053 1032.58094319 c 0
 552.999648756 1037.87595775 575.335093671 1039.1579883 595.581667305 1038.99788947 c 0
 633.656359802 1038.69575638 670.203355858 1033.65616048 704.825924703 1026.48195528 c 0
 726.679362633 1021.95416227 748.294096866 1016.24363765 769.540787762 1009.36138697 c 0
 773 1008.24087527 l 1
 773 867.775768153 l 1
 766.009942405 870.808450546 l 0
 736.877828874 883.447609321 706.353623278 893.057228513 675.174054656 899.518048999 c 0
 647.281028754 905.297301137 620.185448774 908.797472369 594.418382362 909.002110145 c 0
 581.502437751 909.104473382 570.428067841 908.136963917 561.587117662 906.145675868 c 0
 553.064894426 904.225834369 545.913495935 901.096409141 540.704446315 897.511808708 c 0
 533.423494193 892.501767235 524.926551887 882.213953518 519.675826186 868.816341351 c 0
 514.071084242 854.513818731 510.745293253 835.317309812 508.767182703 812.669587617 c 0
 505.812486871 778.828859483 504.99609375 743.947552247 504.99609375 708.235351562 c 0
 504.99609375 666.811614703 505.638138241 626.9592085 508.800073716 587.949703572 c 0
 510.213700754 570.503052997 512.442549056 555.485398984 516.081612551 543.662866874 c 0
 519.568820446 532.32990371 524.917338537 523.201925596 529.932034442 517.801218141 c 0
 535.294629771 512.027775335 543.582667805 506.850024628 553.3157139 503.852942037 c 0
 563.762436875 500.637230162 577.830808936 498.966447166 594.855538492 498.999990599 c 0
 616.670141437 499.042293046 639.67910384 501.340968261 663.62193161 505.111057224 c 0
 698.372418251 510.581171977 732.797216244 519.175011273 766.385830103 530.632015448 c 0
 773 532.88809462 l 1
 773 395.834862643 l 1
 769.328930698 394.822739268 l 2
EndSplineSet
Layer: 4
EndChar
StartChar: ordfeminine
Encoding: 170 170 527
GlifName: ordfeminine
Width: 1024
VWidth: 0
Flags: W
HStem: 752 130<407.892 589.313> 1147 130<405.455 635> 1409 131<276 621.93>
VStem: 239 138<909.546 1120.61> 635 138<768 835 927.562 1147 1277 1403.81>
LayerCount: 5
Back
SplineSet
670 1212 m 1
 524 1212 l 2
 490.377285181 1212 456.09221627 1210.59631746 424.615276293 1198.77729883 c 0
 393.138336317 1186.95828019 365.499733587 1165.39064333 346 1138 c 0
 320.063595151 1101.56797332 307.999446692 1056.25057104 307.999446692 1011.52465575 c 0
 307.999446692 965.729092755 320.759545085 919.605930944 348 883 c 0
 364.088370904 861.380324552 385.141925693 843.445000217 409.171198478 831.244996356 c 0
 433.200471264 819.044992495 460.058157628 812.619010848 487 812 c 0
 498.029772171 811.74658197 509.078370262 812.438558769 520 814 c 0
 552.61150239 818.662394319 584.134090259 831.010158519 611.100534677 849.932602451 c 0
 638.066979095 868.855046382 660.181746196 894.577774334 675 924 c 0
 690.824071732 955.419316716 698.232061556 990.490554624 701.354343141 1025.53090375 c 0
 703.746336284 1052.37546358 704.026074818 1079.34281672 704.026074818 1106.30724196 c 0
 704.026074818 1114.53962681 704 1122.77173874 704 1131 c 2
 704 1290 l 2
 704 1319.15701392 703.478214136 1348.70305666 695.508959537 1376.74984688 c 0
 687.539704937 1404.7966371 671.978197134 1430.84039898 650 1450 c 0
 631.837301915 1465.83342103 609.746690834 1476.85680072 586.540372448 1483.34121359 c 0
 563.334054063 1489.82562647 539.095227975 1491.97150065 515 1492 c 0
 514.482600246 1492.0003057 l 0
 488.258283453 1492.0003057 462.090975704 1489.64877801 436 1487 c 0
 392.968629804 1482.63141876 349.995178874 1477.7114665 307 1473 c 0
 264.296449113 1468.32049046 221.619052042 1463.395134 179 1458 c 1024
  Spiro
    670 1212 {
    524 1212 ]
    346 1138 o
    308 1011 o
    348 883 o
    487 812 o
    520 814 o
    675 924 o
    704 1131 [
    704 1290 ]
    650 1450 o
    515 1492 o
    436 1487 o
    307 1473 o
    179 1458 o
    0 0 z
  EndSpiro
EndSplineSet
Fore
SplineSet
613 957 m 1
 632 995 635 1048 635 1107 c 2
 635 1147 l 1
 524 1147 l 0
 492 1147 467 1145 450 1139 c 1
 406 1124 377 1075 377 1017 c 0
 377 944 420 882 489 882 c 0
 549 882 592 915 613 957 c 1
635 835 m 1
 632 835 l 1
 586 783 542 752 467 752 c 0
 337 752 239 875 239 1017 c 0
 239 1130 306 1225 399 1259 c 0
 445 1276 489 1277 524 1277 c 0
 635 1277 l 1
 635 1308 634 1338 629 1357 c 1
 616 1403 583 1422 505 1422 c 0
 429 1422 354 1414 281 1409 c 0
 276 1409 l 1
 276 1540 l 1
 281 1540 l 0
 355 1545 425 1552 505 1552 c 0
 648 1552 732 1490 762 1390 c 0
 773 1352 773 1318 773 1288 c 0
 773 768 l 1
 635 768 l 1
 635 835 l 1
EndSplineSet
Validated: 1
Layer: 2
SplineSet
532 1492 m 0
 635.944107733 1492 709 1421.17823871 709 1320 c 0
 709 1270.73943799 692.647087966 1228.47071745 664.406509564 1197.60465017 c 1
 692.899868869 1157.77391757 709 1107.35213499 709 1050 c 0
 709 910.241229311 617.404097051 812 486 812 c 0
 343.17806587 812 243 909.882658813 243 1050 c 0
 243 1142.96415521 281.876783447 1217.93648531 345.310182325 1258.90242364 c 1
 338.584264061 1277.6119797 335 1298.10115203 335 1320 c 0
 335 1421.61834182 416.731902703 1492 532 1492 c 0
EndSplineSet
Layer: 3
SplineSet
635 1106 m 2
 635 1147 l 1
 524 1147 l 0
 492.166570366 1147 466.691488853 1144.90413236 449.772867497 1138.32466849 c 1
 406.262550626 1122.24476878 377 1072.56140769 377 1012 c 0
 377 941.382369537 419.641680527 882 489 882 c 0
 548.947045094 882 591.280190183 914.487550812 612.53821599 954.534150888 c 1
 631.806413298 992.499710758 635 1046.00798589 635 1106 c 2
632.279842662 835 m 1
 586.457721174 782.66701671 541.768075116 752 467 752 c 0
 336.515278341 752 239 872.665981977 239 1012 c 0
 239 1126.92081417 306.135569589 1223.89370621 399.232997156 1258.67736047 c 0
 445.162807337 1276.02862209 488.907022685 1277 524 1277 c 0
 634.999261097 1277 l 1
 634.980683228 1308.91504532 634.627829494 1338.67260567 629.180625394 1358.31996684 c 1
 615.972737878 1402.93259901 577.986764117 1422 515 1422 c 0
 434.572594661 1422 354.774326098 1408.07617929 276.57312054 1399.06591064 c 0
 271 1398.42285827 l 1
 271 1529.49485613 l 1
 275.434040612 1530 l 0
 354.234729337 1538.96420011 429.480056297 1552 515 1552 c 0
 642.689990211 1552 732.097672645 1491.16407708 761.802821322 1391.98470777 c 0
 773.026017027 1353.74075721 773 1319.5869916 773 1290 c 0
 773 768 l 1
 635 768 l 1
 635 835 l 1
 632.279842662 835 l 1
EndSplineSet
Layer: 4
EndChar
StartChar: guillemotleft
Encoding: 171 171 313
GlifName: guillemotleft
Width: 1024
VWidth: 0
Flags: W
HStem: 1021 20G<433.023 478.27 817.023 862.27>
LayerCount: 5
Back
Fore
SplineSet
560 967 m 1
 258 574 l 1
 258 568 l 1
 560 175 l 1
 448 101 l 1
 123 535 l 1
 123 607 l 1
 448 1041 l 1
 560 967 l 1
944 967 m 1
 642 574 l 1
 642 568 l 1
 944 175 l 1
 832 101 l 1
 507 535 l 1
 507 607 l 1
 832 1041 l 1
 944 967 l 1
EndSplineSet
Validated: 1
Layer: 2
Layer: 3
Layer: 4
EndChar
StartChar: logicalnot
Encoding: 172 172 317
GlifName: logicalnot
Width: 1024
VWidth: 0
Flags: W
HStem: 639 130<123 891>
VStem: 891 138<379 639>
LayerCount: 5
Back
Fore
SplineSet
123 769 m 1
 1029 769 l 1
 1029 379 l 1
 891 379 l 1
 891 639 l 1
 123 639 l 1
 123 769 l 1
EndSplineSet
Validated: 1
Layer: 2
Layer: 3
Layer: 4
EndChar
StartChar: uni00AD
Encoding: 173 173 96
GlifName: uni00A_D_
Width: 1024
VWidth: 0
Flags: W
HStem: 516 130<123 1029>
LayerCount: 5
Back
Fore
SplineSet
123 516 m 1
 123 646 l 1
 1029 646 l 1
 1029 516 l 1
 123 516 l 1
EndSplineSet
Validated: 1
Layer: 2
Layer: 3
Layer: 4
EndChar
StartChar: registered
Encoding: 174 174 515
GlifName: registered
Width: 1024
VWidth: 0
Flags: W
HStem: 108 92<400.76 751.022> 635 130<517 594> 899 130<517 648.775> 1208 92<400.978 751.24>
VStem: 107 98<429.009 978.991> 379 138<379 635 765 899> 651 138<766.082 896.709> 947 98<429.009 978.991>
LayerCount: 5
Back
Fore
SplineSet
595 765 m 0
 642 765 651 784 651 832 c 0
 651 880 643 899 595 899 c 0
 517 899 l 1
 517 765 l 1
 595 765 l 0
595 1029 m 0
 718 1029 789 953 789 832 c 0
 789 760 763 704 718 669 c 1
 816 379 l 1
 670 379 l 1
 594 635 l 1
 517 635 l 1
 517 379 l 1
 379 379 l 1
 379 1029 l 1
 595 1029 l 0
907 978 m 0
 859 1110 752 1208 576 1208 c 0
 401 1208 293 1110 245 978 c 0
 214 894 205 800 205 704 c 0
 205 608 214 514 245 430 c 0
 293 298 400 200 576 200 c 0
 751 200 859 298 907 430 c 0
 938 514 947 608 947 704 c 0
 947 800 938 894 907 978 c 0
151 1008 m 0
 212 1174 357 1300 576 1300 c 0
 795 1300 940 1174 1001 1008 c 0
 1037 909 1045 804 1045 704 c 0
 1045 604 1037 499 1001 400 c 0
 940 234 795 108 576 108 c 0
 357 108 212 234 151 400 c 0
 115 499 107 604 107 704 c 0
 107 804 115 909 151 1008 c 0
EndSplineSet
Validated: 1
Layer: 2
SplineSet
453 705 m 1
 595 705 l 0
 602.667429326 705.000000001 610.308315189 705.102275536 617.803924121 705.65556946 c 0
 627.257131222 706.353364943 636.466876965 707.768386179 645.240251201 710.548633755 c 0
 660.983327154 715.537552223 675.353013115 724.909974828 686.13682232 737.374887962 c 0
 696.945216782 749.868218984 704.330102186 765.320503901 708.780198056 781.566162629 c 0
 713.239424437 797.845153479 715 814.906658466 715 832 c 0
 715.000000003 849.093347041 713.239425758 866.154841719 708.780198065 882.433837372 c 0
 704.330096855 898.679515604 696.94522818 914.131767861 686.136822337 926.625112041 c 0
 675.353012903 939.090025439 660.983306545 948.462454316 645.24025121 953.451366249 c 0
 629.507302168 958.437075538 612.350816534 959 595 959 c 0
 453 959 l 1
 453 705 l 1
453 379 m 1
 443 379 l 1
 443 969 l 1
 595 969 l 0
 612.516571214 969 630.755746494 968.531553818 648.2611555 962.984158981 c 0
 665.756458215 957.439966788 681.670644101 947.071786335 693.699450209 933.167791895 c 0
 705.703659904 919.292228235 713.663290965 902.458632622 718.424897351 885.07576388 c 0
 723.177377256 867.726212561 725.000000003 849.774040707 725 832 c 0
 725 814.225953786 723.177378565 796.273792241 718.424897342 778.924236119 c 0
 713.66328561 761.541347875 705.703671272 744.707784924 693.699450192 730.832208108 c 0
 681.670643861 716.928213408 665.756437584 706.560026683 648.261155493 701.015841023 c 0
 645.904830912 700.269131088 643.191046389 699.532492427 640.640317734 698.918541198 c 2
 769.334499441 321.596094347 l 1
 759.857689254 318.403905653 l 1
 631.408173652 695 l 1
 453 695 l 1
 453 379 l 1
EndSplineSet
Layer: 3
SplineSet
517 765 m 1
 595 765 l 0
 606.646169273 765 615.406008627 765.484998135 620.423596777 766.369324016 c 0
 622.300474339 766.7003289 623.707446942 767.060004989 624.747103709 767.389361903 c 0
 628.660255875 768.629656206 633.269667415 771.515781179 636.430387351 775.169531466 c 0
 639.923054122 779.207205965 644.131267735 786.779004369 646.790914681 796.488870214 c 0
 649.577224687 806.661171922 651 818.752472862 651 832 c 0
 651 845.246521279 649.577207672 857.338890195 646.790915115 867.511128204 c 0
 644.131293438 877.220901794 639.92289869 884.792973728 636.430522499 888.830312303 c 0
 633.267142798 892.4870113 628.667185805 895.368420475 624.747160652 896.609643486 c 0
 621.113614844 897.761267303 611.071059247 899 595 899 c 0
 517 899 l 1
 517 765 l 1
379 379 m 1
 379 1029 l 1
 595 1029 l 0
 613.535818896 1029 639.430034909 1029.11873356 668.754505818 1019.82501767 c 0
 698.003093235 1010.55684322 723.804685663 993.619131621 743.405244478 970.962853552 c 0
 762.664350972 948.702694069 773.8868452 923.830193571 780.414185181 899.998556477 c 0
 786.833197874 876.56241644 789 853.599271877 789 832 c 0
 789 810.401581416 786.833242551 787.436747605 780.414185021 764.001442938 c 0
 773.886111231 740.167126672 762.666514433 715.300813703 743.405512292 693.03745602 c 0
 735.919853819 684.383912082 726.217379062 675.621670028 717.748630447 669.251375939 c 1
 815.517506016 379 l 1
 670.73472368 379 l 1
 584.502903423 635 l 1
 517 635 l 1
 517 379 l 1
 379 379 l 1
EndSplineSet
Layer: 4
EndChar
StartChar: macron
Encoding: 175 175 318
GlifName: macron
Width: 1024
VWidth: 0
Flags: W
HStem: 1151 130<251 901>
LayerCount: 5
Back
Fore
SplineSet
251 1151 m 1
 251 1281 l 1
 901 1281 l 1
 901 1151 l 1
 251 1151 l 1
EndSplineSet
Validated: 1
Layer: 2
Layer: 3
Layer: 4
EndChar
StartChar: degree
Encoding: 176 176 316
GlifName: degree
Width: 1024
VWidth: 0
Flags: W
HStem: 1063 110<485.588 666.412> 1414 110<485.588 666.412>
VStem: 343 118<1197.73 1389.89> 691 118<1197.73 1389.89>
LayerCount: 5
Back
Fore
SplineSet
343 1294 m 0
 343 1422 438 1524 576 1524 c 0
 714 1524 809 1422 809 1294 c 0
 809 1166 714 1063 576 1063 c 0
 438 1063 343 1166 343 1294 c 0
691 1294 m 0
 691 1373 643 1414 576 1414 c 0
 509 1414 461 1373 461 1294 c 0
 461 1215 509 1173 576 1173 c 0
 643 1173 691 1215 691 1294 c 0
EndSplineSet
Validated: 1
Layer: 2
Layer: 3
Layer: 4
EndChar
StartChar: plusminus
Encoding: 177 177 291
GlifName: plusminus
Width: 1024
VWidth: 0
Flags: W
HStem: 255 130<123 1029> 762 130<123 507 645 1029>
VStem: 507 138<502 762 892 1152>
LayerCount: 5
Back
Fore
SplineSet
645 1152 m 1
 645 892 l 1
 1029 892 l 1
 1029 762 l 1
 645 762 l 1
 645 502 l 1
 507 502 l 1
 507 762 l 1
 123 762 l 1
 123 892 l 1
 507 892 l 1
 507 1152 l 1
 645 1152 l 1
123 255 m 1
 123 385 l 1
 1029 385 l 1
 1029 255 l 1
 123 255 l 1
EndSplineSet
Validated: 1
Layer: 2
Layer: 3
Layer: 4
EndChar
StartChar: uni00B2
Encoding: 178 178 510
GlifName: uni00B_2
Width: 1024
VWidth: 0
Flags: W
HStem: 768 130<393 773> 1422 130<251.078 624.344>
VStem: 245 148<898 960.66> 647 138<1219.96 1396.16>
LayerCount: 5
Back
Fore
SplineSet
251 1524 m 1
 255 1525 l 2
 328 1540 409 1552 499 1552 c 0
 691 1552 785 1441 785 1316 c 0
 785 1165 663 1086 564 1037 c 0
 487 999 417 966 393 902 c 1
 393 898 l 1
 773 898 l 1
 773 768 l 1
 245 768 l 1
 245 833 l 0
 245 996 369 1090 488 1145 c 0
 562 1180 647 1223 647 1314 c 0
 647 1350 635 1422 499 1422 c 0
 417 1422 327 1409 257 1395 c 0
 251 1394 l 1
 251 1524 l 1
EndSplineSet
Validated: 1
Layer: 2
Layer: 3
Layer: 4
EndChar
StartChar: uni00B3
Encoding: 179 179 511
GlifName: uni00B_3
Width: 1024
VWidth: 0
Flags: W
HStem: 752 130<251.07 623.813> 1087 130<379 614.551> 1422 130<261.078 618.415>
VStem: 647 138<909.074 1061.84 1248.76 1393.57>
CounterMasks: 1 e0
LayerCount: 5
Back
SplineSet
674 1150 m 5xd8
 749 1111 780 1048 780 983 c 4
 780 836 652 752 508 752 c 4
 415 752 333 759 256 767 c 5
 256 887 l 5
 332 880 431 872 508 872 c 4
 586 872 652 907 652 983 c 4
 652 1041 607 1077 554 1087 c 4
 528 1092 497 1092 462 1092 c 6
 384 1092 l 5
 384 1212 l 5
 462 1212 l 6
 496 1212 525 1213 550 1218 c 4
 602 1229 643 1264 643 1322 c 4
 643 1395 583 1432 506 1432 c 4xd8
 429.826086957 1432 335.913043478 1422 266 1415 c 5xe8
 266 1535 l 5
 339.043478261 1544 417.304347826 1552 506 1552 c 4
 658 1552 771 1460 771 1322 c 4
 771 1261 746 1201 674 1160 c 5
 674 1150 l 5xd8
EndSplineSet
Fore
SplineSet
679 1159 m 1
 679 1155 l 1
 754 1115 785 1053 785 988 c 0
 785 837 659 752 498 752 c 0
 409 752 329 759 255 767 c 0
 251 768 l 1
 251 898 l 1
 256 897 l 0
 329 890 424 882 498 882 c 0
 590 882 647 916 647 988 c 0
 647 1040 605 1073 553 1082 c 0
 528 1087 497 1087 462 1087 c 0
 379 1087 l 1
 379 1217 l 1
 462 1217 l 0
 496 1217 525 1218 549 1223 c 1
 599 1233 638 1266 638 1320 c 0
 638 1388 588 1422 496 1422 c 0
 423 1422 334 1412 267 1405 c 0
 261 1404 l 1
 261 1534 l 1
 265 1535 l 0
 335 1544 411 1552 496 1552 c 0
 666 1552 776 1460 776 1321 c 0
 776 1260 750 1200 679 1159 c 1
EndSplineSet
Validated: 1
Layer: 2
Layer: 3
Layer: 4
EndChar
StartChar: acute
Encoding: 180 180 310
GlifName: acute
Width: 1024
VWidth: 0
Flags: W
HStem: 1024 384
VStem: 481 319
LayerCount: 5
Back
Fore
SplineSet
630 1024 m 1
 481 1024 l 1
 652 1408 l 1
 800 1408 l 1
 630 1024 l 1
EndSplineSet
Validated: 1
Layer: 2
Layer: 3
Layer: 4
EndChar
StartChar: mu
Encoding: 181 181 290
GlifName: mu
Width: 1024
VWidth: 0
Flags: W
HStem: -16 130<465.051 686.745> 0 21G<763 901> 1004 20G<251 389 763 901>
VStem: 251 138<-384 112 176.35 1024> 763 138<0 112 176.35 1024>
LayerCount: 5
Back
Fore
SplineSet
761 112 m 1x78
 716 35 646 -16 576 -16 c 0
 506 -16 435 36 391 112 c 1
 389 112 l 1
 389 -384 l 1
 251 -384 l 1
 251 1024 l 1
 389 1024 l 1
 389 369 l 0
 389 283 389 224 433 174 c 0
 464 139 513 114 576 114 c 0xb8
 639 114 688 139 719 174 c 0
 763 224 763 283 763 369 c 0
 763 1024 l 1
 901 1024 l 1
 901 0 l 1
 763 0 l 1
 763 112 l 1
 761 112 l 1x78
EndSplineSet
Validated: 1
Layer: 2
Layer: 3
Layer: 4
EndChar
StartChar: paragraph
Encoding: 182 182 311
GlifName: paragraph
Width: 1024
VWidth: 0
Flags: W
HStem: 0 21G<507 645 763 901> 1288 120<646.389 763>
VStem: 235 410<844.135 1206.16> 507 138<0 667.582> 763 138<0 1288>
LayerCount: 5
Back
Fore
SplineSet
763 1288 m 1xe8
 645 1288 l 1
 645 0 l 1
 507 0 l 1
 507 656 l 1xd8
 350 698 235 836 235 1029 c 0
 235 1222 357 1358 518 1396 c 0
 574 1408 626 1408 703 1408 c 0
 901 1408 l 1
 901 0 l 1
 763 0 l 1
 763 1288 l 1xe8
EndSplineSet
Validated: 1
Layer: 2
Layer: 3
Layer: 4
EndChar
StartChar: periodcentered
Encoding: 183 183 95
GlifName: periodcentered
Width: 1024
VWidth: 0
Flags: W
HStem: 528 250<379 645>
VStem: 379 266<528 778>
LayerCount: 5
Back
Fore
SplineSet
379 528 m 1
 379 778 l 1
 645 778 l 1
 645 528 l 1
 379 528 l 1
EndSplineSet
Validated: 1
Layer: 2
Layer: 3
Layer: 4
EndChar
StartChar: cedilla
Encoding: 184 184 309
GlifName: cedilla
Width: 1024
VWidth: 0
Flags: W
HStem: -400 130<251.078 478.76> -20 20G<507 645>
VStem: 507 138<-225.354 0>
LayerCount: 5
Back
Fore
SplineSet
645 0 m 1
 645 -100 l 2
 645 -160 645 -232 592 -303 c 0
 549 -361 475 -400 384 -400 c 0
 348 -400 302 -393 255 -383 c 0
 251 -382 l 1
 251 -249 l 1
 257 -250 l 0
 305 -261 351 -270 384 -270 c 0
 430 -270 460 -254 480 -227 c 0
 507 -192 507 -150 507 -100 c 0
 507 0 l 1
 645 0 l 1
EndSplineSet
Validated: 1
Layer: 2
Layer: 3
Layer: 4
EndChar
StartChar: uni00B9
Encoding: 185 185 509
GlifName: uni00B_9
Width: 1024
VWidth: 0
Flags: W
VStem: 507 138<768 1368>
LayerCount: 5
Back
Fore
SplineSet
531 1536 m 1
 645 1536 l 1
 645 768 l 1
 507 768 l 1
 507 1368 l 1
 503 1368 l 1
 251 1238 l 1
 251 1379 l 1
 531 1536 l 1
EndSplineSet
Validated: 1
Layer: 2
Layer: 3
Layer: 4
EndChar
StartChar: ordmasculine
Encoding: 186 186 526
GlifName: ordmasculine
Width: 1024
VWidth: 0
Flags: W
HStem: 752 130<418.175 605.825> 1422 130<418.175 605.825>
VStem: 231 138<930.259 1373.74> 655 138<930.259 1373.74>
LayerCount: 5
Back
SplineSet
512 1492 m 0
 501.970148181 1492 491.937713604 1491.35638337 482 1490 c 0
 446.931650295 1485.21357444 413.13177304 1470.72520213 386.105184671 1447.87213797 c 0
 359.078596301 1425.0190738 339.127239472 1394.47464433 326.239250671 1361.51104675 c 0
 300.46327307 1295.58385159 300 1222.78697678 300 1152 c 0
 300 1081.21302321 300.463273071 1008.4161484 326.239250672 942.488953248 c 0
 339.127239472 909.52535567 359.078596302 878.980926195 386.105184671 856.12786203 c 0
 413.13177304 833.274797866 446.931650296 818.786425557 482 814 c 0
 491.937713604 812.64361663 501.970148181 812 512 812 c 0
 522.029851819 812 532.062286396 812.64361663 542 814 c 0
 577.068349705 818.786425557 610.86822696 833.274797866 637.894815329 856.127862031 c 0
 664.921403699 878.980926196 684.872760528 909.525355672 697.760749329 942.48895325 c 0
 723.53672693 1008.41614841 722.906841187 1143.27151724 724 1152 c 1
 724 1222.78697679 723.536726929 1295.5838516 697.760749328 1361.51104675 c 0
 684.872760528 1394.47464433 664.921403698 1425.01907381 637.894815329 1447.87213797 c 0
 610.86822696 1470.72520213 577.068349704 1485.21357444 542 1490 c 0
 532.062286396 1491.35638337 522.029851819 1492 512 1492 c 0
  Spiro
    512 1492 o
    482 1490 o
    300 1152 o
    482 814 o
    512 812 o
    542 814 o
    724 1152 o
    542 1490 o
    0 0 z
  EndSpiro
EndSplineSet
Fore
SplineSet
231 1152 m 0
 231 1254 232 1552 512 1552 c 0
 792 1552 793 1254 793 1152 c 0
 793 1050 792 752 512 752 c 0
 232 752 231 1050 231 1152 c 0
512 1422 m 0
 379 1422 369 1278 369 1152 c 0
 369 1026 379 882 512 882 c 0
 645 882 655 1026 655 1152 c 0
 655 1278 645 1422 512 1422 c 0
EndSplineSet
Validated: 1
Layer: 2
SplineSet
576 990 m 0
 748.275054821 990 869 867.506389285 869 692 c 0
 869 623.007154496 849.054227626 562.484999334 813.808146928 514.946163083 c 1
 849.054228457 465.8252393 869 403.288914279 869 332 c 0
 869 162.383071627 748.275039499 44 576 44 c 0
 403.724945179 44 283 162.383086865 283 332 c 0
 283 403.288917642 302.945772374 465.825241565 338.191853072 514.946163562 c 1
 302.945771543 562.485001537 283 623.007157756 283 692 c 0
 283 867.506405053 403.724960501 990 576 990 c 0
EndSplineSet
Layer: 3
SplineSet
512 1552 m 0
 525.162702452 1552 538.502509119 1551.1707327 551.899804589 1549.37304688 c 0
 600.199381936 1542.90965449 646.486286823 1523.51701901 683.988088009 1492.42578125 c 0
 721.203058335 1461.51926304 746.482844136 1422.41883749 762.508277692 1382.15917969 c 0
 793.85610638 1302.61231036 793 1222.06707381 793 1152 c 0
 793 1144 l 1
 792.745302465 1146.14756702 l 1
 791.943650667 1126.33382244 794.168486645 1002.1655817 762.508299981 921.839848356 c 0
 746.485638473 881.587461667 721.200186626 842.479768026 683.987312559 811.573327002 c 0
 646.48616164 780.48186921 600.20449851 761.090383565 551.896564353 754.625976562 c 0
 538.496519934 752.829282017 525.164755203 752 512 752 c 0
 498.835972238 752 485.500336294 752.829176233 472.10601851 754.625049545 c 0
 423.794897121 761.09033844 377.514525671 780.482156542 340.011902783 811.57421875 c 0
 302.796013824 842.481642954 277.517163506 881.580158139 261.491714682 921.83984375 c 0
 230.143899148 1001.38767144 231 1081.93291655 231 1152 c 0
 231 1222.06653862 230.143798438 1302.61207281 261.491700019 1382.16011875 c 0
 277.514293527 1422.4122972 302.798957127 1461.52123703 340.013682277 1492.4265528 c 0
 377.512723196 1523.516056 423.796910395 1542.90969328 472.102893775 1549.37399247 c 0
 485.493218783 1551.17082156 498.839093148 1552 512 1552 c 0
512 1422 m 0
 505.101097869 1422 498.381181859 1421.57184089 491.896953051 1420.71780761 c 0
 470.086114251 1417.86975988 448.736251751 1409.0583633 432.197101646 1395.68024343 c 0
 415.385773391 1381.93515902 400.726423642 1361.30952137 390.986790186 1337.21988182 c 0
 370.818858201 1286.14015765 369 1222.16434103 369 1152 c 0
 369 1081.83700705 370.818859422 1017.85978876 390.986819307 966.779037905 c 0
 400.722636773 942.700056908 415.387692641 922.063680167 432.199053223 908.317806062 c 0
 448.733829614 894.943845161 470.088307767 886.129319591 491.893307324 883.282333883 c 0
 498.374473626 882.429085814 505.104329652 881.999999998 512 882 c 0
 518.894750557 882 525.629571737 882.429110626 532.103227398 883.282187761 c 0
 553.912694766 886.129276987 575.264813321 894.942579323 591.801883599 908.318716232 c 0
 608.615260077 922.065757725 623.273603683 942.690465733 633.013203181 966.779107679 c 0
 650.298517951 1010.5639763 653.89131583 1135.28273938 655.008320441 1154.43481609 c 1
 667.740595494 1153.70662187 633.471556961 1336.06015433 633.013157111 1337.22102852 c 0
 623.277277968 1361.30102429 608.613551461 1381.93592609 591.800801851 1395.68123667 c 0
 575.264626941 1409.05747457 553.919041674 1417.86957986 532.099740036 1420.71788576 c 0
 525.623634135 1421.57182279 518.897138215 1422 512 1422 c 0
EndSplineSet
Layer: 4
EndChar
StartChar: guillemotright
Encoding: 187 187 312
GlifName: guillemotright
Width: 1024
VWidth: 0
Flags: W
HStem: 1021 20G<289.73 334.977 673.73 718.977>
LayerCount: 5
Back
Fore
SplineSet
894 568 m 1
 894 574 l 1
 592 967 l 1
 704 1041 l 1
 1029 607 l 1
 1029 535 l 1
 704 101 l 1
 592 175 l 1
 894 568 l 1
510 568 m 1
 510 574 l 1
 208 967 l 1
 320 1041 l 1
 645 607 l 1
 645 535 l 1
 320 101 l 1
 208 175 l 1
 510 568 l 1
EndSplineSet
Validated: 1
Layer: 2
SplineSet
521.007838114 144.004481162 m 1
 513.001124209 149.995518838 l 1
 834.75524084 576 l 1
 513.001124209 1002.00448116 l 1
 521.007838114 1007.99551884 l 1
 847.24475916 576 l 1
 521.007838114 144.004481162 l 1
EndSplineSet
Layer: 3
Layer: 4
EndChar
StartChar: onequarter
Encoding: 188 188 501
GlifName: onequarter
Width: 1024
VWidth: 0
Flags: W
HStem: 128 130<649 891>
VStem: 379 138<758 1368> 891 138<-128 128 258 650>
LayerCount: 5
Back
Fore
SplineSet
123 1378 m 1
 403 1536 l 1
 517 1536 l 1
 517 758 l 1
 379 758 l 1
 379 1368 l 1
 375 1368 l 1
 123 1233 l 1
 123 1378 l 1
1029 650 m 1
 1029 -128 l 1
 891 -128 l 1
 891 128 l 1
 507 128 l 1
 507 205 l 1
 586 650 l 1
 717 650 l 1
 649 258 l 1
 891 258 l 1
 891 650 l 1
 1029 650 l 1
EndSplineSet
Validated: 1
Layer: 2
Layer: 3
Layer: 4
EndChar
StartChar: onehalf
Encoding: 189 189 500
GlifName: onehalf
Width: 1024
VWidth: 0
Flags: W
HStem: -128 130<649 1029> 531 130<507.078 880.344>
VStem: 379 138<758 1368> 501 148<2 60.1043> 903 138<326.771 504.328>
LayerCount: 5
Back
SplineSet
640 1492 m 0
 760.168303987 1492 844 1420.66641645 844 1318 c 4
 844 1215.33355713 760.168303987 1144 640 1144 c 4
 519.831665039 1144 436 1215.33355713 436 1318 c 4
 436 1420.66641645 519.831665039 1492 640 1492 c 0
EndSplineSet
Fore
SplineSet
507 633 m 1xd8
 511 634 l 2
 584 649 665 661 755 661 c 0
 947 661 1041 549 1041 423 c 0
 1041 271 919 192 820 142 c 0
 743 104 673 70 649 6 c 1
 649 2 l 1
 1029 2 l 1
 1029 -128 l 1
 501 -128 l 1
 501 -63 l 0
 501 102 625 196 744 252 c 0
 818 287 903 330 903 422 c 0
 903 458 891 531 755 531 c 0
 673 531 583 518 513 504 c 0
 507 503 l 1
 507 633 l 1xd8
123 1378 m 1
 403 1536 l 1
 517 1536 l 1
 517 758 l 1
 379 758 l 1
 379 1368 l 1xe8
 375 1368 l 1
 123 1233 l 1
 123 1378 l 1
EndSplineSet
Validated: 1
Layer: 2
SplineSet
316.858875766 1409.92680605 m 1
 313.664912112 1419.40301817 l 1
 318.403018173 1421 l 0
 374.483414484 1439.85569242 431.194891579 1457.13906009 488.828115103 1471 c 0
 537.154340901 1482.5743264 586.642248788 1492.00003699 636.830453391 1492.00003699 c 0
 666.230562157 1491.99376974 695.868718792 1488.5788764 724.028178658 1479.46793243 c 0
 752.143467773 1470.43730471 778.546862817 1455.58949463 799.548533045 1435 c 0
 831.252694893 1403.98497929 849.004743873 1360.78461903 849.004743873 1316.70908966 c 0
 849.004743873 1283.40801135 840.266263579 1250.39698555 824.978061738 1221.16133856 c 0
 809.480379992 1191.66925094 787.413978804 1166.21653194 762.155925203 1145.24367713 c 0
 700.909999472 1097.05277005 623.444729986 1074.55730617 560.880821061 1031.91333021 c 0
 527.594141162 1008.44851085 498.37093894 978.891683217 478.214122088 943.833276373 c 0
 458.844558378 910.144125457 448.082215618 871.448205175 447.058901379 833 c 1
 901 833 l 1
 901 823 l 1
 436.995752195 823 l 1
 437.000001803 828.004246 l 0
 437.035853742 870.222713284 448.520252551 912.249901224 469.54487024 948.817659221 c 0
 490.575077342 985.395138793 520.867801726 1015.94180519 555.119178939 1040.08666979 c 0
 619.499707476 1083.96350396 696.622469162 1106.40760797 755.844074797 1153 c 0
 780.248946368 1173.28159868 801.406021258 1197.77665108 816.1650049 1225.88680459 c 0
 830.726755925 1253.77004323 839.004743873 1285.20872764 839.004743873 1316.70908966 c 0
 839.004743873 1358.20505329 822.204389643 1398.90203505 792.451466955 1427.95502641 c 0
 772.713379333 1447.27550609 747.693047157 1461.37737665 720.893954622 1469.97179428 c 0
 694.017090028 1478.66058411 665.447007183 1481.99394158 636.828278829 1482.00003723 c 0
 587.909272544 1482.00003723 539.194342781 1472.77909639 491.171884897 1461.27854213 c 0
 433.927074607 1447.51118263 377.496561248 1430.3184583 321.596981827 1411.52378788 c 0
 316.858875766 1409.92680605 l 1
EndSplineSet
Layer: 3
Layer: 4
EndChar
StartChar: threequarters
Encoding: 190 190 508
GlifName: threequarters
Width: 1024
VWidth: 0
Flags: W
HStem: 128 130<649 891> 747 130<123.07 495.813> 1085 129<251 486.551> 1422 130<133.078 489.58>
VStem: 519 138<903.744 1059.01 1246.97 1392.05> 891 138<-128 128 258 650>
LayerCount: 5
Back
SplineSet
369 1469 m 4
 301.379497815 1453.17670974 234.319644586 1435.05796832 167 1418 c 5
 0 1323 l 5
 384 1152 l 5
 482 1152 l 6
 516.126555676 1152 550.526782309 1152.08878773 583.953388879 1158.96510764 c 4
 617.37999545 1165.84142755 649.76778307 1180.02268442 675 1203 c 4
 707.913737451 1232.97236962 727.000107212 1277.3019775 727.000107212 1321.81727202 c 4
 727 1322 l 4
 726.944911076 1368.94300597 705.698300776 1415.51590306 670 1446 c 4
 650.425429993 1462.71544798 626.981591421 1474.64822754 602.293956936 1481.93456377 c 4
 577.640766858 1489.21073405 551.812608128 1492.00001633 526.107740579 1492.00001633 c 4
 473.038494443 1491.99197282 420.652839146 1481.08683521 369 1469 c 4
  Spiro
    526 1492 o
    369 1469 o
    167 1418 v
    0 1323 v
    384 1152 v
    482 1152 ]
    675 1203 o
    727 1322 o
    670 1446 o
    0 0 z
  EndSpiro
681 1102 m 4
 654.483893113 1124.8535734 620.993446953 1138.60498506 586.62826675 1145.27012805 c 4
 552.263086547 1151.93527104 517.005567293 1152 482 1152 c 6
 384 1152 l 5
 0 1120 l 5
 132 896 l 5
 194.547568062 878.887689266 257.096286024 861.752847906 320 846 c 4
 387.992200451 828.972852876 456.908252453 812.09993555 527 812 c 4
 527.523925425 811.999626306 l 4
 566.876515789 811.999626306 606.843269543 818.330920328 642 836 c 4
 669.228891791 849.684704242 693.156661909 870.197269261 709.833848307 895.703251544 c 4
 726.669596871 921.451737789 736.002891459 951.858064687 736.002891459 982.920197563 c 4
 736.002891459 1028.02673264 715.173625357 1072.54660178 681 1102 c 4
  Spiro
    681 1102 o
    482 1152 [
    384 1152 v
    0 1120 v
    132 896 v
    320 846 o
    527 812 o
    642 836 o
    736 982 o
    0 0 z
  EndSpiro
EndSplineSet
Fore
SplineSet
551 1155 m 1
 551 1151 l 1
 626 1111 657 1047 657 982 c 0
 657 832 531 747 370 747 c 0
 281 747 201 754 127 762 c 0
 123 763 l 1
 123 893 l 1
 128 892 l 0
 201 885 296 877 370 877 c 0
 462 877 519 911 519 982 c 0
 519 1036 477 1070 425 1080 c 0
 400 1085 369 1085 334 1085 c 0
 251 1085 l 1
 251 1214 l 1
 334 1214 l 0
 368 1214 397 1215 421 1220 c 1
 471 1231 510 1263 510 1318 c 0
 510 1387 460 1422 368 1422 c 0
 295 1422 206 1412 139 1405 c 0
 133 1404 l 1
 133 1534 l 1
 137 1535 l 0
 207 1544 283 1552 368 1552 c 0
 538 1552 648 1458 648 1318 c 0
 648 1256 622 1196 551 1155 c 1
1029 650 m 1
 1029 -128 l 1
 891 -128 l 1
 891 128 l 1
 507 128 l 1
 507 205 l 1
 586 650 l 1
 717 650 l 1
 649 258 l 1
 891 258 l 1
 891 650 l 1
 1029 650 l 1
EndSplineSet
Validated: 1
Layer: 2
SplineSet
527 1492 m 0
 646.762451771 1492 732 1422.64739972 732 1322 c 0
 732 1232.28894423 671.641780681 1166.05090903 581.143949503 1147.30691629 c 1
 676.853928815 1130.2495602 740.999999929 1067.50964326 741 982 c 0
 741 878.213126302 651.881523794 807 527 807 c 0
 402.118349602 807 313 878.212416597 313 982 c 0
 313 1067.50908539 377.146202761 1130.24942252 472.856182468 1147.30689262 c 1
 382.358278572 1166.05085395 322.000000087 1232.28892634 322 1322 c 0
 322 1422.64742791 407.237547233 1492 527 1492 c 0
EndSplineSet
Layer: 3
Layer: 4
EndChar
